<svg width="57" height="24" viewBox="0 0 57 24" fill="none" xmlns="http://www.w3.org/2000/svg">
<path d="M44.0762 13.2812H32.8105V14.5254H37.6777V18.2305H39.1816V14.5254H44.0762V13.2812ZM33.4258 11.3262L33.9727 12.5293C36.0303 12.2695 37.6367 11.3877 38.4434 10.1846C39.2432 11.374 40.8291 12.2695 42.873 12.5293L43.4336 11.3262C40.9658 11.0254 39.3525 9.74707 39.209 8.52344H43.0234V7.32031H39.1816V5.87109H37.6777V7.32031H33.8496V8.52344H37.6641C37.5137 9.76074 35.8936 11.0254 33.4258 11.3262ZM54.5898 5.85742H53.0723V18.1895H54.5898V11.9551H56.4219V10.6836H54.5898V5.85742ZM44.8418 14.8125L45.7031 15.9883C49.8115 13.9648 51.3154 10.7725 51.3223 7.14258H45.5117V8.40039H49.7773C49.4766 11.2168 47.8496 13.3086 44.8418 14.8125Z" fill="#878787"/>
<path d="M18 12.998H13V17.998C13 18.2633 12.8946 18.5176 12.7071 18.7052C12.5196 18.8927 12.2652 18.998 12 18.998C11.7348 18.998 11.4804 18.8927 11.2929 18.7052C11.1054 18.5176 11 18.2633 11 17.998V12.998H6C5.73478 12.998 5.48043 12.8927 5.29289 12.7052C5.10536 12.5176 5 12.2633 5 11.998C5 11.7328 5.10536 11.4785 5.29289 11.2909C5.48043 11.1034 5.73478 10.998 6 10.998H11V5.99805C11 5.73283 11.1054 5.47848 11.2929 5.29094C11.4804 5.1034 11.7348 4.99805 12 4.99805C12.2652 4.99805 12.5196 5.1034 12.7071 5.29094C12.8946 5.47848 13 5.73283 13 5.99805V10.998H18C18.2652 10.998 18.5196 11.1034 18.7071 11.2909C18.8946 11.4785 19 11.7328 19 11.998C19 12.2633 18.8946 12.5176 18.7071 12.7052C18.5196 12.8927 18.2652 12.998 18 12.998Z" fill="#878787"/>
</svg>
