<svg width="318" height="61" viewBox="0 0 318 61" fill="none" xmlns="http://www.w3.org/2000/svg">
<rect opacity="0.3" x="5" y="20" width="70" height="22" fill="#FF9458"/>
<rect opacity="0.3" x="75" y="20" width="70" height="22" fill="#FFE094"/>
<rect x="145" y="20" width="160" height="22" fill="#D8593C" fill-opacity="0.3"/>
<path d="M235 26L235 42" stroke="#BEBEBE" stroke-width="1.4"/>
<path d="M135 26L135 42" stroke="#BEBEBE" stroke-width="1.4"/>
<path d="M145 26L145 42" stroke="#FFD2C3" stroke-width="1.4"/>
<path d="M285 26L285 42" stroke="#BEBEBE" stroke-width="1.4"/>
<path d="M85 26L85 42" stroke="#BEBEBE" stroke-width="1.4"/>
<path d="M185 26L185 42" stroke="#BEBEBE" stroke-width="1.4"/>
<path d="M45 26L45 42" stroke="#BEBEBE" stroke-width="1.4"/>
<path d="M35 26L35 42" stroke="#BEBEBE" stroke-width="1.4"/>
<path d="M25 26L25 42" stroke="#BEBEBE" stroke-width="1.4"/>
<path d="M15 26L15 42" stroke="#BEBEBE" stroke-width="1.4"/>
<path d="M245 26L245 42" stroke="#BEBEBE" stroke-width="1.4"/>
<path d="M75 26L75 42" stroke="#FFD2C3" stroke-width="1.4"/>
<path d="M215 26L215 42" stroke="#BEBEBE" stroke-width="1.4"/>
<path d="M115 26L115 42" stroke="#BEBEBE" stroke-width="1.4"/>
<path d="M125 26L125 42" stroke="#BEBEBE" stroke-width="1.4"/>
<path d="M65 26L65 42" stroke="#BEBEBE" stroke-width="1.4"/>
<path d="M165 26L165 42" stroke="#BEBEBE" stroke-width="1.4"/>
<path d="M95 26L95 42" stroke="#BEBEBE" stroke-width="1.4"/>
<path d="M195 26L195 42" stroke="#BEBEBE" stroke-width="1.4"/>
<path d="M275 26L275 42" stroke="#BEBEBE" stroke-width="1.4"/>
<path d="M175 26L175 42" stroke="#BEBEBE" stroke-width="1.4"/>
<path d="M295 26L295 42" stroke="#BEBEBE" stroke-width="1.4"/>
<path d="M5 12L5 42" stroke="#878787" stroke-width="1.4"/>
<path d="M305 12L305 42" stroke="#878787" stroke-width="1.4"/>
<path d="M265 26L265 42" stroke="#BEBEBE" stroke-width="1.4"/>
<path d="M225 26L225 42" stroke="#BEBEBE" stroke-width="1.4"/>
<path d="M255 20L255 42" stroke="#878787" stroke-width="1.4"/>
<path d="M105 20L105 42" stroke="#878787" stroke-width="1.4"/>
<path d="M155 20L155 42" stroke="#878787" stroke-width="1.4"/>
<path d="M55 20L55 42" stroke="#878787" stroke-width="1.4"/>
<path d="M205 20L205 42" stroke="#878787" stroke-width="1.4"/>
<path d="M4.31699 59.1595C6.60843 59.1595 7.95235 57.2983 7.95235 54.0546C7.95235 50.8349 6.59392 48.9641 4.31699 48.9641C2.04489 48.9641 0.686464 50.8301 0.686464 54.0546C0.68163 57.2983 2.03039 59.1595 4.31699 59.1595ZM4.31699 57.864C2.98273 57.864 2.18025 56.5249 2.18508 54.0546C2.18508 51.5891 2.9924 50.2452 4.31699 50.2452C5.64641 50.2452 6.45373 51.5891 6.45373 54.0546C6.45373 56.5249 5.65608 57.864 4.31699 57.864Z" fill="#FFE1DA"/>
<path d="M68.7845 59L73.1934 50.4385V49.0994H66.5269V50.3902H71.6319V50.4627L67.2134 59H68.7845ZM77.9322 59.1595C80.2237 59.1595 81.5676 57.2983 81.5676 54.0546C81.5676 50.8349 80.2092 48.9641 77.9322 48.9641C75.6601 48.9641 74.3017 50.8301 74.3017 54.0546C74.2969 57.2983 75.6456 59.1595 77.9322 59.1595ZM77.9322 57.864C76.598 57.864 75.7955 56.5249 75.8003 54.0546C75.8003 51.5891 76.6076 50.2452 77.9322 50.2452C79.2616 50.2452 80.069 51.5891 80.069 54.0546C80.069 56.5249 79.2713 57.864 77.9322 57.864Z" fill="#FFE1DA"/>
<path d="M136.162 49.0994L133.701 50.7141V52.1499L136.065 50.6077H136.123V59H137.631V49.0994H136.162ZM146.174 55.7949V49.0994H144.308L139.938 55.8529V57.0663H144.738V59H146.174V57.0663H147.518V55.7949H146.174ZM144.641 50.8881H144.748V55.7949H141.514V55.7175L144.641 50.8881ZM152.479 59.1595C154.771 59.1595 156.114 57.2983 156.114 54.0546C156.114 50.8349 154.756 48.9641 152.479 48.9641C150.207 48.9641 148.849 50.8301 148.849 54.0546C148.844 57.2983 150.192 59.1595 152.479 59.1595ZM152.479 57.864C151.145 57.864 150.342 56.5249 150.347 54.0546C150.347 51.5891 151.155 50.2452 152.479 50.2452C153.809 50.2452 154.616 51.5891 154.616 54.0546C154.616 56.5249 153.818 57.864 152.479 57.864Z" fill="#FFD2C3"/>
<path d="M218.527 59V57.7093H213.968V57.6367L215.979 55.5919C217.836 53.7693 218.358 52.8847 218.367 51.7776C218.358 50.1727 217.038 48.9641 215.128 48.9641C213.243 48.9641 211.865 50.163 211.87 51.9758H213.301C213.301 50.9171 214.002 50.2258 215.099 50.2258C216.139 50.2258 216.932 50.8446 216.936 51.8211C216.932 52.6913 216.39 53.3149 215.302 54.4413L211.87 57.9075L211.875 59H218.527ZM223.643 59.1595C225.935 59.1595 227.279 57.2983 227.279 54.0546C227.279 50.8349 225.92 48.9641 223.643 48.9641C221.371 48.9641 220.013 50.8301 220.013 54.0546C220.008 57.2983 221.357 59.1595 223.643 59.1595ZM223.643 57.864C222.309 57.864 221.506 56.5249 221.511 54.0546C221.511 51.5891 222.319 50.2452 223.643 50.2452C224.973 50.2452 225.78 51.5891 225.78 54.0546C225.78 56.5249 224.982 57.864 223.643 57.864ZM232.284 59.1595C234.575 59.1595 235.919 57.2983 235.919 54.0546C235.919 50.8349 234.561 48.9641 232.284 48.9641C230.012 48.9641 228.653 50.8301 228.653 54.0546C228.648 57.2983 229.997 59.1595 232.284 59.1595ZM232.284 57.864C230.95 57.864 230.147 56.5249 230.152 54.0546C230.152 51.5891 230.959 50.2452 232.284 50.2452C233.613 50.2452 234.421 51.5891 234.421 54.0546C234.421 56.5249 233.623 57.864 232.284 57.864Z" fill="#D8593C"/>
<path d="M295.385 59.1354C297.439 59.1354 298.962 57.9316 298.952 56.2831C298.962 55.0262 298.174 54.1174 296.83 53.9289V53.8515C297.894 53.5953 298.59 52.7831 298.58 51.6664C298.59 50.1968 297.362 48.9641 295.419 48.9641C293.567 48.9641 292.083 50.0615 292.035 51.6713H293.485C293.523 50.7769 294.408 50.2258 295.404 50.2258C296.448 50.2258 297.125 50.8349 297.125 51.7438C297.125 52.6913 296.337 53.3198 295.206 53.3198H294.365V54.5477H295.206C296.627 54.5477 297.439 55.2486 297.434 56.23C297.439 57.1872 296.569 57.8398 295.37 57.8398C294.268 57.8398 293.403 57.2838 293.349 56.4137H291.827C291.88 58.0331 293.34 59.1354 295.385 59.1354ZM304.053 59.1595C306.345 59.1595 307.689 57.2983 307.689 54.0546C307.689 50.8349 306.33 48.9641 304.053 48.9641C301.781 48.9641 300.423 50.8301 300.423 54.0546C300.418 57.2983 301.767 59.1595 304.053 59.1595ZM304.053 57.864C302.719 57.864 301.917 56.5249 301.921 54.0546C301.921 51.5891 302.729 50.2452 304.053 50.2452C305.383 50.2452 306.19 51.5891 306.19 54.0546C306.19 56.5249 305.392 57.864 304.053 57.864ZM312.694 59.1595C314.985 59.1595 316.329 57.2983 316.329 54.0546C316.329 50.8349 314.971 48.9641 312.694 48.9641C310.422 48.9641 309.063 50.8301 309.063 54.0546C309.059 57.2983 310.407 59.1595 312.694 59.1595ZM312.694 57.864C311.36 57.864 310.557 56.5249 310.562 54.0546C310.562 51.5891 311.369 50.2452 312.694 50.2452C314.023 50.2452 314.831 51.5891 314.831 54.0546C314.831 56.5249 314.033 57.864 312.694 57.864Z" fill="#D8593C"/>
<path d="M6.5 2C6.5 1.17157 5.82843 0.5 5 0.5C4.17157 0.5 3.5 1.17157 3.5 2L6.5 2ZM3.5 2L3.5 42L6.5 42L6.5 2L3.5 2Z" fill="#FF9458"/>
</svg>
