<svg width="317" height="48" viewBox="0 0 317 48" fill="none" xmlns="http://www.w3.org/2000/svg">
<rect opacity="0.3" x="5" y="8" width="70" height="22" fill="#FF9458"/>
<rect opacity="0.3" x="75" y="8" width="70" height="22" fill="#FFE094"/>
<rect x="145" y="8" width="160" height="22" fill="#D8593C" fill-opacity="0.3"/>
<path d="M235 14L235 30" stroke="#BEBEBE" stroke-width="1.4"/>
<path d="M135 14L135 30" stroke="#BEBEBE" stroke-width="1.4"/>
<path d="M145 14L145 30" stroke="#FFD2C3" stroke-width="1.4"/>
<path d="M285 14L285 30" stroke="#BEBEBE" stroke-width="1.4"/>
<path d="M85 14L85 30" stroke="#BEBEBE" stroke-width="1.4"/>
<path d="M185 14L185 30" stroke="#BEBEBE" stroke-width="1.4"/>
<path d="M45 14L45 30" stroke="#BEBEBE" stroke-width="1.4"/>
<path d="M35 14L35 30" stroke="#BEBEBE" stroke-width="1.4"/>
<path d="M25 14L25 30" stroke="#BEBEBE" stroke-width="1.4"/>
<path d="M15 14L15 30" stroke="#BEBEBE" stroke-width="1.4"/>
<path d="M245 14L245 30" stroke="#BEBEBE" stroke-width="1.4"/>
<path d="M75 14L75 30" stroke="#FFD2C3" stroke-width="1.4"/>
<path d="M215 14L215 30" stroke="#BEBEBE" stroke-width="1.4"/>
<path d="M115 14L115 30" stroke="#BEBEBE" stroke-width="1.4"/>
<path d="M125 14L125 30" stroke="#BEBEBE" stroke-width="1.4"/>
<path d="M65 14L65 30" stroke="#BEBEBE" stroke-width="1.4"/>
<path d="M165 14L165 30" stroke="#BEBEBE" stroke-width="1.4"/>
<path d="M95 14L95 30" stroke="#BEBEBE" stroke-width="1.4"/>
<path d="M195 14L195 30" stroke="#BEBEBE" stroke-width="1.4"/>
<path d="M275 14L275 30" stroke="#BEBEBE" stroke-width="1.4"/>
<path d="M175 14L175 30" stroke="#BEBEBE" stroke-width="1.4"/>
<path d="M295 14L295 30" stroke="#BEBEBE" stroke-width="1.4"/>
<path d="M5 0L5 30" stroke="#878787" stroke-width="1.4"/>
<path d="M305 0L305 30" stroke="#878787" stroke-width="1.4"/>
<path d="M265 14L265 30" stroke="#BEBEBE" stroke-width="1.4"/>
<path d="M225 14L225 30" stroke="#BEBEBE" stroke-width="1.4"/>
<path d="M255 8L255 30" stroke="#878787" stroke-width="1.4"/>
<path d="M105 8L105 30" stroke="#878787" stroke-width="1.4"/>
<path d="M155 8L155 30" stroke="#878787" stroke-width="1.4"/>
<path d="M55 8L55 30" stroke="#878787" stroke-width="1.4"/>
<path d="M205 8L205 30" stroke="#878787" stroke-width="1.4"/>
<rect opacity="0.3" x="5" y="8" width="70" height="22" fill="#FF9458"/>
<rect opacity="0.3" x="75" y="8" width="70" height="22" fill="#FFE094"/>
<rect x="145" y="8" width="160" height="22" fill="#D8593C" fill-opacity="0.3"/>
<path d="M5 0L5 30" stroke="#878787" stroke-width="1.4"/>
<path d="M305 0L305 30" stroke="#878787" stroke-width="1.4"/>
<path d="M255 8L255 30" stroke="#878787" stroke-width="1.4"/>
<path d="M105 8L105 30" stroke="#878787" stroke-width="1.4"/>
<path d="M155 8L155 30" stroke="#878787" stroke-width="1.4"/>
<path d="M55 8L55 30" stroke="#878787" stroke-width="1.4"/>
<path d="M205 8L205 30" stroke="#878787" stroke-width="1.4"/>
<path d="M4.31699 47.1595C6.60843 47.1595 7.95235 45.2983 7.95235 42.0546C7.95235 38.8349 6.59392 36.9641 4.31699 36.9641C2.04489 36.9641 0.686464 38.8301 0.686464 42.0546C0.68163 45.2983 2.03039 47.1595 4.31699 47.1595ZM4.31699 45.864C2.98273 45.864 2.18025 44.5249 2.18508 42.0546C2.18508 39.5891 2.9924 38.2452 4.31699 38.2452C5.64641 38.2452 6.45373 39.5891 6.45373 42.0546C6.45373 44.5249 5.65608 45.864 4.31699 45.864Z" fill="#FFE1DA"/>
<path d="M136.162 37.0994L133.701 38.7141V40.1499L136.065 38.6077H136.123V47H137.631V37.0994H136.162ZM146.174 43.7949V37.0994H144.308L139.938 43.8529V45.0663H144.738V47H146.174V45.0663H147.518V43.7949H146.174ZM144.641 38.8881H144.748V43.7949H141.514V43.7175L144.641 38.8881ZM152.479 47.1595C154.771 47.1595 156.114 45.2983 156.114 42.0546C156.114 38.8349 154.756 36.9641 152.479 36.9641C150.207 36.9641 148.849 38.8301 148.849 42.0546C148.844 45.2983 150.192 47.1595 152.479 47.1595ZM152.479 45.864C151.145 45.864 150.342 44.5249 150.347 42.0546C150.347 39.5891 151.155 38.2452 152.479 38.2452C153.809 38.2452 154.616 39.5891 154.616 42.0546C154.616 44.5249 153.818 45.864 152.479 45.864Z" fill="#FFD2C3"/>
<path d="M218.527 47V45.7093H213.968V45.6367L215.979 43.5919C217.836 41.7693 218.358 40.8847 218.367 39.7776C218.358 38.1727 217.038 36.9641 215.128 36.9641C213.243 36.9641 211.865 38.163 211.87 39.9758H213.301C213.301 38.9171 214.002 38.2258 215.099 38.2258C216.139 38.2258 216.932 38.8446 216.936 39.8211C216.932 40.6913 216.39 41.3149 215.302 42.4413L211.87 45.9075L211.875 47H218.527ZM223.643 47.1595C225.935 47.1595 227.279 45.2983 227.279 42.0546C227.279 38.8349 225.92 36.9641 223.643 36.9641C221.371 36.9641 220.013 38.8301 220.013 42.0546C220.008 45.2983 221.357 47.1595 223.643 47.1595ZM223.643 45.864C222.309 45.864 221.506 44.5249 221.511 42.0546C221.511 39.5891 222.319 38.2452 223.643 38.2452C224.973 38.2452 225.78 39.5891 225.78 42.0546C225.78 44.5249 224.982 45.864 223.643 45.864ZM232.284 47.1595C234.575 47.1595 235.919 45.2983 235.919 42.0546C235.919 38.8349 234.561 36.9641 232.284 36.9641C230.012 36.9641 228.653 38.8301 228.653 42.0546C228.648 45.2983 229.997 47.1595 232.284 47.1595ZM232.284 45.864C230.95 45.864 230.147 44.5249 230.152 42.0546C230.152 39.5891 230.959 38.2452 232.284 38.2452C233.613 38.2452 234.421 39.5891 234.421 42.0546C234.421 44.5249 233.623 45.864 232.284 45.864Z" fill="#D8593C"/>
<path d="M295.385 47.1354C297.439 47.1354 298.962 45.9316 298.952 44.2831C298.962 43.0262 298.174 42.1174 296.83 41.9289V41.8515C297.894 41.5953 298.59 40.7831 298.58 39.6664C298.59 38.1968 297.362 36.9641 295.419 36.9641C293.567 36.9641 292.083 38.0615 292.035 39.6713H293.485C293.523 38.7769 294.408 38.2258 295.404 38.2258C296.448 38.2258 297.125 38.8349 297.125 39.7438C297.125 40.6913 296.337 41.3198 295.206 41.3198H294.365V42.5477H295.206C296.627 42.5477 297.439 43.2486 297.434 44.23C297.439 45.1872 296.569 45.8398 295.37 45.8398C294.268 45.8398 293.403 45.2838 293.349 44.4137H291.827C291.88 46.0331 293.34 47.1354 295.385 47.1354ZM304.053 47.1595C306.345 47.1595 307.689 45.2983 307.689 42.0546C307.689 38.8349 306.33 36.9641 304.053 36.9641C301.781 36.9641 300.423 38.8301 300.423 42.0546C300.418 45.2983 301.767 47.1595 304.053 47.1595ZM304.053 45.864C302.719 45.864 301.917 44.5249 301.921 42.0546C301.921 39.5891 302.729 38.2452 304.053 38.2452C305.383 38.2452 306.19 39.5891 306.19 42.0546C306.19 44.5249 305.392 45.864 304.053 45.864ZM312.694 47.1595C314.985 47.1595 316.329 45.2983 316.329 42.0546C316.329 38.8349 314.971 36.9641 312.694 36.9641C310.422 36.9641 309.063 38.8301 309.063 42.0546C309.059 45.2983 310.407 47.1595 312.694 47.1595ZM312.694 45.864C311.36 45.864 310.557 44.5249 310.562 42.0546C310.562 39.5891 311.369 38.2452 312.694 38.2452C314.023 38.2452 314.831 39.5891 314.831 42.0546C314.831 44.5249 314.033 45.864 312.694 45.864Z" fill="#D8593C"/>
</svg>
