<svg width="16" height="16" viewBox="0 0 16 16" fill="none" xmlns="http://www.w3.org/2000/svg">
<path fill-rule="evenodd" clip-rule="evenodd" d="M4.31736 1.36376C4.0522 1.36402 3.798 1.46959 3.61066 1.65724C3.42332 1.84489 3.31818 2.09926 3.31836 2.36442L3.32503 10.6978C3.32511 10.8291 3.35108 10.9592 3.40143 11.0805C3.45179 11.2018 3.52555 11.312 3.61851 11.4048C3.71146 11.4976 3.82179 11.5712 3.94319 11.6213C4.06459 11.6715 4.19468 11.6972 4.32603 11.6971L5.90936 11.6958C5.96408 11.6957 6.01825 11.6849 6.06879 11.6639C6.11932 11.6429 6.16523 11.6122 6.20389 11.5735C6.24255 11.5348 6.27321 11.4888 6.2941 11.4382C6.315 11.3877 6.32574 11.3335 6.32569 11.2788C6.32569 11.0488 6.51169 10.8621 6.74203 10.8618L9.24203 10.8594C9.47203 10.8594 9.65869 11.0458 9.65869 11.2761C9.65878 11.3308 9.66964 11.385 9.69066 11.4355C9.71168 11.486 9.74245 11.5319 9.7812 11.5705C9.81996 11.6092 9.86594 11.6398 9.91652 11.6606C9.96711 11.6815 10.0213 11.6922 10.076 11.6921L11.6594 11.6911C11.7907 11.691 11.9207 11.665 12.042 11.6146C12.1632 11.5642 12.2734 11.4904 12.3662 11.3975C12.4589 11.3045 12.5325 11.1942 12.5826 11.0728C12.6328 10.9515 12.6585 10.8214 12.6584 10.6901L12.6517 2.35676C12.6516 2.22541 12.6256 2.09536 12.5753 1.97405C12.5249 1.85273 12.4512 1.74253 12.3582 1.64973C12.2653 1.55693 12.1549 1.48335 12.0335 1.43319C11.9121 1.38304 11.782 1.35729 11.6507 1.35742L4.31736 1.36376ZM10.9854 2.69142L4.98536 2.69642L4.99003 8.69642L10.99 8.69142L10.9854 2.69142ZM5.32436 9.86309C5.32436 9.77468 5.35948 9.6899 5.42199 9.62739C5.4845 9.56487 5.56929 9.52976 5.65769 9.52976L6.99103 9.52842C7.07943 9.52838 7.16423 9.56345 7.22678 9.62594C7.28932 9.68842 7.32448 9.77318 7.32453 9.86159C7.32457 9.94999 7.28949 10.0348 7.22701 10.0973C7.16453 10.1599 7.07977 10.195 6.99136 10.1951L5.65803 10.1961C5.56968 10.1961 5.48494 10.161 5.42244 10.0986C5.35994 10.0361 5.32478 9.95144 5.32469 9.86309H5.32436ZM8.99103 9.52676C8.90262 9.5268 8.81785 9.56196 8.75537 9.6245C8.69289 9.68705 8.65781 9.77185 8.65786 9.86026C8.6579 9.94866 8.69307 10.0334 8.75561 10.0959C8.81815 10.1584 8.90295 10.1935 8.99136 10.1934L10.3247 10.1924C10.3685 10.1924 10.4118 10.1837 10.4522 10.1669C10.4927 10.1501 10.5294 10.1255 10.5603 10.0946C10.5912 10.0636 10.6157 10.0268 10.6324 9.98634C10.6492 9.94588 10.6577 9.90253 10.6577 9.85876C10.6576 9.81498 10.649 9.77164 10.6322 9.73122C10.6154 9.69079 10.5908 9.65407 10.5598 9.62315C10.5288 9.59223 10.4921 9.56771 10.4516 9.551C10.4112 9.53429 10.3678 9.52571 10.324 9.52575L8.99069 9.52676H8.99103Z" fill="#BEBEBE"/>
<path d="M9.32145 6.11148C9.32212 6.82282 8.73579 7.38181 7.98912 7.38248C7.24245 7.38315 6.65545 6.82482 6.65479 6.11382C6.65412 5.40248 7.98645 3.82715 7.98645 3.82715C7.98645 3.82715 9.32079 5.45115 9.32145 6.11148Z" fill="#BEBEBE"/>
<path fill-rule="evenodd" clip-rule="evenodd" d="M9.32537 11.0261L6.6587 11.0281L6.66137 14.0281L9.32803 14.0257L9.32537 11.0257V11.0261ZM5.9917 10.3617L5.99503 14.6951L9.99503 14.6917L9.9917 10.3584L5.9917 10.3617Z" fill="#BEBEBE"/>
<path d="M8.65999 12.6932C8.66017 12.87 8.5901 13.0396 8.4652 13.1648C8.3403 13.2899 8.1708 13.3603 7.99399 13.3605C7.90645 13.3606 7.81974 13.3434 7.73882 13.31C7.6579 13.2766 7.58436 13.2276 7.52239 13.1657C7.39724 13.0408 7.32684 12.8713 7.32666 12.6945C7.32653 12.5177 7.39664 12.3481 7.52157 12.223C7.6465 12.0978 7.81602 12.0275 7.99283 12.0273C8.16964 12.0272 8.33926 12.0973 8.46438 12.2223C8.5895 12.3472 8.65986 12.5167 8.65999 12.6935V12.6932Z" fill="#BEBEBE"/>
</svg>
