<svg width="16" height="16" viewBox="0 0 16 16" fill="none" xmlns="http://www.w3.org/2000/svg">
<g clip-path="url(#clip0_1014_6976)">
<path d="M8.66699 13.333C8.83691 13.3332 9.00035 13.3983 9.1239 13.5149C9.24746 13.6316 9.32182 13.791 9.33177 13.9606C9.34173 14.1302 9.28654 14.2973 9.17748 14.4276C9.06842 14.5579 8.91372 14.6416 8.74499 14.6617L8.66699 14.6663H7.33366C7.16374 14.6662 7.0003 14.6011 6.87675 14.4844C6.75319 14.3678 6.67884 14.2084 6.66888 14.0387C6.65892 13.8691 6.71411 13.7021 6.82317 13.5718C6.93223 13.4415 7.08693 13.3577 7.25566 13.3377L7.33366 13.333H8.66699ZM8.00033 1.33301C10.9403 1.33301 13.3337 3.69501 13.3337 6.62167C13.3337 8.62567 12.319 10.0857 11.4803 10.951L11.291 11.1397L11.111 11.3077L10.943 11.4543L10.723 11.6343L10.5043 11.797C10.3437 11.9103 10.2357 12.0763 10.1377 12.249L10.001 12.4917C9.84233 12.765 9.65633 12.9997 9.26233 12.9997H6.73833C6.34499 12.9997 6.15833 12.7657 5.99966 12.4917L5.92099 12.353C5.80633 12.145 5.68899 11.933 5.49633 11.797L5.34166 11.683L5.20899 11.5797L5.05766 11.4543L4.88966 11.3077L4.70966 11.1397L4.51966 10.951C3.68166 10.0857 2.66699 8.62567 2.66699 6.62167C2.66699 3.69501 5.06033 1.33301 8.00033 1.33301ZM9.13833 4.19501C9.02353 4.08022 8.8708 4.01127 8.70878 4.00108C8.54676 3.99089 8.38659 4.04017 8.25833 4.13967L8.19566 4.19501L6.86699 5.52367C6.75108 5.6396 6.68144 5.79382 6.67113 5.95743C6.66082 6.12104 6.71055 6.28279 6.81099 6.41234L6.86699 6.47567L7.72433 7.33301L6.86233 8.19501C6.74276 8.31498 6.67334 8.47596 6.66817 8.64526C6.663 8.81456 6.72247 8.97948 6.83449 9.10653C6.94651 9.23357 7.10269 9.31321 7.27131 9.32927C7.43992 9.34534 7.60833 9.29662 7.74233 9.19301L7.80499 9.13767L9.13366 7.80901C9.24957 7.69309 9.31921 7.53886 9.32952 7.37525C9.33983 7.21165 9.2901 7.0499 9.18966 6.92034L9.13366 6.85701L8.27633 5.99967L9.13833 5.13767C9.26331 5.01266 9.33352 4.84312 9.33352 4.66634C9.33352 4.48957 9.26331 4.32003 9.13833 4.19501Z" fill="#323232"/>
</g>
<defs>
<clipPath id="clip0_1014_6976">
<rect width="16" height="16" fill="white"/>
</clipPath>
</defs>
</svg>
