<svg width="16" height="16" viewBox="0 0 16 16" fill="none" xmlns="http://www.w3.org/2000/svg">
<path d="M1.3335 12.6663C1.3335 13.7997 2.20016 14.6663 3.3335 14.6663H12.6668C13.8002 14.6663 14.6668 13.7997 14.6668 12.6663V7.33301H1.3335V12.6663ZM12.6668 2.66634H11.3335V1.99967C11.3335 1.59967 11.0668 1.33301 10.6668 1.33301C10.2668 1.33301 10.0002 1.59967 10.0002 1.99967V2.66634H6.00016V1.99967C6.00016 1.59967 5.7335 1.33301 5.3335 1.33301C4.9335 1.33301 4.66683 1.59967 4.66683 1.99967V2.66634H3.3335C2.20016 2.66634 1.3335 3.53301 1.3335 4.66634V5.99967H14.6668V4.66634C14.6668 3.53301 13.8002 2.66634 12.6668 2.66634Z" fill="#878787"/>
</svg>
