<svg width="16" height="16" viewBox="0 0 16 16" fill="none" xmlns="http://www.w3.org/2000/svg">
<path d="M7.06634 9.19967L5.61634 7.74967C5.49412 7.62745 5.34412 7.56634 5.16634 7.56634C4.98856 7.56634 4.83301 7.63301 4.69967 7.76634C4.57745 7.88856 4.51634 8.04412 4.51634 8.23301C4.51634 8.4219 4.57745 8.57745 4.69967 8.69967L6.59967 10.5997C6.7219 10.7219 6.87745 10.783 7.06634 10.783C7.25523 10.783 7.41079 10.7219 7.53301 10.5997L11.3163 6.81634C11.4386 6.69412 11.4997 6.54412 11.4997 6.36634C11.4997 6.18856 11.433 6.03301 11.2997 5.89967C11.1775 5.77745 11.0219 5.71634 10.833 5.71634C10.6441 5.71634 10.4886 5.77745 10.3663 5.89967L7.06634 9.19967ZM7.99967 14.6663C7.07745 14.6663 6.21079 14.4912 5.39967 14.141C4.58856 13.7912 3.88301 13.3163 3.28301 12.7163C2.68301 12.1163 2.20812 11.4108 1.85834 10.5997C1.50812 9.78856 1.33301 8.9219 1.33301 7.99967C1.33301 7.07745 1.50812 6.21079 1.85834 5.39967C2.20812 4.58856 2.68301 3.88301 3.28301 3.28301C3.88301 2.68301 4.58856 2.2079 5.39967 1.85767C6.21079 1.5079 7.07745 1.33301 7.99967 1.33301C8.9219 1.33301 9.78856 1.5079 10.5997 1.85767C11.4108 2.2079 12.1163 2.68301 12.7163 3.28301C13.3163 3.88301 13.7912 4.58856 14.141 5.39967C14.4912 6.21079 14.6663 7.07745 14.6663 7.99967C14.6663 8.9219 14.4912 9.78856 14.141 10.5997C13.7912 11.4108 13.3163 12.1163 12.7163 12.7163C12.1163 13.3163 11.4108 13.7912 10.5997 14.141C9.78856 14.4912 8.9219 14.6663 7.99967 14.6663Z" fill="#BEBEBE"/>
</svg>
