<svg width="16" height="16" viewBox="0 0 16 16" fill="none" xmlns="http://www.w3.org/2000/svg">
<path d="M6.66654 2.00033C6.47765 2.00033 6.31943 1.93633 6.19187 1.80833C6.06387 1.68077 5.99987 1.52255 5.99987 1.33366C5.99987 1.14477 6.06387 0.986326 6.19187 0.858325C6.31943 0.73077 6.47765 0.666992 6.66654 0.666992H9.3332C9.52209 0.666992 9.68054 0.73077 9.80854 0.858325C9.93609 0.986326 9.99987 1.14477 9.99987 1.33366C9.99987 1.52255 9.93609 1.68077 9.80854 1.80833C9.68054 1.93633 9.52209 2.00033 9.3332 2.00033H6.66654ZM6.66654 9.83366L5.9332 8.36699C5.87765 8.24477 5.79431 8.15299 5.6832 8.09166C5.57209 8.03077 5.45543 8.00033 5.3332 8.00033H2.0332C2.19987 6.50033 2.84987 5.23633 3.9832 4.20833C5.11654 3.18077 6.45543 2.66699 7.99987 2.66699C8.68876 2.66699 9.34987 2.7781 9.9832 3.00033C10.6165 3.22255 11.211 3.54477 11.7665 3.96699L12.2332 3.50033C12.3554 3.3781 12.511 3.3141 12.6999 3.30833C12.8888 3.30299 13.0443 3.36699 13.1665 3.50033C13.2888 3.62255 13.3499 3.7781 13.3499 3.96699C13.3499 4.15588 13.2888 4.31144 13.1665 4.43366L12.6999 4.90033C13.0554 5.36699 13.3388 5.85855 13.5499 6.37499C13.761 6.89188 13.8999 7.43366 13.9665 8.00033H11.0832L9.9332 5.70033C9.81098 5.44477 9.61098 5.31699 9.3332 5.31699C9.05543 5.31699 8.85543 5.44477 8.7332 5.70033L6.66654 9.83366ZM7.99987 14.667C6.45543 14.667 5.11654 14.1532 3.9832 13.1257C2.84987 12.0977 2.19987 10.8337 2.0332 9.33366H4.91654L6.06654 11.6337C6.18876 11.8892 6.38876 12.017 6.66654 12.017C6.94431 12.017 7.14431 11.8892 7.26654 11.6337L9.3332 7.50033L10.0665 8.96699C10.1221 9.08921 10.2054 9.18099 10.3165 9.24233C10.4276 9.30322 10.5443 9.33366 10.6665 9.33366H13.9665C13.7999 10.8337 13.1528 12.0977 12.0252 13.1257C10.8972 14.1532 9.55543 14.667 7.99987 14.667Z" fill="#BEBEBE"/>
</svg>
