<svg width="24" height="24" viewBox="0 0 24 24" fill="none" xmlns="http://www.w3.org/2000/svg">
<path d="M6 2.25C6 2.05109 5.92098 1.86032 5.78033 1.71967C5.63968 1.57902 5.44891 1.5 5.25 1.5C5.05109 1.5 4.86032 1.57902 4.71967 1.71967C4.57902 1.86032 4.5 2.05109 4.5 2.25V6.75C4.49982 7.61449 4.79834 8.45249 5.34502 9.12218C5.8917 9.79186 6.65298 10.2521 7.5 10.425V21.75C7.5 21.9489 7.57902 22.1397 7.71967 22.2803C7.86032 22.421 8.05109 22.5 8.25 22.5C8.44891 22.5 8.63968 22.421 8.78033 22.2803C8.92098 22.1397 9 21.9489 9 21.75V10.425C9.84702 10.2521 10.6083 9.79186 11.155 9.12218C11.7017 8.45249 12.0002 7.61449 12 6.75V2.25C12 2.05109 11.921 1.86032 11.7803 1.71967C11.6397 1.57902 11.4489 1.5 11.25 1.5C11.0511 1.5 10.8603 1.57902 10.7197 1.71967C10.579 1.86032 10.5 2.05109 10.5 2.25V6.75C10.5002 7.21549 10.3561 7.6696 10.0875 8.04974C9.81881 8.42988 9.43887 8.71734 9 8.8725V2.25C9 2.05109 8.92098 1.86032 8.78033 1.71967C8.63968 1.57902 8.44891 1.5 8.25 1.5C8.05109 1.5 7.86032 1.57902 7.71967 1.71967C7.57902 1.86032 7.5 2.05109 7.5 2.25V8.8725C7.06113 8.71734 6.68119 8.42988 6.41254 8.04974C6.14389 7.6696 5.99976 7.21549 6 6.75V2.25ZM16.5 21.75V12H14.25C14.0511 12 13.8603 11.921 13.7197 11.7803C13.579 11.6397 13.5 11.4489 13.5 11.25V5.25C13.5 4.2555 13.989 3.3255 14.6565 2.6565C15.3255 1.989 16.2555 1.5 17.25 1.5C17.4489 1.5 17.6397 1.57902 17.7803 1.71967C17.921 1.86032 18 2.05109 18 2.25V21.75C18 21.9489 17.921 22.1397 17.7803 22.2803C17.6397 22.421 17.4489 22.5 17.25 22.5C17.0511 22.5 16.8603 22.421 16.7197 22.2803C16.579 22.1397 16.5 21.9489 16.5 21.75Z" fill="#323232"/>
</svg>
