<svg width="16" height="16" viewBox="0 0 16 16" fill="none" xmlns="http://www.w3.org/2000/svg">
<path d="M4 1.5C4 1.36739 3.94732 1.24021 3.85355 1.14645C3.75979 1.05268 3.63261 1 3.5 1C3.36739 1 3.24021 1.05268 3.14645 1.14645C3.05268 1.24021 3 1.36739 3 1.5V4.5C2.99988 5.07633 3.19889 5.63499 3.56335 6.08145C3.9278 6.52791 4.43532 6.83473 5 6.95V14.5C5 14.6326 5.05268 14.7598 5.14645 14.8536C5.24021 14.9473 5.36739 15 5.5 15C5.63261 15 5.75979 14.9473 5.85355 14.8536C5.94732 14.7598 6 14.6326 6 14.5V6.95C6.56468 6.83473 7.0722 6.52791 7.43665 6.08145C7.80111 5.63499 8.00012 5.07633 8 4.5V1.5C8 1.36739 7.94732 1.24021 7.85355 1.14645C7.75979 1.05268 7.63261 1 7.5 1C7.36739 1 7.24021 1.05268 7.14645 1.14645C7.05268 1.24021 7 1.36739 7 1.5V4.5C7.00016 4.81033 6.90407 5.11306 6.72497 5.36649C6.54587 5.61992 6.29258 5.81156 6 5.915V1.5C6 1.36739 5.94732 1.24021 5.85355 1.14645C5.75979 1.05268 5.63261 1 5.5 1C5.36739 1 5.24021 1.05268 5.14645 1.14645C5.05268 1.24021 5 1.36739 5 1.5V5.915C4.70742 5.81156 4.45413 5.61992 4.27503 5.36649C4.09593 5.11306 3.99984 4.81033 4 4.5V1.5ZM11 14.5V8H9.5C9.36739 8 9.24021 7.94732 9.14645 7.85355C9.05268 7.75979 9 7.63261 9 7.5V3.5C9 2.837 9.326 2.217 9.771 1.771C10.217 1.326 10.837 1 11.5 1C11.6326 1 11.7598 1.05268 11.8536 1.14645C11.9473 1.24021 12 1.36739 12 1.5V14.5C12 14.6326 11.9473 14.7598 11.8536 14.8536C11.7598 14.9473 11.6326 15 11.5 15C11.3674 15 11.2402 14.9473 11.1464 14.8536C11.0527 14.7598 11 14.6326 11 14.5Z" fill="#878787"/>
</svg>
