<svg width="16" height="16" viewBox="0 0 16 16" fill="none" xmlns="http://www.w3.org/2000/svg">
<path d="M14.0185 9.68079C13.7248 10.7318 13.1611 11.6876 12.3834 12.4531C11.6057 13.2186 10.6411 13.7671 9.58564 14.0441C8.53015 14.3211 7.42053 14.317 6.36714 14.0321C5.31376 13.7471 4.35333 13.1914 3.5814 12.4201C2.80947 11.6488 2.25293 10.6888 1.96715 9.63564C1.68137 8.58249 1.67632 7.47286 1.95248 6.41715C2.22864 5.36144 2.77641 4.39643 3.54128 3.61811C4.30615 2.8398 5.26147 2.27531 6.31221 1.98079C6.38919 1.95601 6.47109 1.95051 6.5507 1.96478C6.6303 1.97906 6.70519 2.01267 6.76876 2.06267C6.83233 2.11266 6.88265 2.17751 6.91529 2.25151C6.94793 2.3255 6.9619 2.40639 6.95596 2.48704C6.95579 2.52531 6.94946 2.5633 6.93721 2.59954C6.68925 3.49451 6.68313 4.43924 6.91947 5.33735C7.15581 6.23545 7.62615 7.0548 8.28251 7.71179C8.93887 8.36879 9.75776 8.83992 10.6556 9.07713C11.5535 9.31434 12.4983 9.30913 13.3935 9.06204L13.531 9.03705C13.6397 9.03619 13.7458 9.07037 13.8336 9.13454C13.9214 9.1987 13.9862 9.28943 14.0185 9.39329C14.0499 9.48655 14.0499 9.58754 14.0185 9.68079V9.68079Z" fill="white"/>
</svg>
