<svg width="16" height="16" viewBox="0 0 16 16" fill="none" xmlns="http://www.w3.org/2000/svg">
<path d="M14.3322 10C14.1165 10 13.9066 9.93027 13.7338 9.80122L13.0066 9.25807C12.6625 9.00109 12.5392 8.54184 12.7084 8.14709V8.14709C12.9535 7.57513 12.5784 6.92851 11.9602 6.85742L11.9308 6.85404C11.5041 6.80497 11.1691 6.46548 11.1257 6.03818V6.03818C11.0634 5.42427 10.4175 5.04963 9.85035 5.29271V5.29271C9.45907 5.4604 8.99948 5.33828 8.74474 4.9972V4.9972C8.37388 4.50062 7.62788 4.49827 7.25701 4.99485V4.99485C7.00065 5.33811 6.54191 5.46082 6.14812 5.29205V5.29205C5.57616 5.04692 4.92851 5.42163 4.85742 6.03983L4.85404 6.06923C4.80497 6.49592 4.46548 6.83092 4.03818 6.8743V6.8743C3.42427 6.93662 3.04963 7.58248 3.29271 8.14965V8.14965C3.4604 8.54093 3.33965 8.9995 2.99857 9.25423L2.26617 9.80122C2.09337 9.93027 1.88347 10 1.66779 10H0.5C0.223858 10 0 10.2239 0 10.5V10.5C0 10.7761 0.223858 11 0.5 11H15.5C15.7761 11 16 10.7761 16 10.5V10.5C16 10.2239 15.7761 10 15.5 10H14.3322ZM5.03538 9.99909C4.46947 9.99959 4.00487 9.52355 4.16335 8.98028C4.35649 8.31816 4.71354 7.70924 5.20851 7.21339C5.9496 6.47101 6.9447 6.03738 7.993 6C9.0426 6.0338 10.0402 6.46493 10.7841 7.20619C11.2811 7.70154 11.6401 8.31069 11.8348 8.97352C11.9943 9.51652 11.5305 9.99341 10.9646 9.99391L5.03538 9.99909Z" fill="white"/>
</svg>
