<svg width="32" height="32" viewBox="0 0 32 32" fill="none" xmlns="http://www.w3.org/2000/svg">
<path d="M13.6092 22.4566C13.7803 22.4568 13.9497 22.4232 14.1077 22.3577C14.2657 22.2922 14.4092 22.1961 14.53 22.075L20.055 16.5494C20.1759 16.4285 20.2719 16.285 20.3374 16.127C20.4028 15.969 20.4365 15.7996 20.4365 15.6286C20.4365 15.4576 20.4028 15.2882 20.3374 15.1302C20.2719 14.9722 20.1759 14.8287 20.055 14.7078L14.53 9.1822C14.2858 8.93798 13.9546 8.80078 13.6092 8.80078C13.2638 8.80078 12.9326 8.93798 12.6884 9.1822C12.4442 9.42642 12.307 9.75765 12.307 10.103C12.307 10.4484 12.4442 10.7796 12.6884 11.0239L17.2925 15.6286L12.6883 20.2334C12.5063 20.4155 12.3823 20.6476 12.332 20.9002C12.2818 21.1528 12.3076 21.4146 12.4061 21.6525C12.5047 21.8905 12.6716 22.0939 12.8857 22.237C13.0998 22.3801 13.3516 22.4565 13.6091 22.4566L13.6092 22.4566Z" fill="#878787"/>
</svg>
