<svg width="24" height="24" viewBox="0 0 24 24" fill="none" xmlns="http://www.w3.org/2000/svg">
<path d="M11.051 19.3997H20.25C20.4754 19.3997 20.6916 19.4892 20.851 19.6486C21.0104 19.808 21.1 20.0242 21.1 20.2497C21.1 20.4751 21.0104 20.6913 20.851 20.8507C20.6916 21.0101 20.4754 21.0997 20.25 21.0997H4.5C4.07565 21.0997 3.66869 20.9311 3.36863 20.631C3.06857 20.331 2.9 19.924 2.9 19.4997L2.9 15.3091L2.9 15.309H3C2.99983 15.1121 3.03867 14.9171 3.1143 14.7353C3.18993 14.5534 3.30084 14.3884 3.44063 14.2497L11.051 19.3997ZM11.051 19.3997L18.605 11.8548L18.6052 11.8546L21.0704 9.3801C21.0704 9.38004 21.0705 9.37997 21.0706 9.3799C21.2199 9.23203 21.3384 9.05604 21.4193 8.8621C21.5003 8.66806 21.542 8.4599 21.542 8.24966C21.542 8.03941 21.5003 7.83126 21.4193 7.63722C21.3384 7.44327 21.2199 7.26727 21.0705 7.1194C21.0705 7.11934 21.0704 7.11928 21.0704 7.11921L16.8801 2.92895L16.8796 2.92843C16.5785 2.63174 16.1727 2.46543 15.75 2.46543C15.3273 2.46543 14.9215 2.63174 14.6204 2.92843L14.6199 2.92895L3.37019 14.1787C3.37011 14.1788 3.37004 14.1788 3.36996 14.1789L11.051 19.3997ZM13.9508 5.99966L15.75 4.20046L19.7992 8.24966L18 10.0489L13.9508 5.99966ZM8.6492 19.3997H4.6V15.3505L12.75 7.20046L16.7992 11.2497L8.6492 19.3997Z" fill="#323232" stroke="#323232" stroke-width="0.2"/>
</svg>
