<svg width="16" height="16" viewBox="0 0 16 16" fill="none" xmlns="http://www.w3.org/2000/svg">
<g clip-path="url(#clip0_1090_7186)">
<path d="M14.25 5.75L13.3333 5.33333L14.25 4.91667L14.6667 4L15.0833 4.91667L16 5.33333L15.0833 5.75L14.6667 6.66667L14.25 5.75ZM12.0333 2.63333L10.6667 2L12.0333 1.36667L12.6667 0L13.3 1.36667L14.6667 2L13.3 2.63333L12.6667 4L12.0333 2.63333ZM6 14.6667C5.63333 14.6667 5.31956 14.5362 5.05867 14.2753C4.79733 14.014 4.66667 13.7 4.66667 13.3333H7.33333C7.33333 13.7 7.20289 14.014 6.942 14.2753C6.68067 14.5362 6.36667 14.6667 6 14.6667ZM4 12.6667C3.81111 12.6667 3.65267 12.6027 3.52467 12.4747C3.39711 12.3471 3.33333 12.1889 3.33333 12C3.33333 11.8111 3.39711 11.6529 3.52467 11.5253C3.65267 11.3973 3.81111 11.3333 4 11.3333H8C8.18889 11.3333 8.34733 11.3973 8.47533 11.5253C8.60289 11.6529 8.66667 11.8111 8.66667 12C8.66667 12.1889 8.60289 12.3471 8.47533 12.4747C8.34733 12.6027 8.18889 12.6667 8 12.6667H4ZM3.5 10.6667C2.73333 10.2111 2.12511 9.6 1.67533 8.83333C1.22511 8.06667 1 7.23333 1 6.33333C1 4.94444 1.48622 3.764 2.45867 2.792C3.43067 1.81956 4.61111 1.33333 6 1.33333C7.38889 1.33333 8.56933 1.81956 9.54133 2.792C10.5138 3.764 11 4.94444 11 6.33333C11 7.23333 10.7751 8.06667 10.3253 8.83333C9.87511 9.6 9.26667 10.2111 8.5 10.6667H3.5Z" fill="#878787"/>
</g>
<defs>
<clipPath id="clip0_1090_7186">
<rect width="16" height="16" fill="white"/>
</clipPath>
</defs>
</svg>
