<svg width="16" height="16" viewBox="0 0 16 16" fill="none" xmlns="http://www.w3.org/2000/svg">
<path d="M13.0311 11.9691C13.1011 12.0388 13.1565 12.1215 13.1944 12.2127C13.2322 12.3039 13.2517 12.4016 13.2517 12.5003C13.2517 12.599 13.2322 12.6968 13.1944 12.7879C13.1565 12.8791 13.1011 12.9619 13.0311 13.0316C12.8896 13.1713 12.6987 13.2496 12.4999 13.2496C12.301 13.2496 12.1102 13.1713 11.9686 13.0316L7.99989 9.06282L4.03114 13.0316C3.88961 13.1713 3.69875 13.2496 3.49989 13.2496C3.30103 13.2496 3.11017 13.1713 2.96864 13.0316C2.89872 12.9619 2.84324 12.8791 2.80539 12.7879C2.76753 12.6968 2.74805 12.599 2.74805 12.5003C2.74805 12.4016 2.76753 12.3039 2.80539 12.2127C2.84324 12.1215 2.89872 12.0388 2.96864 11.9691L6.93739 8.00032L2.96864 4.03157C2.82774 3.89068 2.74859 3.69958 2.74859 3.50032C2.74859 3.40166 2.76802 3.30397 2.80578 3.21281C2.84353 3.12166 2.89887 3.03884 2.96864 2.96907C3.0384 2.89931 3.12123 2.84397 3.21238 2.80621C3.30353 2.76846 3.40123 2.74902 3.49989 2.74902C3.69915 2.74902 3.89024 2.82818 4.03114 2.96907L7.99989 6.93782L11.9686 2.96907C12.1095 2.82818 12.3006 2.74902 12.4999 2.74902C12.6991 2.74902 12.8902 2.82818 13.0311 2.96907C13.172 3.10997 13.2512 3.30107 13.2512 3.50032C13.2512 3.69958 13.172 3.89068 13.0311 4.03157L9.06239 8.00032L13.0311 11.9691Z" fill="#878787"/>
</svg>
