<svg width="24" height="24" viewBox="0 0 24 24" fill="none" xmlns="http://www.w3.org/2000/svg">
<path d="M10.0008 13.5998L15.9008 7.6998C16.0841 7.51647 16.3174 7.4248 16.6008 7.4248C16.8841 7.4248 17.1174 7.51647 17.3008 7.6998C17.4841 7.88314 17.5758 8.11647 17.5758 8.3998C17.5758 8.68314 17.4841 8.91647 17.3008 9.0998L10.7008 15.6998C10.5008 15.8998 10.2674 15.9998 10.0008 15.9998C9.73411 15.9998 9.50078 15.8998 9.30078 15.6998L6.70078 13.0998C6.51745 12.9165 6.42578 12.6831 6.42578 12.3998C6.42578 12.1165 6.51745 11.8831 6.70078 11.6998C6.88411 11.5165 7.11745 11.4248 7.40078 11.4248C7.68411 11.4248 7.91745 11.5165 8.10078 11.6998L10.0008 13.5998Z" fill="white"/>
</svg>
