<svg width="32" height="32" viewBox="0 0 32 32" fill="none" xmlns="http://www.w3.org/2000/svg">
<circle cx="16" cy="16" r="15.5" fill="white" fill-opacity="0.8" stroke="#E6E6E6"/>
<path d="M23.3337 14.667C23.3337 14.3134 23.1932 13.9742 22.9431 13.7242C22.6931 13.4741 22.3539 13.3337 22.0003 13.3337H17.787L18.427 10.287C18.4403 10.2203 18.447 10.147 18.447 10.0737C18.447 9.80033 18.3337 9.54699 18.1537 9.36699L17.447 8.66699L13.0603 13.0537C12.8137 13.3003 12.667 13.6337 12.667 14.0003V20.667C12.667 21.0206 12.8075 21.3598 13.0575 21.6098C13.3076 21.8598 13.6467 22.0003 14.0003 22.0003H20.0003C20.5537 22.0003 21.027 21.667 21.227 21.187L23.2403 16.487C23.3003 16.3337 23.3337 16.1737 23.3337 16.0003V14.667ZM8.66699 22.0003H11.3337V14.0003H8.66699V22.0003Z" fill="#BEBEBE"/>
</svg>
