<svg width="16" height="16" viewBox="0 0 16 16" fill="none" xmlns="http://www.w3.org/2000/svg">
<path d="M4.66667 10.6671C4.66667 11.0338 4.36667 11.3338 4 11.3338C3.63333 11.3338 3.33333 11.0338 3.33333 10.6671C3.33333 10.3004 3.63333 10.0004 4 10.0004C4.36667 10.0004 4.66667 10.3004 4.66667 10.6671ZM6 10.6671C5.63333 10.6671 5.33333 10.9671 5.33333 11.3338C5.33333 11.7004 5.63333 12.0004 6 12.0004C6.36667 12.0004 6.66667 11.7004 6.66667 11.3338C6.66667 10.9671 6.36667 10.6671 6 10.6671ZM2.66667 12.0004C2.3 12.0004 2 12.3004 2 12.6671C2 13.0338 2.3 13.3338 2.66667 13.3338C3.03333 13.3338 3.33333 13.0338 3.33333 12.6671C3.33333 12.3004 3.03333 12.0004 2.66667 12.0004ZM4.66667 12.6671C4.3 12.6671 4 12.9671 4 13.3338C4 13.7004 4.3 14.0004 4.66667 14.0004C5.03333 14.0004 5.33333 13.7004 5.33333 13.3338C5.33333 12.9671 5.03333 12.6671 4.66667 12.6671ZM10.22 1.81375L6.53333 6.43375L8.89333 8.79375L13.52 5.11375C14.12 4.60709 14.1667 3.69375 13.6067 3.13375L12.2 1.72709C11.64 1.16709 10.7267 1.21375 10.22 1.81375ZM5.59333 8.33375L7 9.73375C7.26667 10.0004 7.69333 10.0004 7.95333 9.73375L8.42 9.26709L6.06667 6.90709L5.59333 7.38042C5.46834 7.50759 5.3983 7.67877 5.3983 7.85709C5.3983 8.0354 5.46834 8.20658 5.59333 8.33375Z" fill="#878787"/>
</svg>
