<svg width="16" height="16" viewBox="0 0 16 16" fill="none" xmlns="http://www.w3.org/2000/svg">
<path fill-rule="evenodd" clip-rule="evenodd" d="M7.99967 1.33301C4.31767 1.33301 1.33301 4.31767 1.33301 7.99967C1.33301 11.6817 4.31767 14.6663 7.99967 14.6663C11.6817 14.6663 14.6663 11.6817 14.6663 7.99967C14.6663 4.31767 11.6817 1.33301 7.99967 1.33301ZM7.99967 10.6663C8.17649 10.6663 8.34606 10.5961 8.47108 10.4711C8.5961 10.3461 8.66634 10.1765 8.66634 9.99967V7.99967C8.66634 7.82286 8.5961 7.65329 8.47108 7.52827C8.34606 7.40325 8.17649 7.33301 7.99967 7.33301C7.82286 7.33301 7.65329 7.40325 7.52827 7.52827C7.40325 7.65329 7.33301 7.82286 7.33301 7.99967V9.99967C7.33301 10.1765 7.40325 10.3461 7.52827 10.4711C7.65329 10.5961 7.82286 10.6663 7.99967 10.6663ZM8.66634 5.99967C8.66634 6.17649 8.5961 6.34605 8.47108 6.47108C8.34606 6.5961 8.17649 6.66634 7.99967 6.66634C7.82286 6.66634 7.65329 6.5961 7.52827 6.47108C7.40325 6.34605 7.33301 6.17649 7.33301 5.99967C7.33301 5.82286 7.40325 5.65329 7.52827 5.52827C7.65329 5.40325 7.82286 5.33301 7.99967 5.33301C8.17649 5.33301 8.34606 5.40325 8.47108 5.52827C8.5961 5.65329 8.66634 5.82286 8.66634 5.99967Z" fill="#878787"/>
</svg>
