<svg width="28" height="50" viewBox="0 0 28 50" fill="none" xmlns="http://www.w3.org/2000/svg">
<path d="M15.1311 37.8867V36.7507H13.8404V37.8867H9.47022V38.8826H19.4433V37.8867H15.1311ZM15.1311 42.779C17.3017 42.692 18.5054 42.107 18.5054 41.058C18.5054 39.9123 17.06 39.3273 14.4785 39.3177C11.9115 39.3273 10.4516 39.9123 10.4564 41.058C10.4516 42.1119 11.6698 42.692 13.8404 42.7838V43.6105H8.90462V44.6402H20.0717V43.6105H15.1311V42.779ZM11.8438 41.058C11.8342 40.4924 12.7672 40.2169 14.4785 40.212C16.1995 40.2169 17.118 40.4924 17.1228 41.058C17.118 41.6091 16.1995 41.8992 14.4785 41.904C12.7672 41.8992 11.8342 41.6091 11.8438 41.058ZM18.7085 49.0055V45.4765H10.2437V49.0055H18.7085ZM17.4467 46.4627V48.0193H11.5248V46.4627H17.4467Z" fill="#BEBEBE"/>
<path d="M4.375 11.5938V24.5C4.375 24.7321 4.46719 24.9546 4.63128 25.1187C4.79538 25.2828 5.01794 25.375 5.25 25.375H10.5V17.9375C10.5 17.5894 10.6383 17.2556 10.8844 17.0094C11.1306 16.7633 11.4644 16.625 11.8125 16.625H16.1875C16.5356 16.625 16.8694 16.7633 17.1156 17.0094C17.3617 17.2556 17.5 17.5894 17.5 17.9375V25.375H22.75C22.9821 25.375 23.2046 25.2828 23.3687 25.1187C23.5328 24.9546 23.625 24.7321 23.625 24.5V11.5938" stroke="#BEBEBE" stroke-width="1.5" stroke-linecap="round" stroke-linejoin="round"/>
<path d="M26.25 14L14.5955 2.84377C14.3221 2.55502 13.6828 2.55174 13.4045 2.84377L1.75 14M21.875 9.78908V3.50002H19.25V7.27346" stroke="#BEBEBE" stroke-width="1.5" stroke-linecap="round" stroke-linejoin="round"/>
</svg>
