<svg width="28" height="28" viewBox="0 0 28 28" fill="none" xmlns="http://www.w3.org/2000/svg">
<path d="M4.375 11.5938V24.5C4.375 24.7321 4.46719 24.9546 4.63128 25.1187C4.79538 25.2828 5.01794 25.375 5.25 25.375H10.5V17.9375C10.5 17.5894 10.6383 17.2556 10.8844 17.0094C11.1306 16.7633 11.4644 16.625 11.8125 16.625H16.1875C16.5356 16.625 16.8694 16.7633 17.1156 17.0094C17.3617 17.2556 17.5 17.5894 17.5 17.9375V25.375H22.75C22.9821 25.375 23.2046 25.2828 23.3687 25.1187C23.5328 24.9546 23.625 24.7321 23.625 24.5V11.5938" stroke="#BEBEBE" stroke-linecap="round" stroke-linejoin="round"/>
<path d="M26.25 14L14.5955 2.84377C14.3221 2.55502 13.6828 2.55174 13.4045 2.84377L1.75 14M21.875 9.78908V3.50002H19.25V7.27346" stroke="#BEBEBE" stroke-linecap="round" stroke-linejoin="round"/>
</svg>
