<svg width="28" height="50" viewBox="0 0 28 50" fill="none" xmlns="http://www.w3.org/2000/svg">
<path d="M18.7041 45.4707H10.2412V49.0117H18.7041V45.4707ZM8.90137 44.6367H20.0713V43.6113H15.1357V42.7773C17.3096 42.6885 18.5059 42.1074 18.499 41.0547C18.5059 39.9131 17.0635 39.3252 14.4795 39.3184C11.9092 39.3252 10.4531 39.9131 10.46 41.0547C10.4531 42.1074 11.6699 42.6885 13.8369 42.7773V43.6113H8.90137V44.6367ZM9.47559 38.8809H19.4424V37.8828H15.1357V36.748H13.8369V37.8828H9.47559V38.8809ZM11.5264 48.0137V46.4688H17.4463V48.0137H11.5264ZM11.8408 41.0547C11.834 40.4941 12.7705 40.2207 14.4795 40.207C16.2021 40.2207 17.1182 40.4941 17.1182 41.0547C17.1182 41.6084 16.2021 41.9023 14.4795 41.9023C12.7705 41.9023 11.834 41.6084 11.8408 41.0547Z" fill="#FF9458"/>
<path d="M4.375 11.5938V24.5C4.375 24.7321 4.46719 24.9546 4.63128 25.1187C4.79538 25.2828 5.01794 25.375 5.25 25.375H10.5V17.9375C10.5 17.5894 10.6383 17.2556 10.8844 17.0094C11.1306 16.7633 11.4644 16.625 11.8125 16.625H16.1875C16.5356 16.625 16.8694 16.7633 17.1156 17.0094C17.3617 17.2556 17.5 17.5894 17.5 17.9375V25.375H22.75C22.9821 25.375 23.2046 25.2828 23.3687 25.1187C23.5328 24.9546 23.625 24.7321 23.625 24.5V11.5938" stroke="#FF9458" stroke-width="1.5" stroke-linecap="round" stroke-linejoin="round"/>
<path d="M26.25 14L14.5955 2.84377C14.3221 2.55502 13.6828 2.55174 13.4045 2.84377L1.75 14M21.875 9.78908V3.50002H19.25V7.27346" stroke="#FF9458" stroke-width="1.5" stroke-linecap="round" stroke-linejoin="round"/>
</svg>
