<svg width="26" height="48" viewBox="0 0 26 48" fill="none" xmlns="http://www.w3.org/2000/svg">
<path d="M1.96669 40.8854C3.94873 40.5711 5.68423 39.5801 6.43354 38.183C7.18285 39.5801 8.91835 40.5711 10.9246 40.8854L11.4032 39.8605C9.09238 39.5511 7.20219 38.183 7.17318 36.6747H10.9729V35.6402H1.88934V36.6747H5.70357C5.66006 38.183 3.76503 39.5511 1.47843 39.8605L1.96669 40.8854ZM0.854811 41.8135V42.8722H5.77125V47.1554H7.04749V42.8722H12.0219V41.8135H0.854811ZM22.5794 34.9102H21.279V42.2293H22.5794V39.0097H24.3536V37.9123H22.5794V34.9102ZM17.9144 35.674V37.4434H14.7044V35.674H13.4233V41.3591H19.2003V35.674H17.9144ZM14.7044 40.3246V38.4586H17.9144V40.3246H14.7044ZM18.6202 42.5435C16.0725 42.5435 14.511 43.3847 14.511 44.8398C14.511 46.3046 16.0725 47.1506 18.6202 47.1602C21.1485 47.1506 22.6906 46.3046 22.6906 44.8398C22.6906 43.3847 21.1485 42.5435 18.6202 42.5435ZM18.6202 46.1257C16.8508 46.1257 15.8018 45.6568 15.8115 44.8398C15.8018 44.0228 16.8508 43.5684 18.6202 43.5587C20.3847 43.5684 21.4192 44.0228 21.4192 44.8398C21.4192 45.6568 20.3847 46.1257 18.6202 46.1257Z" fill="#FF9458"/>
<g clip-path="url(#clip0_0_1)">
<path d="M19.1095 4.97702C18.5523 4.97702 18.0173 5.07245 17.5211 5.23946C16.7476 3.34403 14.8237 2 12.5672 2C10.3107 2 8.38955 3.34403 7.61334 5.23946C7.11435 5.07245 6.5821 4.97702 6.02489 4.97702C3.36084 4.97702 1.2041 7.03946 1.2041 9.58702C1.2041 12.1346 3.36084 14.197 6.02489 14.197V23.1413H19.1123V14.1944C21.7736 14.1944 23.9331 12.1319 23.9331 9.58437C23.9331 7.03681 21.7763 4.97437 19.1123 4.97437L19.1095 4.97702Z" stroke="#FF9458" stroke-width="1.5" stroke-linecap="round" stroke-linejoin="round"/>
<path d="M1.2041 9.58887C1.2041 12.1338 3.36084 14.1989 6.02489 14.1989C7.15039 14.1989 8.18441 13.8304 9.00497 13.2127" stroke="#FF9458" stroke-width="1.5" stroke-linecap="round" stroke-linejoin="round"/>
<path d="M15.4365 12.5706C16.3208 13.5647 17.6376 14.1956 19.1096 14.1956C21.7709 14.1956 23.9304 12.1332 23.9304 9.58559C23.9304 7.03802 21.7737 4.97559 19.1096 4.97559C17.7873 4.97559 16.5925 5.48457 15.7193 6.30636" stroke="#FF9458" stroke-width="1.5" stroke-linecap="round" stroke-linejoin="round"/>
<path d="M7.24512 7.08982C7.24512 4.27982 9.62918 2 12.5677 2" stroke="#FF9458" stroke-width="1.5" stroke-linecap="round" stroke-linejoin="round"/>
<path d="M9.00488 17.6836V23.1392" stroke="#FF9458" stroke-width="1.5" stroke-linecap="round" stroke-linejoin="round"/>
<path d="M13.8604 16.3398V23.1395" stroke="#FF9458" stroke-width="1.5" stroke-linecap="round" stroke-linejoin="round"/>
<path d="M19.1128 23.1387H6.02539V25.5722H19.1128V23.1387Z" stroke="#FF9458" stroke-width="1.5" stroke-linecap="round" stroke-linejoin="round"/>
</g>
<defs>
<clipPath id="clip0_0_1">
<rect width="25.1341" height="26.0007" fill="white"/>
</clipPath>
</defs>
</svg>
