<svg width="25" height="47" viewBox="0 0 25 47" fill="none" xmlns="http://www.w3.org/2000/svg">
<path d="M1.96669 39.8854C3.94873 39.5711 5.68423 38.5801 6.43354 37.183C7.18285 38.5801 8.91835 39.5711 10.9246 39.8854L11.4032 38.8605C9.09238 38.5511 7.20219 37.183 7.17318 35.6747H10.9729V34.6402H1.88934V35.6747H5.70357C5.66006 37.183 3.76503 38.5511 1.47843 38.8605L1.96669 39.8854ZM0.854811 40.8135V41.8722H5.77125V46.1554H7.04749V41.8722H12.0219V40.8135H0.854811ZM22.5794 33.9102H21.279V41.2293H22.5794V38.0097H24.3536V36.9123H22.5794V33.9102ZM17.9144 34.674V36.4434H14.7044V34.674H13.4233V40.3591H19.2003V34.674H17.9144ZM14.7044 39.3246V37.4586H17.9144V39.3246H14.7044ZM18.6202 41.5435C16.0725 41.5435 14.511 42.3847 14.511 43.8398C14.511 45.3046 16.0725 46.1506 18.6202 46.1602C21.1485 46.1506 22.6906 45.3046 22.6906 43.8398C22.6906 42.3847 21.1485 41.5435 18.6202 41.5435ZM18.6202 45.1257C16.8508 45.1257 15.8018 44.6568 15.8115 43.8398C15.8018 43.0228 16.8508 42.5684 18.6202 42.5587C20.3847 42.5684 21.4192 43.0228 21.4192 43.8398C21.4192 44.6568 20.3847 45.1257 18.6202 45.1257Z" fill="#BEBEBE"/>
<path d="M19.109 3.97702C18.5518 3.97702 18.0168 4.07245 17.5206 4.23946C16.7471 2.34403 14.8233 1 12.5667 1C10.3102 1 8.38906 2.34403 7.61286 4.23946C7.11387 4.07245 6.58161 3.97702 6.02441 3.97702C3.36036 3.97702 1.20361 6.03946 1.20361 8.58702C1.20361 11.1346 3.36036 13.197 6.02441 13.197V22.1413H19.1118V13.1944C21.7731 13.1944 23.9326 11.1319 23.9326 8.58437C23.9326 6.03681 21.7758 3.97437 19.1118 3.97437L19.109 3.97702Z" stroke="#BEBEBE" stroke-width="1.5" stroke-linecap="round" stroke-linejoin="round"/>
<path d="M1.20361 8.58887C1.20361 11.1338 3.36036 13.1989 6.02441 13.1989C7.1499 13.1989 8.18392 12.8304 9.00448 12.2127" stroke="#BEBEBE" stroke-width="1.5" stroke-linecap="round" stroke-linejoin="round"/>
<path d="M15.436 11.5706C16.3204 12.5647 17.6371 13.1956 19.1092 13.1956C21.7704 13.1956 23.9299 11.1332 23.9299 8.58559C23.9299 6.03802 21.7732 3.97559 19.1092 3.97559C17.7868 3.97559 16.592 4.48457 15.7188 5.30636" stroke="#BEBEBE" stroke-width="1.5" stroke-linecap="round" stroke-linejoin="round"/>
<path d="M7.24463 6.08982C7.24463 3.27982 9.62869 1 12.5672 1" stroke="#BEBEBE" stroke-width="1.5" stroke-linecap="round" stroke-linejoin="round"/>
<path d="M9.00391 16.6836V22.1392" stroke="#BEBEBE" stroke-width="1.5" stroke-linecap="round" stroke-linejoin="round"/>
<path d="M13.8599 15.3398V22.1395" stroke="#BEBEBE" stroke-width="1.5" stroke-linecap="round" stroke-linejoin="round"/>
<path d="M19.1118 22.1387H6.02441V24.5722H19.1118V22.1387Z" stroke="#BEBEBE" stroke-width="1.5" stroke-linecap="round" stroke-linejoin="round"/>
</svg>
