<svg width="34" height="48" viewBox="0 0 34 48" fill="none" xmlns="http://www.w3.org/2000/svg">
<path d="M13.7837 38.9807H11.0523V40.0345H13.7837V47.1844H15.0696V34.9102H13.7837V38.9807ZM9.27332 35.9302H7.9584V38.0283C7.94873 40.2956 6.68216 42.6595 4.78713 43.5684L5.60895 44.6126C7.01572 43.8826 8.08409 42.3936 8.62553 40.6291C9.16213 42.3066 10.216 43.6892 11.6131 44.3902L12.3962 43.346C10.5254 42.5048 9.26848 40.2714 9.27332 38.0283V35.9302ZM26.2894 39.7831H24.8246V35.1471H23.5967V46.5559H24.8246V40.8709H26.2894V47.1602H27.5318V34.9102H26.2894V39.7831ZM20.672 37.366H22.8087V36.3073H17.1188V37.366H19.4151V38.1492C19.4151 40.5856 18.5787 42.6982 16.7852 43.6989L17.5925 44.6899C18.8398 43.9503 19.6519 42.6644 20.0725 41.0546C20.5076 42.471 21.3101 43.6119 22.5186 44.2645L23.2825 43.2686C21.4986 42.3501 20.672 40.3536 20.672 38.1492V37.366Z" fill="#FF9458"/>
<path d="M0.37207 0.68457V22.3822L16.9998 25.2037V3.50612" stroke="#FF9458" stroke-width="1.5" stroke-linecap="round" stroke-linejoin="round"/>
<path d="M16.9998 3.50612C14.3918 2.16052 11.5859 1.23946 8.68781 0.777628C3.66263 -0.0747912 0.37207 0.684569 0.37207 0.684569" stroke="#FF9458" stroke-width="1.5" stroke-linecap="round" stroke-linejoin="round"/>
<path d="M14.1447 6.48437C12.428 5.59776 10.5808 4.99083 8.67285 4.68647C5.36368 4.12812 3.19727 4.62692 3.19727 4.62692" stroke="#FF9458" stroke-width="1.5" stroke-linecap="round" stroke-linejoin="round"/>
<path d="M14.1454 9.30584C12.4288 8.41923 10.5816 7.8123 8.67359 7.50794C5.3793 6.93842 3.21289 7.44466 3.21289 7.44466" stroke="#FF9458" stroke-width="1.5" stroke-linecap="round" stroke-linejoin="round"/>
<path d="M14.1447 12.1091C12.428 11.2225 10.5808 10.6155 8.67285 10.3112C5.36368 9.74909 3.19727 10.2516 3.19727 10.2516" stroke="#FF9458" stroke-width="1.5" stroke-linecap="round" stroke-linejoin="round"/>
<path d="M14.1447 14.9196C12.428 14.033 10.5808 13.4261 8.67285 13.1217C5.36368 12.5596 3.19727 13.0622 3.19727 13.0622" stroke="#FF9458" stroke-width="1.5" stroke-linecap="round" stroke-linejoin="round"/>
<path d="M14.1447 17.7292C12.428 16.8426 10.5808 16.2356 8.67285 15.9313C5.36368 15.3692 3.19727 15.8717 3.19727 15.8717" stroke="#FF9458" stroke-width="1.5" stroke-linecap="round" stroke-linejoin="round"/>
<path d="M14.1447 20.5438C12.4289 19.6552 10.5813 19.0482 8.67285 18.7459C5.36368 18.1838 3.19727 18.6826 3.19727 18.6826" stroke="#FF9458" stroke-width="1.5" stroke-linecap="round" stroke-linejoin="round"/>
<path d="M16.9998 25.2031C14.3918 23.8575 11.5859 22.9364 8.68781 22.4746C3.66263 21.6184 0.37207 22.3815 0.37207 22.3815" stroke="#FF9458" stroke-width="1.5" stroke-linecap="round" stroke-linejoin="round"/>
<path d="M33.6278 0.68457V22.3822L17 25.2037V3.50612" stroke="#FF9458" stroke-width="1.5" stroke-linecap="round" stroke-linejoin="round"/>
<path d="M17 3.50612C19.608 2.16052 22.4139 1.23946 25.312 0.777628C30.3372 -0.0747912 33.6278 0.684569 33.6278 0.684569" stroke="#FF9458" stroke-width="1.5" stroke-linecap="round" stroke-linejoin="round"/>
<path d="M19.8369 6.48437C21.5551 5.59821 23.4034 4.99131 25.3125 4.68647C28.6217 4.12812 30.7881 4.62692 30.7881 4.62692" stroke="#FF9458" stroke-width="1.5" stroke-linecap="round" stroke-linejoin="round"/>
<path d="M19.8369 9.30487C21.5547 8.41613 23.403 7.80672 25.3125 7.49953C28.6217 6.93746 30.7881 7.4437 30.7881 7.4437" stroke="#FF9458" stroke-width="1.5" stroke-linecap="round" stroke-linejoin="round"/>
<path d="M19.8369 12.1091C21.5551 11.2229 23.4034 10.616 25.3125 10.3112C28.6217 9.74909 30.7881 10.2516 30.7881 10.2516" stroke="#FF9458" stroke-width="1.5" stroke-linecap="round" stroke-linejoin="round"/>
<path d="M19.8369 14.9196C21.5551 14.0335 23.4034 13.4266 25.3125 13.1217C28.6217 12.5596 30.7881 13.0622 30.7881 13.0622" stroke="#FF9458" stroke-width="1.5" stroke-linecap="round" stroke-linejoin="round"/>
<path d="M19.8369 17.7292C21.5551 16.843 23.4034 16.2361 25.3125 15.9313C28.6217 15.3692 30.7881 15.8717 30.7881 15.8717" stroke="#FF9458" stroke-width="1.5" stroke-linecap="round" stroke-linejoin="round"/>
<path d="M19.8369 20.5438C21.5543 19.6556 23.4029 19.0486 25.3125 18.7459C28.6217 18.1838 30.7881 18.6826 30.7881 18.6826" stroke="#FF9458" stroke-width="1.5" stroke-linecap="round" stroke-linejoin="round"/>
<path d="M17 25.2031C19.608 23.8575 22.4139 22.9364 25.312 22.4746C30.3372 21.6184 33.6278 22.3815 33.6278 22.3815" stroke="#FF9458" stroke-width="1.5" stroke-linecap="round" stroke-linejoin="round"/>
</svg>
