<svg width="34" height="51" viewBox="0 0 34 51" fill="none" xmlns="http://www.w3.org/2000/svg">
<path d="M9.26758 41.0293C9.26758 41.7721 9.39746 42.5013 9.65723 43.2168C9.92155 43.9277 10.2907 44.5589 10.7646 45.1104C11.2386 45.6618 11.7832 46.0742 12.3984 46.3477L11.6055 47.3867C10.9219 47.0404 10.3226 46.5413 9.80762 45.8896C9.29264 45.2334 8.89844 44.4814 8.625 43.6338C8.35156 44.5316 7.9528 45.3314 7.42871 46.0332C6.90918 46.7305 6.30078 47.2591 5.60352 47.6191L4.7832 46.5664C5.40299 46.2702 5.95215 45.8327 6.43066 45.2539C6.91374 44.6706 7.28743 44.0098 7.55176 43.2715C7.82064 42.5286 7.95508 41.7812 7.95508 41.0293V38.9375H9.26758V41.0293ZM11.0449 41.9863H13.7793V37.9121H15.0645V50.1895H13.7793V43.0391H11.0449V41.9863ZM27.5332 50.1621H26.2891V43.873H24.8262V49.5605H23.5957V38.1445H24.8262V42.7793H26.2891V37.9121H27.5332V50.1621ZM16.7871 46.7031C17.6576 46.2155 18.3115 45.484 18.749 44.5088C19.1911 43.5335 19.4121 42.4147 19.4121 41.1523V40.3594H17.1152V39.3066H22.8027V40.3594H20.6699V41.1523C20.6699 41.9043 20.7656 42.613 20.957 43.2783C21.1484 43.9391 21.4378 44.5293 21.8252 45.0488C22.2171 45.5638 22.7025 45.9694 23.2812 46.2656L22.5156 47.2637C21.9277 46.9447 21.4287 46.5117 21.0186 45.9648C20.6084 45.4134 20.2917 44.7777 20.0684 44.0576C19.8542 44.8825 19.5397 45.6048 19.125 46.2246C18.7148 46.8398 18.2044 47.3275 17.5938 47.6875L16.7871 46.7031Z" fill="#FF9458"/>
<path fill-rule="evenodd" clip-rule="evenodd" d="M4.95233 21.8105H30.9999C31.5522 21.8105 31.9999 22.2583 31.9999 22.8105V30.7152C31.9999 31.2675 31.5522 31.7152 30.9999 31.7152H4.95233H4.57911C4.57498 31.7152 4.57163 31.7119 4.57163 31.7077C4.57163 31.7038 4.56858 31.7006 4.56468 31.7003C2.01077 31.5025 0 29.3675 0 26.7629C0 24.1582 2.01077 22.0232 4.56468 21.8255C4.56858 21.8252 4.57163 21.8219 4.57163 21.818C4.57163 21.8139 4.57498 21.8105 4.57911 21.8105H4.95233Z" fill="#FFE094"/>
<path fill-rule="evenodd" clip-rule="evenodd" d="M4.95233 11.9053H30.9999C31.5522 11.9053 31.9999 12.353 31.9999 12.9053V20.8099C31.9999 21.3622 31.5522 21.8099 30.9999 21.8099H4.95233H4.57911C4.57498 21.8099 4.57163 21.8066 4.57163 21.8025C4.57163 21.7985 4.56858 21.7953 4.56468 21.795C2.01077 21.5973 0 19.4623 0 16.8576C0 14.253 2.01077 12.118 4.56468 11.9202C4.56858 11.9199 4.57163 11.9167 4.57163 11.9128C4.57163 11.9086 4.57498 11.9053 4.57911 11.9053H4.95233Z" fill="#FF9458"/>
<path fill-rule="evenodd" clip-rule="evenodd" d="M4.95233 2H30.9999C31.5522 2 31.9999 2.44772 31.9999 3V10.9047C31.9999 11.457 31.5522 11.9047 30.9999 11.9047H4.95233H4.57911C4.57498 11.9047 4.57163 11.9013 4.57163 11.8972C4.57163 11.8933 4.56858 11.89 4.56468 11.8897C2.01077 11.692 0 9.55698 0 6.95233C0 4.34769 2.01077 2.21269 4.56468 2.01495C4.56858 2.01465 4.57163 2.01139 4.57163 2.00748C4.57163 2.00335 4.57498 2 4.57911 2H4.95233Z" fill="#DAEABC"/>
<path fill-rule="evenodd" clip-rule="evenodd" d="M18.6672 21.8105H31.0002C31.5525 21.8105 32.0002 22.2583 32.0002 22.8105V30.7152C32.0002 31.2675 31.5525 31.7152 31.0002 31.7152H18.6672H18.2935C18.2894 31.7152 18.286 31.7119 18.286 31.7077C18.286 31.7038 18.283 31.7005 18.2791 31.7002C15.7254 31.5023 13.7148 29.3674 13.7148 26.7629C13.7148 24.1584 15.7254 22.0235 18.2791 21.8255C18.283 21.8252 18.286 21.822 18.286 21.818C18.286 21.8139 18.2894 21.8105 18.2935 21.8105H18.6672Z" fill="#FFCE54"/>
<path fill-rule="evenodd" clip-rule="evenodd" d="M18.6672 11.9053H31.0006C31.5529 11.9053 32.0006 12.353 32.0006 12.9053V20.8099C32.0006 21.3622 31.5529 21.8099 31.0006 21.8099H18.6672H18.294C18.2898 21.8099 18.2865 21.8066 18.2865 21.8025C18.2865 21.7985 18.2834 21.7953 18.2795 21.795C15.7256 21.5973 13.7148 19.4623 13.7148 16.8576C13.7148 14.253 15.7256 12.118 18.2795 11.9202C18.2834 11.9199 18.2865 11.9167 18.2865 11.9128C18.2865 11.9086 18.2898 11.9053 18.294 11.9053H18.6672Z" fill="#FF6F1F"/>
<path fill-rule="evenodd" clip-rule="evenodd" d="M18.6672 2H30.9998C31.5521 2 31.9998 2.44772 31.9998 3V10.9047C31.9998 11.457 31.5521 11.9047 30.9998 11.9047H18.6672H18.2932C18.289 11.9047 18.2856 11.9013 18.2856 11.8972C18.2856 11.8932 18.2826 11.89 18.2787 11.8897C15.7252 11.6915 13.7148 9.55669 13.7148 6.95233C13.7148 4.34798 15.7252 2.21317 18.2787 2.01501C18.2826 2.01471 18.2856 2.01144 18.2856 2.00751C18.2856 2.00336 18.289 2 18.2932 2H18.6672Z" fill="#B8CD90"/>
<path fill-rule="evenodd" clip-rule="evenodd" d="M19.8099 23.347V23.333H32.0003V30.1901H19.8099V30.1761C19.6844 30.1854 19.5572 30.1901 19.4287 30.1901C17.1144 30.1901 15.2383 28.6551 15.2383 26.7615C15.2383 24.868 17.1144 23.333 19.4287 23.333C19.5572 23.333 19.6844 23.3377 19.8099 23.347Z" fill="#F4F4F4"/>
<path fill-rule="evenodd" clip-rule="evenodd" d="M19.8099 13.4422V13.4282H32.0003V20.2853H19.8099V20.2713C19.6844 20.2806 19.5572 20.2853 19.4287 20.2853C17.1144 20.2853 15.2383 18.7503 15.2383 16.8568C15.2383 14.9632 17.1144 13.4282 19.4287 13.4282C19.5572 13.4282 19.6844 13.433 19.8099 13.4422Z" fill="#F4F4F4"/>
<path fill-rule="evenodd" clip-rule="evenodd" d="M32.0003 3.52441H19.8099V3.5385C19.6844 3.52923 19.5572 3.5245 19.4287 3.5245C17.1144 3.5245 15.2383 5.05951 15.2383 6.95304C15.2383 8.84657 17.1144 10.3816 19.4287 10.3816C19.5572 10.3816 19.6844 10.3768 19.8099 10.3676V10.3815H32.0003V3.52441Z" fill="#F4F4F4"/>
</svg>
