<svg width="34" height="51" viewBox="0 0 34 51" fill="none" xmlns="http://www.w3.org/2000/svg">
<path d="M13.7837 41.9807H11.0523V43.0345H13.7837V50.1844H15.0696V37.9102H13.7837V41.9807ZM9.27332 38.9302H7.9584V41.0283C7.94873 43.2956 6.68216 45.6595 4.78713 46.5684L5.60895 47.6126C7.01572 46.8826 8.08409 45.3936 8.62553 43.6291C9.16213 45.3066 10.216 46.6892 11.6131 47.3902L12.3962 46.346C10.5254 45.5048 9.26848 43.2714 9.27332 41.0283V38.9302ZM26.2894 42.7831H24.8246V38.1471H23.5967V49.5559H24.8246V43.8709H26.2894V50.1602H27.5318V37.9102H26.2894V42.7831ZM20.672 40.366H22.8087V39.3073H17.1188V40.366H19.4151V41.1492C19.4151 43.5856 18.5787 45.6982 16.7852 46.6989L17.5925 47.6899C18.8398 46.9503 19.6519 45.6644 20.0725 44.0546C20.5076 45.471 21.3101 46.6119 22.5186 47.2645L23.2825 46.2686C21.4986 45.3501 20.672 43.3536 20.672 41.1492V40.366Z" fill="#BEBEBE"/>
<path fill-rule="evenodd" clip-rule="evenodd" d="M4.95233 21.8105H30.9999C31.5522 21.8105 31.9999 22.2583 31.9999 22.8105V30.7152C31.9999 31.2675 31.5522 31.7152 30.9999 31.7152H4.95233H4.57911C4.57498 31.7152 4.57163 31.7119 4.57163 31.7077C4.57163 31.7038 4.56858 31.7006 4.56468 31.7003C2.01077 31.5025 0 29.3675 0 26.7629C0 24.1582 2.01077 22.0232 4.56468 21.8255C4.56858 21.8252 4.57163 21.8219 4.57163 21.818C4.57163 21.8139 4.57498 21.8105 4.57911 21.8105H4.95233Z" fill="#E8E8E8"/>
<path fill-rule="evenodd" clip-rule="evenodd" d="M4.95233 11.9053H30.9999C31.5522 11.9053 31.9999 12.353 31.9999 12.9053V20.8099C31.9999 21.3622 31.5522 21.8099 30.9999 21.8099H4.95233H4.57911C4.57498 21.8099 4.57163 21.8066 4.57163 21.8025C4.57163 21.7985 4.56858 21.7953 4.56468 21.795C2.01077 21.5973 0 19.4623 0 16.8576C0 14.253 2.01077 12.118 4.56468 11.9202C4.56858 11.9199 4.57163 11.9167 4.57163 11.9128C4.57163 11.9086 4.57498 11.9053 4.57911 11.9053H4.95233Z" fill="#BBBBBB"/>
<path fill-rule="evenodd" clip-rule="evenodd" d="M4.95233 2H30.9999C31.5522 2 31.9999 2.44772 31.9999 3V10.9047C31.9999 11.457 31.5522 11.9047 30.9999 11.9047H4.95233H4.57911C4.57498 11.9047 4.57163 11.9013 4.57163 11.8972C4.57163 11.8933 4.56858 11.89 4.56468 11.8897C2.01077 11.692 0 9.55698 0 6.95233C0 4.34769 2.01077 2.21269 4.56468 2.01495C4.56858 2.01465 4.57163 2.01139 4.57163 2.00748C4.57163 2.00335 4.57498 2 4.57911 2H4.95233Z" fill="#D9D9D9"/>
<path fill-rule="evenodd" clip-rule="evenodd" d="M18.6672 21.8105H31.0002C31.5525 21.8105 32.0002 22.2583 32.0002 22.8105V30.7152C32.0002 31.2675 31.5525 31.7152 31.0002 31.7152H18.6672H18.2935C18.2894 31.7152 18.286 31.7119 18.286 31.7077C18.286 31.7038 18.283 31.7005 18.2791 31.7002C15.7254 31.5023 13.7148 29.3674 13.7148 26.7629C13.7148 24.1584 15.7254 22.0235 18.2791 21.8255C18.283 21.8252 18.286 21.822 18.286 21.818C18.286 21.8139 18.2894 21.8105 18.2935 21.8105H18.6672Z" fill="#DCDBDB"/>
<path fill-rule="evenodd" clip-rule="evenodd" d="M18.6672 11.9053H31.0006C31.5529 11.9053 32.0006 12.353 32.0006 12.9053V20.8099C32.0006 21.3622 31.5529 21.8099 31.0006 21.8099H18.6672H18.294C18.2898 21.8099 18.2865 21.8066 18.2865 21.8025C18.2865 21.7985 18.2834 21.7953 18.2795 21.795C15.7256 21.5973 13.7148 19.4623 13.7148 16.8576C13.7148 14.253 15.7256 12.118 18.2795 11.9202C18.2834 11.9199 18.2865 11.9167 18.2865 11.9128C18.2865 11.9086 18.2898 11.9053 18.294 11.9053H18.6672Z" fill="#9A9A9A"/>
<path fill-rule="evenodd" clip-rule="evenodd" d="M18.6672 2H30.9998C31.5521 2 31.9998 2.44772 31.9998 3V10.9047C31.9998 11.457 31.5521 11.9047 30.9998 11.9047H18.6672H18.2932C18.289 11.9047 18.2856 11.9013 18.2856 11.8972C18.2856 11.8932 18.2826 11.89 18.2787 11.8897C15.7252 11.6915 13.7148 9.55669 13.7148 6.95233C13.7148 4.34798 15.7252 2.21317 18.2787 2.01501C18.2826 2.01471 18.2856 2.01144 18.2856 2.00751C18.2856 2.00336 18.289 2 18.2932 2H18.6672Z" fill="#BABABA"/>
<path fill-rule="evenodd" clip-rule="evenodd" d="M19.8099 23.347V23.333H32.0003V30.1901H19.8099V30.1761C19.6844 30.1854 19.5572 30.1901 19.4287 30.1901C17.1144 30.1901 15.2383 28.6551 15.2383 26.7615C15.2383 24.868 17.1144 23.333 19.4287 23.333C19.5572 23.333 19.6844 23.3377 19.8099 23.347Z" fill="#F4F4F4"/>
<path fill-rule="evenodd" clip-rule="evenodd" d="M19.8099 13.4422V13.4282H32.0003V20.2853H19.8099V20.2713C19.6844 20.2806 19.5572 20.2853 19.4287 20.2853C17.1144 20.2853 15.2383 18.7503 15.2383 16.8568C15.2383 14.9632 17.1144 13.4282 19.4287 13.4282C19.5572 13.4282 19.6844 13.433 19.8099 13.4422Z" fill="#F4F4F4"/>
<path fill-rule="evenodd" clip-rule="evenodd" d="M32.0003 3.52441H19.8099V3.5385C19.6844 3.52923 19.5572 3.5245 19.4287 3.5245C17.1144 3.5245 15.2383 5.05951 15.2383 6.95304C15.2383 8.84657 17.1144 10.3816 19.4287 10.3816C19.5572 10.3816 19.6844 10.3768 19.8099 10.3676V10.3815H32.0003V3.52441Z" fill="#F4F4F4"/>
</svg>
