<svg width="34" height="48" viewBox="0 0 34 48" fill="none" xmlns="http://www.w3.org/2000/svg">
<path d="M9.26758 38.0293V35.9375H7.95508V38.0293C7.94824 40.2988 6.68359 42.6572 4.7832 43.5664L5.60352 44.6191C7.01855 43.8877 8.08496 42.3975 8.625 40.6338C9.16504 42.3086 10.2178 43.6895 11.6055 44.3867L12.3984 43.3477C10.5254 42.5068 9.26758 40.2715 9.26758 38.0293ZM11.0449 40.0391H13.7793V47.1895H15.0645V34.9121H13.7793V38.9863H11.0449V40.0391ZM27.5332 34.9121H26.2891V39.7793H24.8262V35.1445H23.5957V46.5605H24.8262V40.873H26.2891V47.1621H27.5332V34.9121ZM16.7871 43.7031L17.5938 44.6875C18.8447 43.9492 19.6514 42.6641 20.0684 41.0576C20.5059 42.4658 21.3125 43.6074 22.5156 44.2637L23.2812 43.2656C21.4971 42.3496 20.6699 40.3535 20.6699 38.1523V37.3594H22.8027V36.3066H17.1152V37.3594H19.4121V38.1523C19.4121 40.5859 18.5781 42.6982 16.7871 43.7031Z" fill="#BEBEBE"/>
<g clip-path="url(#clip0_0_1)">
<path d="M0.37207 0.68457V22.3822L16.9998 25.2037V3.50612" stroke="#BEBEBE" stroke-width="1.5" stroke-linecap="round" stroke-linejoin="round"/>
<path d="M16.9998 3.50612C14.3918 2.16052 11.5859 1.23946 8.68781 0.777628C3.66263 -0.0747912 0.37207 0.684569 0.37207 0.684569" stroke="#BEBEBE" stroke-width="1.5" stroke-linecap="round" stroke-linejoin="round"/>
<path d="M14.1447 6.48437C12.428 5.59776 10.5808 4.99083 8.67285 4.68647C5.36368 4.12812 3.19727 4.62692 3.19727 4.62692" stroke="#BEBEBE" stroke-width="1.5" stroke-linecap="round" stroke-linejoin="round"/>
<path d="M14.1454 9.30584C12.4288 8.41923 10.5816 7.8123 8.67359 7.50794C5.3793 6.93842 3.21289 7.44466 3.21289 7.44466" stroke="#BEBEBE" stroke-width="1.5" stroke-linecap="round" stroke-linejoin="round"/>
<path d="M14.1447 12.1091C12.428 11.2225 10.5808 10.6155 8.67285 10.3112C5.36368 9.74909 3.19727 10.2516 3.19727 10.2516" stroke="#BEBEBE" stroke-width="1.5" stroke-linecap="round" stroke-linejoin="round"/>
<path d="M14.1447 14.9196C12.428 14.033 10.5808 13.4261 8.67285 13.1217C5.36368 12.5596 3.19727 13.0622 3.19727 13.0622" stroke="#BEBEBE" stroke-width="1.5" stroke-linecap="round" stroke-linejoin="round"/>
<path d="M14.1447 17.7292C12.428 16.8426 10.5808 16.2356 8.67285 15.9313C5.36368 15.3692 3.19727 15.8717 3.19727 15.8717" stroke="#BEBEBE" stroke-width="1.5" stroke-linecap="round" stroke-linejoin="round"/>
<path d="M14.1447 20.5438C12.4289 19.6552 10.5813 19.0482 8.67285 18.7459C5.36368 18.1838 3.19727 18.6826 3.19727 18.6826" stroke="#BEBEBE" stroke-width="1.5" stroke-linecap="round" stroke-linejoin="round"/>
<path d="M16.9998 25.2031C14.3918 23.8575 11.5859 22.9364 8.68781 22.4746C3.66263 21.6184 0.37207 22.3815 0.37207 22.3815" stroke="#BEBEBE" stroke-width="1.5" stroke-linecap="round" stroke-linejoin="round"/>
<path d="M33.6278 0.68457V22.3822L17 25.2037V3.50612" stroke="#BEBEBE" stroke-width="1.5" stroke-linecap="round" stroke-linejoin="round"/>
<path d="M17 3.50612C19.608 2.16052 22.4139 1.23946 25.312 0.777628C30.3372 -0.0747912 33.6278 0.684569 33.6278 0.684569" stroke="#BEBEBE" stroke-width="1.5" stroke-linecap="round" stroke-linejoin="round"/>
<path d="M19.8369 6.48437C21.5551 5.59821 23.4034 4.99131 25.3125 4.68647C28.6217 4.12812 30.7881 4.62692 30.7881 4.62692" stroke="#BEBEBE" stroke-width="1.5" stroke-linecap="round" stroke-linejoin="round"/>
<path d="M19.8369 9.30487C21.5547 8.41613 23.403 7.80672 25.3125 7.49953C28.6217 6.93746 30.7881 7.4437 30.7881 7.4437" stroke="#BEBEBE" stroke-width="1.5" stroke-linecap="round" stroke-linejoin="round"/>
<path d="M19.8369 12.1091C21.5551 11.2229 23.4034 10.616 25.3125 10.3112C28.6217 9.74909 30.7881 10.2516 30.7881 10.2516" stroke="#BEBEBE" stroke-width="1.5" stroke-linecap="round" stroke-linejoin="round"/>
<path d="M19.8369 14.9196C21.5551 14.0335 23.4034 13.4266 25.3125 13.1217C28.6217 12.5596 30.7881 13.0622 30.7881 13.0622" stroke="#BEBEBE" stroke-width="1.5" stroke-linecap="round" stroke-linejoin="round"/>
<path d="M19.8369 17.7292C21.5551 16.843 23.4034 16.2361 25.3125 15.9313C28.6217 15.3692 30.7881 15.8717 30.7881 15.8717" stroke="#BEBEBE" stroke-width="1.5" stroke-linecap="round" stroke-linejoin="round"/>
<path d="M19.8369 20.5438C21.5543 19.6556 23.4029 19.0486 25.3125 18.7459C28.6217 18.1838 30.7881 18.6826 30.7881 18.6826" stroke="#BEBEBE" stroke-width="1.5" stroke-linecap="round" stroke-linejoin="round"/>
<path d="M17 25.2031C19.608 23.8575 22.4139 22.9364 25.312 22.4746C30.3372 21.6184 33.6278 22.3815 33.6278 22.3815" stroke="#BEBEBE" stroke-width="1.5" stroke-linecap="round" stroke-linejoin="round"/>
</g>
<defs>
<clipPath id="clip0_0_1">
<rect width="34" height="25.5763" fill="white"/>
</clipPath>
</defs>
</svg>
