<svg width="34" height="26" viewBox="0 0 34 26" fill="none" xmlns="http://www.w3.org/2000/svg">
<path d="M0.37207 0.68457V22.3822L16.9998 25.2037V3.50612" stroke="#FF9458" stroke-width="0.744471" stroke-linecap="round" stroke-linejoin="round"/>
<path d="M16.9998 3.50612C14.3918 2.16052 11.5859 1.23946 8.68781 0.777628C3.66263 -0.0747912 0.37207 0.684569 0.37207 0.684569" stroke="#FF9458" stroke-width="0.744471" stroke-linecap="round" stroke-linejoin="round"/>
<path d="M14.1447 6.48437C12.428 5.59776 10.5808 4.99083 8.67285 4.68647C5.36368 4.12812 3.19727 4.62692 3.19727 4.62692" stroke="#FF9458" stroke-width="0.744471" stroke-linecap="round" stroke-linejoin="round"/>
<path d="M14.1454 9.30584C12.4288 8.41923 10.5816 7.8123 8.67359 7.50794C5.3793 6.93842 3.21289 7.44466 3.21289 7.44466" stroke="#FF9458" stroke-width="0.744471" stroke-linecap="round" stroke-linejoin="round"/>
<path d="M14.1447 12.1091C12.428 11.2225 10.5808 10.6155 8.67285 10.3112C5.36368 9.74909 3.19727 10.2516 3.19727 10.2516" stroke="#FF9458" stroke-width="0.744471" stroke-linecap="round" stroke-linejoin="round"/>
<path d="M14.1447 14.9196C12.428 14.033 10.5808 13.4261 8.67285 13.1217C5.36368 12.5596 3.19727 13.0622 3.19727 13.0622" stroke="#FF9458" stroke-width="0.744471" stroke-linecap="round" stroke-linejoin="round"/>
<path d="M14.1447 17.7292C12.428 16.8426 10.5808 16.2356 8.67285 15.9313C5.36368 15.3692 3.19727 15.8717 3.19727 15.8717" stroke="#FF9458" stroke-width="0.744471" stroke-linecap="round" stroke-linejoin="round"/>
<path d="M14.1447 20.5438C12.4289 19.6552 10.5813 19.0482 8.67285 18.7459C5.36368 18.1838 3.19727 18.6826 3.19727 18.6826" stroke="#FF9458" stroke-width="0.744471" stroke-linecap="round" stroke-linejoin="round"/>
<path d="M16.9998 25.2031C14.3918 23.8575 11.5859 22.9364 8.68781 22.4746C3.66263 21.6184 0.37207 22.3815 0.37207 22.3815" stroke="#FF9458" stroke-width="0.744471" stroke-linecap="round" stroke-linejoin="round"/>
<path d="M33.6278 0.68457V22.3822L17 25.2037V3.50612" stroke="#FF9458" stroke-width="0.744471" stroke-linecap="round" stroke-linejoin="round"/>
<path d="M17 3.50612C19.608 2.16052 22.4139 1.23946 25.312 0.777628C30.3372 -0.0747912 33.6278 0.684569 33.6278 0.684569" stroke="#FF9458" stroke-width="0.744471" stroke-linecap="round" stroke-linejoin="round"/>
<path d="M19.8364 6.48437C21.5546 5.59821 23.403 4.99131 25.312 4.68647C28.6212 4.12812 30.7876 4.62692 30.7876 4.62692" stroke="#FF9458" stroke-width="0.744471" stroke-linecap="round" stroke-linejoin="round"/>
<path d="M19.8364 9.30487C21.5542 8.41613 23.4025 7.80672 25.312 7.49953C28.6212 6.93746 30.7876 7.4437 30.7876 7.4437" stroke="#FF9458" stroke-width="0.744471" stroke-linecap="round" stroke-linejoin="round"/>
<path d="M19.8364 12.1091C21.5546 11.2229 23.403 10.616 25.312 10.3112C28.6212 9.74909 30.7876 10.2516 30.7876 10.2516" stroke="#FF9458" stroke-width="0.744471" stroke-linecap="round" stroke-linejoin="round"/>
<path d="M19.8364 14.9196C21.5546 14.0335 23.403 13.4266 25.312 13.1217C28.6212 12.5596 30.7876 13.0622 30.7876 13.0622" stroke="#FF9458" stroke-width="0.744471" stroke-linecap="round" stroke-linejoin="round"/>
<path d="M19.8364 17.7292C21.5546 16.843 23.403 16.2361 25.312 15.9313C28.6212 15.3692 30.7876 15.8717 30.7876 15.8717" stroke="#FF9458" stroke-width="0.744471" stroke-linecap="round" stroke-linejoin="round"/>
<path d="M19.8364 20.5438C21.5538 19.6556 23.4024 19.0486 25.312 18.7459C28.6212 18.1838 30.7876 18.6826 30.7876 18.6826" stroke="#FF9458" stroke-width="0.744471" stroke-linecap="round" stroke-linejoin="round"/>
<path d="M17 25.2031C19.608 23.8575 22.4139 22.9364 25.312 22.4746C30.3372 21.6184 33.6278 22.3815 33.6278 22.3815" stroke="#FF9458" stroke-width="0.744471" stroke-linecap="round" stroke-linejoin="round"/>
</svg>
