<svg width="32" height="32" viewBox="0 0 32 32" fill="none" xmlns="http://www.w3.org/2000/svg">
<path d="M18.3908 22.4566C18.2197 22.4568 18.0503 22.4232 17.8923 22.3577C17.7343 22.2922 17.5908 22.1961 17.47 22.075L11.945 16.5494C11.8241 16.4285 11.7281 16.285 11.6626 16.127C11.5972 15.969 11.5635 15.7996 11.5635 15.6286C11.5635 15.4576 11.5972 15.2882 11.6626 15.1302C11.7281 14.9722 11.8241 14.8287 11.945 14.7078L17.47 9.1822C17.7142 8.93798 18.0454 8.80078 18.3908 8.80078C18.7362 8.80078 19.0674 8.93798 19.3116 9.1822C19.5558 9.42642 19.693 9.75765 19.693 10.103C19.693 10.4484 19.5558 10.7796 19.3116 11.0239L14.7075 15.6286L19.3117 20.2334C19.4937 20.4155 19.6177 20.6476 19.668 20.9002C19.7182 21.1528 19.6924 21.4146 19.5939 21.6525C19.4953 21.8905 19.3284 22.0939 19.1143 22.237C18.9002 22.3801 18.6484 22.4565 18.3909 22.4566L18.3908 22.4566Z" fill="#878787"/>
</svg>
