<svg width="126" height="32" viewBox="0 0 126 32" fill="none" xmlns="http://www.w3.org/2000/svg">
<g clip-path="url(#clip0_1562_4955)">
<path d="M41.4774 21.4756C41.2463 22.4943 40.803 23.3526 40.1393 24.0424C39.121 25.0986 37.8823 25.6253 36.4206 25.6253C34.959 25.6253 33.7203 25.0906 32.702 24.021C32.0464 23.3312 31.603 22.4809 31.372 21.4756H23.7842C23.9588 23.2002 24.3941 24.7617 25.0927 26.1601C26.0224 28.0291 27.2933 29.4702 28.8973 30.4809C30.5014 31.4943 32.2775 31.9996 34.2281 31.9996C35.9182 31.9996 37.4014 31.6574 38.6776 30.9729C39.9512 30.2884 40.9481 29.39 41.6655 28.2777V31.6574H49.0168V21.4756H41.4774Z" fill="#323232"/>
<path d="M31.5034 17.4116C31.7559 16.6202 32.1509 15.941 32.7017 15.3795C33.72 14.3394 34.9587 13.818 36.4204 13.818C37.882 13.818 39.1207 14.3475 40.139 15.4009C40.6791 15.9624 41.0714 16.6335 41.324 17.4116H49.0165V13.8608H53.4633V17.4116H60.8147V13.8608H65.6296V7.78595H60.8147V1.96777H53.4633V7.78595H41.6652V11.1656C40.9773 10.0533 39.9966 9.15494 38.7203 8.47045C37.4441 7.78595 35.9609 7.44371 34.2709 7.44371C32.2933 7.44371 30.5011 7.94371 28.8971 8.94103C27.293 9.93836 26.0248 11.3662 25.0924 13.2191C24.461 14.4785 24.0472 15.8769 23.8457 17.4116H31.506H31.5034Z" fill="#323232"/>
<path d="M63.0478 25.4542C62.2444 25.4542 61.6721 25.2991 61.3282 24.9836C60.9842 24.6708 60.8123 24.1574 60.8123 23.4435V21.4756H53.4609V23.3579C53.4609 26.2964 54.2052 28.4141 55.6964 29.7109C57.185 31.0077 59.2646 31.6574 61.93 31.6574H65.6702V25.4542H63.0478Z" fill="#323232"/>
<path d="M108.49 17.4113C108.743 16.6198 109.138 15.9407 109.689 15.3792C110.707 14.3391 111.946 13.8177 113.407 13.8177C114.869 13.8177 116.108 14.3471 117.126 15.4006C117.666 15.9621 118.058 16.6332 118.311 17.4113H126.004V7.78561H118.652V11.1653C117.964 10.053 116.981 9.15459 115.707 8.4701C114.431 7.78561 112.948 7.44336 111.258 7.44336C109.28 7.44336 107.488 7.94336 105.884 8.94069C104.28 9.93801 103.009 11.3658 102.079 13.2188C101.448 14.4781 101.032 15.8765 100.83 17.4113H108.49Z" fill="#323232"/>
<path d="M83.2602 17.4118C83.5128 16.6203 83.9077 15.9412 84.4585 15.3797C85.4769 14.3396 86.7155 13.8182 88.1772 13.8182C89.6389 13.8182 90.8775 14.3476 91.8959 15.4011C92.4359 15.9626 92.8282 16.6337 93.0808 17.4118H100.773V0H93.422V11.0802C92.6751 9.96791 91.6514 9.08556 90.3482 8.42781C89.0451 7.77273 87.6049 7.44385 86.0277 7.44385C84.0501 7.44385 82.258 7.94385 80.6539 8.94118C79.0498 9.9385 77.7816 11.3663 76.8493 13.2193C76.2178 14.4786 75.8041 15.877 75.6025 17.4118H83.2629H83.2602Z" fill="#323232"/>
<path d="M118.463 21.4756C118.232 22.4943 117.789 23.3526 117.125 24.0424C116.107 25.0986 114.868 25.6253 113.407 25.6253C111.945 25.6253 110.706 25.0906 109.688 24.021C109.032 23.3312 108.589 22.4809 108.358 21.4756H93.2362C93.0051 22.4943 92.5618 23.3526 91.8981 24.0424C90.8798 25.0986 89.6411 25.6253 88.1794 25.6253C86.7178 25.6253 85.4791 25.0906 84.4608 24.021C83.8052 23.3312 83.3618 22.4809 83.1308 21.4756H75.543C75.7176 23.2002 76.1529 24.7617 76.8515 26.1601C77.7812 28.0291 79.0521 29.4702 80.6561 30.4809C82.2602 31.4943 84.0524 31.9996 86.0299 31.9996C87.72 31.9996 89.2031 31.6574 90.4794 30.9729C91.7557 30.2884 92.7364 29.3767 93.4242 28.2349V31.6574H100.776V21.4997C100.953 23.2162 101.388 24.7697 102.081 26.1601C103.011 28.0291 104.282 29.4702 105.886 30.4809C107.49 31.4943 109.266 31.9996 111.217 31.9996C112.907 31.9996 114.39 31.6574 115.666 30.9729C116.943 30.2884 117.937 29.39 118.654 28.2777V31.6574H126.006V21.4756H118.466H118.463Z" fill="#323232"/>
<path d="M0.128971 21.4754H16.7662C16.6534 22.9594 16.1724 24.0931 15.326 24.8765C14.4797 25.6626 13.4425 26.053 12.2092 26.053C10.3768 26.053 9.10051 25.2829 8.38311 23.7428H0.558874C0.961908 25.3123 1.68468 26.7241 2.72988 27.9781C3.77777 29.2321 5.08629 30.2188 6.6635 30.93C8.24071 31.6439 10.0033 31.9995 11.9513 31.9995C14.3023 31.9995 16.3954 31.5022 18.2279 30.5022C20.063 29.5049 21.4952 28.0797 22.5269 26.2241C23.5587 24.3712 24.0746 22.2027 24.0746 19.7214C24.0746 17.2402 23.5668 15.0744 22.5484 13.2188C21.5328 11.3658 20.106 9.93801 18.2709 8.94069C16.4384 7.94336 14.3292 7.44336 11.9513 7.44336C9.57341 7.44336 7.5663 7.92732 5.7607 8.8979C3.95511 9.86849 2.54449 11.2508 1.52616 13.0476C0.507823 14.8444 0 16.9407 0 19.3364C0 20.0209 0.0429903 20.7348 0.128971 21.4754ZM7.5233 17.4113C7.5233 16.1573 7.95321 15.1573 8.81301 14.4166C9.67282 13.676 10.7476 13.3043 12.0373 13.3043C13.327 13.3043 14.3077 13.6599 15.1541 14.3738C16.0005 15.0877 16.5244 16.1011 16.7232 17.4113H7.5233Z" fill="#FF9458"/>
<path d="M9.2 24.1768L8.4 22.9768L-1.2 22.1768L-2 26.5768L9.2 24.1768Z" fill="white"/>
</g>
<defs>
<clipPath id="clip0_1562_4955">
<rect width="126" height="32" fill="white"/>
</clipPath>
</defs>
</svg>
