<svg width="361" height="152" viewBox="0 0 361 152" fill="none" xmlns="http://www.w3.org/2000/svg">
<path d="M123.191 111.263H124.491V103.91H123.191V111.263ZM118.129 107.802C118.68 109.083 119.744 110.074 121.16 110.572L121.813 109.547C119.927 108.923 118.772 107.367 118.782 105.67V104.495H117.452V105.67C117.452 107.425 116.302 109.088 114.387 109.76L115.055 110.78C116.505 110.258 117.583 109.175 118.129 107.802ZM123.191 112.902V116.16H124.491V111.848H116.186V112.902H123.191ZM135.972 108.798V103.91H134.671V116.16H135.972V109.905H137.935V108.798H135.972ZM130.674 104.93H129.383V107.028C129.373 109.276 128.102 111.621 126.221 112.53L127.028 113.574C128.421 112.849 129.494 111.384 130.04 109.644C130.577 111.278 131.611 112.651 132.95 113.342L133.748 112.302C131.93 111.413 130.664 109.194 130.674 107.028V104.93ZM148.163 105.269V103.862H146.878V105.269H142.512V106.327H152.485V105.269H148.163ZM147.521 111.075C150.063 111.07 151.591 110.335 151.596 109.02C151.591 107.686 150.063 106.956 147.521 106.956C144.968 106.956 143.44 107.686 143.445 109.02C143.44 110.335 144.968 111.07 147.521 111.075ZM147.521 107.932C149.271 107.932 150.247 108.319 150.257 109.02C150.247 109.711 149.271 110.098 147.521 110.088C145.761 110.098 144.784 109.711 144.794 109.02C144.784 108.319 145.761 107.932 147.521 107.932ZM141.947 111.838V112.902H146.878V116.18H148.163V112.902H153.157V111.838H141.947ZM161.631 104.921V103.765H160.341V104.921H157.479V105.926H164.372V104.921H161.631ZM167.664 110.717V103.91H166.379V106.511H164.411V107.526H166.379V108.701H164.397V109.716H166.379V110.717H167.664ZM163.807 108.522C163.797 107.251 162.647 106.439 160.974 106.434C159.306 106.439 158.155 107.251 158.165 108.522C158.155 109.784 159.306 110.596 160.974 110.596C162.647 110.596 163.797 109.784 163.807 108.522ZM159.379 108.522C159.369 107.826 160.022 107.386 160.974 107.396C161.912 107.386 162.574 107.826 162.584 108.522C162.574 109.218 161.912 109.668 160.974 109.668C160.022 109.668 159.369 109.218 159.379 108.522ZM160.969 114.048H167.664V111.273H159.654V112.23H166.379V113.144H159.678V116.044H168.003V115.058H160.969V114.048ZM179.203 103.91H177.888V111.147H179.203V108.082H180.963V107.009H179.203V103.91ZM176.685 108.798C175.138 109.117 173.779 109.194 171.362 109.204V105.868H175.544V104.809H170.081V110.258H171.053C173.702 110.258 175.167 110.195 176.81 109.856L176.685 108.798ZM175.23 111.374C172.706 111.379 171.12 112.259 171.12 113.753C171.12 115.266 172.706 116.141 175.23 116.141C177.734 116.141 179.3 115.266 179.3 113.753C179.3 112.259 177.734 111.379 175.23 111.374ZM175.23 115.102C173.46 115.102 172.397 114.604 172.397 113.753C172.397 112.907 173.46 112.419 175.23 112.428C176.97 112.419 178.043 112.907 178.043 113.753C178.043 114.604 176.97 115.102 175.23 115.102ZM187.237 108.348C189.998 108.338 191.607 107.594 191.607 106.216C191.607 104.858 189.998 104.113 187.237 104.113C184.477 104.113 182.857 104.858 182.857 106.216C182.857 107.594 184.477 108.338 187.237 108.348ZM187.237 105.08C189.2 105.075 190.278 105.501 190.278 106.216C190.278 106.98 189.2 107.372 187.237 107.372C185.289 107.372 184.206 106.98 184.216 106.216C184.206 105.501 185.289 105.075 187.237 105.08ZM181.663 110.132H192.831V109.093H181.663V110.132ZM191.414 113.941V111.075H182.993V112.046H190.138V113.008H183.017V116.044H191.767V115.039H184.288V113.941H191.414ZM206.057 116.16H207.362V103.91H206.057V116.16ZM197.892 105.23V106.265H202.397C202.141 109.122 200.555 111.331 197.297 112.878L197.983 113.927C202.189 111.921 203.712 108.812 203.722 105.23H197.892ZM215.507 109.436H219.312V108.416H211.988V107.28H219.06V104.195H210.668V105.225H217.765V106.318H210.702V109.436H214.231V110.596H209.261V111.655H220.472V110.596H215.507V109.436ZM217.823 113.55V116.064H219.128V112.506H210.518V113.55H217.823ZM230.923 108.875V103.91H229.637V116.16H230.923V109.953H232.886V108.875H230.923ZM224.334 104.07V105.829H221.313V106.888H228.569V105.829H225.63V104.07H224.334ZM224.991 107.792C223.222 107.792 221.936 108.972 221.941 110.644C221.936 112.322 223.222 113.487 224.991 113.492C226.741 113.487 228.027 112.322 228.032 110.644C228.027 108.972 226.741 107.792 224.991 107.792ZM224.991 112.409C223.942 112.414 223.174 111.703 223.183 110.644C223.174 109.59 223.942 108.865 224.991 108.865C226.026 108.865 226.785 109.59 226.795 110.644C226.785 111.703 226.026 112.414 224.991 112.409ZM242.409 106.574H239.373C238.831 105.467 237.918 104.834 236.801 104.829C234.969 104.834 233.683 106.501 233.693 109.126C233.683 111.766 234.969 113.434 236.801 113.434C237.985 113.434 238.943 112.718 239.465 111.485H242.409V116.184H243.695V103.91H242.409V106.574ZM236.801 112.269C235.689 112.269 234.93 111.07 234.93 109.126C234.93 107.198 235.689 105.999 236.801 105.989C237.903 105.999 238.667 107.198 238.667 109.126C238.667 111.07 237.903 112.269 236.801 112.269ZM239.779 110.427C239.851 110.026 239.895 109.59 239.895 109.126C239.895 108.59 239.842 108.092 239.74 107.642H242.409V110.427H239.779ZM95.7793 136.16H97.012V123.91H95.7793V136.16ZM91.5396 128.682V129.76H93.3041V135.541H94.5272V124.171H93.3041V128.682H91.5396ZM90.1715 127.173H92.3469V126.115H90.1715V124.35H88.9485V126.115H86.7392V127.173H88.9485V127.666C88.9388 129.648 88.0638 131.742 86.3621 132.738L87.1259 133.714C88.3103 133.008 89.1322 131.727 89.5721 130.243C90.0168 131.631 90.8386 132.8 92.023 133.434L92.753 132.472C91.061 131.563 90.1715 129.6 90.1715 127.666V127.173ZM107.468 123.91V130.248H108.749V123.91H107.468ZM102.508 127.507C103.059 128.686 104.142 129.61 105.587 130.04L106.216 129.039C104.311 128.498 103.141 127.115 103.141 125.622H105.839V124.568H99.0757V125.622H101.831C101.822 127.202 100.642 128.682 98.7373 129.276L99.3367 130.301C100.845 129.827 101.962 128.807 102.508 127.507ZM102.01 133.84H108.768V130.809H100.71V131.809H107.478V132.892H100.748V136.044H109.17V135.019H102.01V133.84ZM123.749 123.91H122.449V130.862H123.749V127.84H125.524V126.758H123.749V123.91ZM114.593 124.732V130.016H120.332V124.732H114.593ZM115.865 128.972V125.776H119.06V128.972H115.865ZM123.943 132.573V131.534H115.802V132.573H119.171C118.978 133.772 117.416 134.811 115.309 135.116L115.787 136.102C117.644 135.827 119.166 134.985 119.867 133.816C120.573 134.981 122.101 135.836 123.962 136.126L124.441 135.121C122.352 134.811 120.762 133.748 120.573 132.573H123.943ZM127.2 129.276C129.318 129.083 131.039 128.401 131.798 127.275C132.552 128.401 134.268 129.083 136.405 129.276L136.782 128.305C134.336 128.111 132.654 127.236 132.523 126.057H136.27V125.027H132.436V123.867H131.16V125.027H127.345V126.057H131.073C130.937 127.236 129.26 128.111 126.814 128.305L127.2 129.276ZM137.391 129.914H126.224V130.949H131.16V132.162H127.563V136.006H136.028V132.162H132.436V130.949H137.391V129.914ZM128.844 134.952V133.202H134.766V134.952H128.844ZM142.491 125.201V123.804H141.2V125.201H138.338V126.24H145.232V125.201H142.491ZM148.534 131.795V123.91H147.238V126.767H145.27V127.826H147.238V129.175H145.256V130.233H147.238V131.795H148.534ZM141.833 131.345C143.487 131.35 144.656 130.446 144.666 129.083C144.656 127.71 143.487 126.801 141.833 126.801C140.165 126.801 139.015 127.71 139.025 129.083C139.015 130.446 140.165 131.35 141.833 131.345ZM140.238 129.083C140.228 128.285 140.862 127.782 141.833 127.773C142.79 127.782 143.448 128.285 143.458 129.083C143.448 129.871 142.79 130.369 141.833 130.369C140.862 130.369 140.228 129.871 140.238 129.083ZM144.458 131.921C141.867 131.921 140.296 132.694 140.296 134.038C140.296 135.358 141.867 136.141 144.458 136.141C147.025 136.141 148.596 135.358 148.601 134.038C148.596 132.694 147.025 131.921 144.458 131.921ZM144.458 135.14C142.694 135.15 141.65 134.744 141.65 134.038C141.65 133.313 142.694 132.926 144.458 132.921C146.189 132.926 147.223 133.313 147.223 134.038C147.223 134.744 146.189 135.15 144.458 135.14ZM163.113 136.16H164.346V123.91H163.113V136.16ZM159.159 128.247V129.305H160.609V135.527H161.832V124.186H160.609V128.247H159.159ZM155.48 129.59H158.588V125.225H154.209V126.284H157.341V128.546H154.228V133.187H155.059C156.606 133.182 158.003 133.148 159.7 132.839L159.599 131.776C158.086 132.041 156.824 132.095 155.48 132.104V129.59ZM174.783 136.184H176.088V123.91H174.783V136.184ZM170.437 124.93H169.131V127.028C169.122 129.368 167.768 131.708 165.839 132.568L166.642 133.651C168.106 132.941 169.233 131.456 169.798 129.663C170.374 131.34 171.486 132.718 172.892 133.39L173.676 132.356C171.776 131.519 170.427 129.267 170.437 127.028V124.93ZM186.916 136.16H188.221V123.91H186.916V136.16ZM184.035 126.231H185.316V125.167H178.34V126.231H179.626V132.099C179.06 132.109 178.519 132.109 178.016 132.109L178.156 133.197C180.414 133.187 183.329 133.144 185.978 132.723L185.911 131.756C185.306 131.829 184.673 131.887 184.035 131.93V126.231ZM182.763 126.231V132.008C182.13 132.041 181.497 132.061 180.883 132.075V126.231H182.763ZM191.561 126.023V128.725H200.132V127.811H192.847V126.878H199.92V124.229H191.527V125.143H198.624V126.023H191.561ZM190.121 130.528H201.331V129.532H190.121V130.528ZM199.954 134.086V131.384H191.45V132.322H198.668V133.221H191.465V136.015H200.335V135.097H192.76V134.086H199.954ZM206.784 130.446C208.756 130.171 210.443 129.267 211.241 128C212.034 129.252 213.707 130.175 215.674 130.446L216.148 129.412C213.813 129.117 211.961 127.807 211.889 126.439H215.761V125.394H211.87V123.91H210.593V125.394H206.711V126.439H210.588C210.506 127.816 208.635 129.117 206.31 129.412L206.784 130.446ZM205.658 131.292V132.365H210.593V136.18H211.87V132.365H216.825V131.292H205.658ZM224.293 128.686H226.672V133.047H227.967V123.92H226.672V127.628H224.293V128.686ZM221.426 128.836C221.982 130.03 223.041 130.959 224.448 131.398L225.081 130.374C223.201 129.789 222.05 128.367 222.05 126.82V126.53H224.709V125.486H222.069V123.988H220.759V125.486H218.096V126.53H220.759V126.82C220.759 128.474 219.623 129.982 217.752 130.586L218.39 131.602C219.831 131.118 220.89 130.117 221.426 128.836ZM221.31 132.24H220.015V135.909H228.291V134.845H221.31V132.24ZM242.9 123.91H241.599V131.065H242.9V127.889H244.674V126.811H242.9V123.91ZM238.235 124.611V126.385H235.025V124.611H233.744V130.354H239.521V124.611H238.235ZM235.025 129.32V127.41H238.235V129.32H235.025ZM242.987 132.738V131.703H235.092V135.991H243.219V134.952H236.393V132.738H242.987ZM254.917 128.711V123.91H253.617V136.16H254.917V129.808H256.88V128.711H254.917ZM248.652 124.829C246.82 124.834 245.515 126.501 245.524 129.126C245.515 131.766 246.82 133.434 248.652 133.434C250.484 133.434 251.789 131.766 251.799 129.126C251.789 126.501 250.484 124.834 248.652 124.829ZM248.652 132.269C247.535 132.269 246.762 131.07 246.762 129.126C246.762 127.198 247.535 125.999 248.652 125.989C249.793 125.999 250.547 127.198 250.552 129.126C250.547 131.07 249.793 132.269 248.652 132.269ZM265.997 130.33C266.983 129.774 267.578 128.909 267.578 127.826C267.578 125.897 265.683 124.631 263.048 124.621C260.423 124.631 258.533 125.897 258.533 127.826C258.533 128.923 259.147 129.803 260.157 130.354V133.559H257.474V134.633H268.685V133.559H265.997V130.33ZM263.048 125.67C264.957 125.66 266.311 126.501 266.311 127.826C266.311 129.136 264.957 129.992 263.048 129.992C261.129 129.992 259.794 129.136 259.794 127.826C259.794 126.501 261.129 125.66 263.048 125.67ZM261.433 130.833C261.926 130.944 262.468 131.007 263.048 131.007C263.633 131.007 264.184 130.944 264.687 130.828V133.559H261.433V130.833ZM270.231 125.099L270.357 132.148H271.705L271.831 125.099H270.231ZM271.034 135.092C271.56 135.092 272 134.657 272.005 134.125C272 133.593 271.56 133.158 271.034 133.158C270.502 133.158 270.057 133.593 270.067 134.125C270.057 134.657 270.502 135.092 271.034 135.092Z" fill="#BEBEBE"/>
<rect x="0.5" y="0.5" width="360" height="151" stroke="#D9D9D9"/>
<circle cx="179.072" cy="58.8108" r="24.6702" fill="url(#paint0_radial_0_1)"/>
<circle cx="179.072" cy="58.8108" r="24.6702" fill="url(#paint1_linear_0_1)" fill-opacity="0.2"/>
<ellipse cx="174.062" cy="62.7465" rx="4.64029" ry="6.59195" transform="rotate(7.70697 174.062 62.7465)" fill="white"/>
<ellipse rx="5.05517" ry="6.59195" transform="matrix(-0.990967 0.134107 0.134107 0.990967 183.762 62.6908)" fill="white"/>
<ellipse rx="1.04848" ry="1.17183" transform="matrix(-1 0 0 1 183.697 62.6962)" fill="black"/>
<ellipse rx="1.04848" ry="1.11016" transform="matrix(-1 0 0 1 176.789 62.6678)" fill="black"/>
<path d="M186.942 53.1509C183.304 51.8365 180.859 54.1192 179.933 55.9731C179.843 56.1521 180.006 56.3266 180.175 56.219C180.925 55.7413 181.347 54.6366 183.815 53.6499C188.091 51.9403 189.493 58.219 189.728 60.4469C189.752 60.6699 189.924 60.7035 189.951 60.4808C190.16 58.7514 189.406 54.0414 186.942 53.1509Z" fill="#AE8E8B"/>
<path d="M186.942 53.1509C183.304 51.8365 180.859 54.1192 179.933 55.9731C179.843 56.1521 180.006 56.3266 180.175 56.219C180.925 55.7413 181.347 54.6366 183.815 53.6499C188.091 51.9403 189.493 58.219 189.728 60.4469C189.752 60.6699 189.924 60.7035 189.951 60.4808C190.16 58.7514 189.406 54.0414 186.942 53.1509Z" fill="black" fill-opacity="0.2"/>
<path d="M186.942 53.1509C183.304 51.8365 180.859 54.1192 179.933 55.9731C179.843 56.1521 180.006 56.3266 180.175 56.219C180.925 55.7413 181.347 54.6366 183.815 53.6499C188.091 51.9403 189.493 58.219 189.728 60.4469C189.752 60.6699 189.924 60.7035 189.951 60.4808C190.16 58.7514 189.406 54.0414 186.942 53.1509Z" fill="black" fill-opacity="0.2"/>
<path d="M175.47 52.8859C171.65 52.2007 169.176 56.0724 168.52 58.2266C168.461 58.4181 168.64 58.5435 168.767 58.3886C169.511 57.481 169.906 55.0807 172.363 53.9254C175.201 52.5915 177.388 54.498 178.223 55.7141C178.327 55.8661 178.548 55.8672 178.582 55.6862C178.744 54.8292 178.054 53.3493 175.47 52.8859Z" fill="#AE8E8B"/>
<path d="M175.47 52.8859C171.65 52.2007 169.176 56.0724 168.52 58.2266C168.461 58.4181 168.64 58.5435 168.767 58.3886C169.511 57.481 169.906 55.0807 172.363 53.9254C175.201 52.5915 177.388 54.498 178.223 55.7141C178.327 55.8661 178.548 55.8672 178.582 55.6862C178.744 54.8292 178.054 53.3493 175.47 52.8859Z" fill="black" fill-opacity="0.2"/>
<path d="M175.47 52.8859C171.65 52.2007 169.176 56.0724 168.52 58.2266C168.461 58.4181 168.64 58.5435 168.767 58.3886C169.511 57.481 169.906 55.0807 172.363 53.9254C175.201 52.5915 177.388 54.498 178.223 55.7141C178.327 55.8661 178.548 55.8672 178.582 55.6862C178.744 54.8292 178.054 53.3493 175.47 52.8859Z" fill="black" fill-opacity="0.2"/>
<path d="M173.251 75.1002C172.961 75.0454 173.051 74.8958 173.161 74.7412C172.347 75.1482 172.224 75.9942 172.632 76.0178C173.321 76.0575 176.965 79.3868 181.18 78.3324C186.006 77.1249 189.521 70.9099 188.384 70.6857L187.655 70.4157L187.655 71.1174C187.459 71.7959 186.068 76.4302 181.18 77.9006C177.258 79.0806 173.799 75.2043 173.251 75.1002Z" fill="#CC6767"/>
<path d="M187.512 70.2492C187.48 70.2207 187.143 69.7637 187.168 69.749C187.036 69.7505 186.724 70.2924 186.773 70.3247C186.857 70.3792 187.616 70.7232 188.222 70.8684C188.916 71.0348 189.896 70.372 189.769 70.2589L189.688 70.1157L189.514 70.0616C189.368 70.0885 189.051 70.7305 188.33 70.598C187.752 70.4917 187.574 70.3032 187.512 70.2492Z" fill="#CC6767"/>
<path d="M180.369 35.6542C180.218 35.3714 179.358 35.5364 178.947 35.6542C178.568 36.0078 179.137 36.3615 179.706 36.3615C180.274 36.3615 180.559 36.0078 180.369 35.6542Z" fill="#F2B5A8"/>
<path d="M178.075 37.878C177.935 37.6356 177.141 37.777 176.762 37.878C176.412 38.1811 176.937 38.4842 177.462 38.4842C177.987 38.4842 178.25 38.1811 178.075 37.878Z" fill="#F2B5A8"/>
<path d="M169.053 38.8023C169.115 38.4863 169.946 38.4305 170.354 38.4421C170.797 38.693 170.373 39.1841 169.852 39.3281C169.332 39.4722 168.976 39.1972 169.053 38.8023Z" fill="#F2B5A8"/>
<path d="M186.282 40.0595C186.428 39.7629 186.651 39.772 187.045 39.8956C187.44 40.0192 187.465 40.8013 186.919 40.8013C186.373 40.8013 186.1 40.4304 186.282 40.0595Z" fill="#F2B5A8"/>
<path d="M184.222 35.9681C184.471 35.9826 184.424 35.6386 184.37 35.4648C184.119 35.2453 183.769 35.3613 183.71 35.5626C183.651 35.7639 183.912 35.9499 184.222 35.9681Z" fill="#F2B5A8"/>
<path d="M182.829 41.6187C182.985 41.6278 183.034 41.4 182.922 41.302C182.764 41.1639 182.507 41.2139 182.507 41.3636C182.507 41.4956 182.634 41.6072 182.829 41.6187Z" fill="#F2B5A8"/>
<path d="M186.476 36.938C186.632 36.9472 186.681 36.7193 186.569 36.6214C186.411 36.4833 186.154 36.5333 186.154 36.6829C186.154 36.8149 186.281 36.9266 186.476 36.938Z" fill="#F2B5A8"/>
<path d="M183.022 37.1841C183.178 37.1932 183.227 36.9654 183.115 36.8675C182.957 36.7294 182.7 36.7793 182.7 36.929C182.7 37.061 182.827 37.1727 183.022 37.1841Z" fill="#F2B5A8"/>
<path d="M187.71 43.106C187.866 43.1151 187.915 42.8873 187.803 42.7893C187.645 42.6512 187.387 42.7012 187.388 42.8509C187.388 42.9829 187.515 43.0945 187.71 43.106Z" fill="#F2B5A8"/>
<path d="M168.466 43.106C168.623 43.1151 168.671 42.8873 168.559 42.7893C168.402 42.6512 168.144 42.7012 168.144 42.8509C168.144 42.9829 168.271 43.0945 168.466 43.106Z" fill="#F2B5A8"/>
<path d="M171.183 37.2117C171.336 37.1789 171.323 36.9463 171.189 36.8818C171 36.7908 170.765 36.9076 170.805 37.0518C170.84 37.179 170.992 37.2528 171.183 37.2117Z" fill="#F2B5A8"/>
<path d="M176.89 41.2593C177.046 41.2684 177.095 41.0406 176.983 40.9427C176.825 40.8046 176.568 40.8545 176.568 41.0042C176.568 41.1362 176.695 41.2479 176.89 41.2593Z" fill="#F2B5A8"/>
<path d="M171.755 40.6467C171.979 40.5986 171.959 40.258 171.763 40.1634C171.486 40.0302 171.142 40.2013 171.201 40.4125C171.252 40.5988 171.475 40.7068 171.755 40.6467Z" fill="#F2B5A8"/>
<path d="M177.551 36.1196C177.707 36.1288 177.756 35.901 177.644 35.803C177.486 35.6649 177.229 35.7149 177.229 35.8646C177.229 35.9966 177.356 36.1082 177.551 36.1196Z" fill="#F2B5A8"/>
<path d="M173.771 38.8179C173.927 38.827 173.976 38.5992 173.864 38.5012C173.706 38.3632 173.449 38.4131 173.449 38.5628C173.449 38.6948 173.576 38.8064 173.771 38.8179Z" fill="#F2B5A8"/>
<path d="M176.104 35.7546C176.329 35.7111 176.367 35.3235 176.104 35.2026C175.737 35.0346 175.481 35.2274 175.535 35.4404C175.583 35.6282 175.822 35.8089 176.104 35.7546Z" fill="#F2B5A8"/>
<path d="M174.631 29.9472C174.631 27.7672 176.398 26 178.578 26C180.758 26 182.525 27.7672 182.525 29.9472V33.8945H174.631V29.9472Z" fill="url(#paint2_linear_0_1)"/>
<path d="M167.953 33.2455C167.904 33.147 167.976 33.0312 168.086 33.0312H188.894C189.016 33.0312 189.085 33.1688 189.014 33.2666L188.058 34.5741C188.031 34.6123 187.986 34.6348 187.939 34.6348H168.739C168.683 34.6348 168.632 34.6031 168.607 34.553L167.953 33.2455Z" fill="url(#paint3_linear_0_1)"/>
<rect x="174.631" y="30.1924" width="7.89446" height="1.97362" fill="url(#paint4_linear_0_1)"/>
<rect x="178.578" y="67.6914" width="1.48021" height="0.616755" fill="url(#paint5_linear_0_1)"/>
<ellipse cx="184.067" cy="62.3863" rx="0.185026" ry="0.246702" fill="white"/>
<circle cx="177.221" cy="62.6354" r="0.246702" fill="white"/>
<path d="M148.155 57.6514C149.697 54.1003 154.038 55.0047 155.269 56.3832L156.732 68.0099C150.422 69.2391 146.063 62.468 148.155 57.6514Z" fill="#FFC9BA"/>
<path d="M149.521 58.7148C150.581 56.2738 153.565 56.8955 154.41 57.843L155.416 65.8351C151.079 66.68 148.083 62.0256 149.521 58.7148Z" fill="#FEB9A7"/>
<path d="M209.73 57.6514C208.188 54.1003 203.847 55.0047 202.617 56.3832L201.153 68.0099C207.464 69.2391 211.822 62.468 209.73 57.6514Z" fill="#FFC3B3"/>
<circle cx="182.032" cy="68.0621" r="2.03529" stroke="url(#paint6_linear_0_1)" stroke-width="0.370053"/>
<circle cx="176.604" cy="68.0621" r="2.03529" stroke="url(#paint7_linear_0_1)" stroke-width="0.370053"/>
<path d="M207.788 58.7148C206.728 56.2738 203.744 56.8955 202.898 57.843L201.893 65.8351C206.23 66.68 209.226 62.0256 207.788 58.7148Z" fill="#FEB9A7"/>
<path d="M200.317 90.1428L219.479 59.8867L221.072 60.8953L201.909 91.1514L200.317 90.1428Z" fill="#FFD66C"/>
<path d="M201.909 91.1516L221.071 60.8955L222.664 61.9041L203.501 92.1602L201.909 91.1516Z" fill="#FFEAB6"/>
<path d="M203.501 92.1594L222.663 61.9033L224.256 62.9119L205.093 93.168L203.501 92.1594Z" fill="#FFD66C"/>
<rect x="200.316" y="90.1416" width="5.65483" height="1.88494" transform="rotate(32.3479 200.316 90.1416)" fill="url(#paint8_linear_0_1)"/>
<path d="M199.308 91.7344L204.085 94.76L203.076 96.3525C202.519 97.2319 201.355 97.4933 200.475 96.9363L198.883 95.9278C198.003 95.3708 197.742 94.2063 198.299 93.3268L199.308 91.7344Z" fill="#FFD6D6"/>
<path d="M219.478 59.8863L225.901 55.0294L224.255 62.912L219.478 59.8863Z" fill="#FFF7E3"/>
<path d="M223.592 56.914L225.901 55.0297L225.185 57.9226L223.592 56.914Z" fill="black"/>
<circle cx="209.786" cy="84.85" r="8.21428" fill="url(#paint9_radial_0_1)"/>
<circle cx="209.786" cy="84.85" r="8.21428" fill="url(#paint10_linear_0_1)" fill-opacity="0.2"/>
<defs>
<radialGradient id="paint0_radial_0_1" cx="0" cy="0" r="1" gradientUnits="userSpaceOnUse" gradientTransform="translate(177.571 57.7382) rotate(56.7375) scale(35.5711 45.4129)">
<stop stop-color="#FFD3CA"/>
<stop offset="0.706891" stop-color="#FFBEAA"/>
<stop offset="1" stop-color="#F7D8C7"/>
</radialGradient>
<linearGradient id="paint1_linear_0_1" x1="174.693" y1="36.8077" x2="179.803" y2="87.4077" gradientUnits="userSpaceOnUse">
<stop stop-color="white"/>
<stop offset="1" stop-color="#FFBBBB"/>
</linearGradient>
<linearGradient id="paint2_linear_0_1" x1="178.578" y1="26" x2="178.578" y2="33.8945" gradientUnits="userSpaceOnUse">
<stop/>
<stop offset="1" stop-color="#464646"/>
</linearGradient>
<linearGradient id="paint3_linear_0_1" x1="178.516" y1="33.0312" x2="178.516" y2="34.6348" gradientUnits="userSpaceOnUse">
<stop/>
<stop offset="1" stop-color="#464646"/>
</linearGradient>
<linearGradient id="paint4_linear_0_1" x1="178.886" y1="30.1924" x2="173.459" y2="30.1924" gradientUnits="userSpaceOnUse">
<stop stop-color="#D9D9D9"/>
<stop offset="1" stop-color="#D9D9D9" stop-opacity="0"/>
</linearGradient>
<linearGradient id="paint5_linear_0_1" x1="179.376" y1="67.6914" x2="178.358" y2="67.6914" gradientUnits="userSpaceOnUse">
<stop/>
<stop offset="1" stop-color="#787878"/>
</linearGradient>
<linearGradient id="paint6_linear_0_1" x1="182.032" y1="65.8418" x2="182.032" y2="70.2824" gradientUnits="userSpaceOnUse">
<stop stop-color="#494949"/>
<stop offset="1" stop-color="#C5C5C5" stop-opacity="0.99"/>
</linearGradient>
<linearGradient id="paint7_linear_0_1" x1="176.604" y1="65.8418" x2="176.604" y2="70.2824" gradientUnits="userSpaceOnUse">
<stop stop-color="#494949"/>
<stop offset="1" stop-color="#C5C5C5" stop-opacity="0.99"/>
</linearGradient>
<linearGradient id="paint8_linear_0_1" x1="200.316" y1="91.0841" x2="205.971" y2="91.0841" gradientUnits="userSpaceOnUse">
<stop stop-color="#D9D9D9"/>
<stop offset="0.0001" stop-color="#F1F1F1"/>
<stop offset="1" stop-color="#F7F7F7"/>
</linearGradient>
<radialGradient id="paint9_radial_0_1" cx="0" cy="0" r="1" gradientUnits="userSpaceOnUse" gradientTransform="translate(209.286 84.4929) rotate(56.7375) scale(11.8439 15.1208)">
<stop stop-color="#FFD3CA"/>
<stop offset="0.706891" stop-color="#FFBEAA"/>
<stop offset="1" stop-color="#F7D8C7"/>
</radialGradient>
<linearGradient id="paint10_linear_0_1" x1="208.328" y1="77.5238" x2="210.029" y2="94.3718" gradientUnits="userSpaceOnUse">
<stop stop-color="white"/>
<stop offset="1" stop-color="#FFBBBB"/>
</linearGradient>
</defs>
</svg>
