<svg width="394" height="844" viewBox="0 0 394 844" fill="none" xmlns="http://www.w3.org/2000/svg">
<rect x="4" width="390" height="844" fill="url(#paint0_linear_0_1)"/>
<path d="M151.609 113.828H148.562V126.18H151.609V121.328H154.445V118.891H151.609V113.828ZM135.391 125.031H137.172C141.988 125.02 144.496 124.926 147.133 124.352L146.875 121.961C144.496 122.465 142.328 122.594 138.367 122.617V117.648H144.977V115.258H135.391V125.031ZM137.266 130.82C137.254 133.562 140.113 135.168 144.578 135.156C148.961 135.168 151.762 133.562 151.773 130.82C151.762 128.137 148.961 126.555 144.578 126.555C140.113 126.555 137.254 128.137 137.266 130.82ZM140.219 130.82C140.207 129.566 141.777 128.91 144.578 128.922C147.285 128.91 148.855 129.566 148.867 130.82C148.855 132.109 147.285 132.789 144.578 132.789C141.777 132.789 140.207 132.109 140.219 130.82ZM173.242 113.852H170.242V129.414H173.242V113.852ZM155.312 124.141L156.859 126.508C159.355 125.652 161.055 123.895 162.016 121.715C162.965 123.742 164.617 125.336 167.031 126.133L168.555 123.789C165.051 122.664 163.539 119.91 163.562 117.086V115.023H160.445V117.086C160.445 119.98 158.887 122.945 155.312 124.141ZM158.945 134.781H173.805V132.391H161.969V127.914H158.945V134.781ZM187 115.586H176.758V125.828H187V115.586ZM179.219 134.781H193.82V132.391H182.195V127.867H179.219V134.781ZM179.711 123.484V117.977H184.047V123.484H179.711ZM190.047 129.391H193.047V122.43H195.93V119.969H193.047V113.828H190.047V129.391ZM206.594 114.133C201.672 114.133 198.812 115.422 198.812 117.766C198.812 120.145 201.672 121.422 206.594 121.422C211.504 121.422 214.34 120.145 214.352 117.766C214.34 115.422 211.504 114.133 206.594 114.133ZM196.867 124.797H216.32V122.43H196.867V124.797ZM199.117 128.219H211V129.391H199.141V135.016H214.516V132.766H202.07V131.477H213.953V126.039H199.117V128.219ZM201.953 117.766C201.941 116.816 203.465 116.312 206.594 116.312C209.746 116.312 211.258 116.816 211.258 117.766C211.258 118.809 209.746 119.219 206.594 119.219C203.465 119.219 201.941 118.809 201.953 117.766ZM230.102 114.719C226.855 114.695 224.488 116.559 224.5 119.242C224.488 121.902 226.855 123.789 230.102 123.766C233.359 123.789 235.727 121.902 235.727 119.242C235.727 116.559 233.359 114.695 230.102 114.719ZM223.188 125.078L223.562 127.516C225.098 127.492 226.867 127.48 228.742 127.398V134.523H231.719V127.223C233.5 127.082 235.305 126.859 237.062 126.508L236.875 124.305C232.328 124.996 226.973 125.066 223.188 125.078ZM227.383 119.242C227.371 117.883 228.508 117.098 230.102 117.109C231.742 117.098 232.891 117.883 232.891 119.242C232.891 120.578 231.742 121.352 230.102 121.328C228.508 121.352 227.371 120.578 227.383 119.242ZM238.164 135.156H241.117V113.852H238.164V135.156ZM260.805 113.852H257.805V129.766H260.805V122.828H263.688V120.391H260.805V113.852ZM243.883 118.445H256.539V116.078H251.711V113.805H248.734V116.078H243.883V118.445ZM244.914 123.32C244.914 125.781 247.105 127.398 250.211 127.398C253.305 127.398 255.461 125.781 255.461 123.32C255.461 120.848 253.305 119.195 250.211 119.195C247.105 119.195 244.914 120.848 244.914 123.32ZM246.977 134.781H261.578V132.391H249.953V128.547H246.977V134.781ZM247.844 123.32C247.832 122.137 248.781 121.48 250.211 121.469C251.652 121.48 252.625 122.137 252.625 123.32C252.625 124.492 251.652 125.125 250.211 125.125C248.781 125.125 247.832 124.492 247.844 123.32Z" fill="#323232"/>
<path d="M164.605 147.828H161.605V169.109H164.605V158.469H167.629V156.008H164.605V147.828ZM147.543 163.133L149.23 165.43C156.402 161.902 158.887 156.383 158.91 150.008H148.762V152.445H155.875C155.312 157.203 152.594 160.602 147.543 163.133ZM186.215 148.602H170.301V150.969H176.09C175.621 152.516 173.43 154.027 169.387 154.414L170.441 156.758C174.438 156.348 177.098 154.824 178.223 152.738C179.359 154.824 182.066 156.348 186.074 156.758L187.152 154.414C183.051 154.027 180.836 152.527 180.379 150.969H186.215V148.602ZM168.52 160.602H187.973V158.211H179.699V155.422H176.746V158.211H168.52V160.602ZM170.676 164.516H182.629V169.156H185.605V162.125H170.676V164.516ZM207.332 147.852H204.332V160.227H200.254V162.266H204.332V163.953H207.332V147.852ZM189.191 157.297L189.543 159.664C191.16 159.664 192.977 159.652 194.887 159.582V162.406H191.91V168.781H207.801V166.391H194.887V163.461H197.887V159.406C199.609 159.277 201.355 159.078 203.043 158.797L202.879 156.664C198.367 157.215 193.094 157.273 189.191 157.297ZM190.762 152.398C190.762 154.684 192.953 156.16 196.129 156.148C199.223 156.16 201.438 154.684 201.449 152.398C201.438 150.125 199.223 148.566 196.129 148.578C192.953 148.566 190.762 150.125 190.762 152.398ZM193.598 152.398C193.586 151.344 194.605 150.758 196.129 150.758C197.559 150.758 198.59 151.344 198.613 152.398C198.59 153.43 197.559 154.004 196.129 153.992C194.605 154.004 193.586 153.43 193.598 152.398ZM227.98 147.828H225.004V153.031H221.676V155.445H225.004V160.484H227.98V147.828ZM209.863 158.141L211.41 160.508C213.941 159.641 215.652 157.895 216.59 155.727C217.516 157.637 219.145 159.184 221.488 159.945L222.965 157.602C219.648 156.5 218.125 153.992 218.066 151.508H222.309V149.117H210.73V151.508H215.02C214.949 154.18 213.355 156.969 209.863 158.141ZM213.355 165.078C213.355 167.668 216.145 169.18 220.691 169.18C225.25 169.18 228.039 167.668 228.051 165.078C228.039 162.488 225.25 160.965 220.691 160.953C216.145 160.965 213.355 162.488 213.355 165.078ZM216.332 165.078C216.332 163.848 217.867 163.238 220.691 163.25C223.527 163.238 225.062 163.848 225.074 165.078C225.062 166.297 223.527 166.906 220.691 166.906C217.867 166.906 216.332 166.297 216.332 165.078ZM249.191 147.828H246.355V156.055H244.293V148.18H241.551V168.125H244.293V158.445H246.355V169.156H249.191V147.828ZM231.355 164.328H232.832C235.645 164.316 237.918 164.234 240.52 163.742L240.309 161.305C238.246 161.668 236.418 161.785 234.355 161.82V152.703H239.301V150.289H231.355V164.328Z" fill="#FF9458"/>
<path d="M145.657 193.4V199.08H154.817V204.36H145.657V210.52H156.017V216H138.817V187.92H156.017V193.4H145.657ZM158.217 204.8C158.217 202.507 158.644 200.493 159.497 198.76C160.377 197.027 161.564 195.693 163.057 194.76C164.551 193.827 166.217 193.36 168.057 193.36C169.631 193.36 171.004 193.68 172.177 194.32C173.377 194.96 174.297 195.8 174.937 196.84V193.68H181.777V216H174.937V212.84C174.271 213.88 173.337 214.72 172.137 215.36C170.964 216 169.591 216.32 168.017 216.32C166.204 216.32 164.551 215.853 163.057 214.92C161.564 213.96 160.377 212.613 159.497 210.88C158.644 209.12 158.217 207.093 158.217 204.8ZM174.937 204.84C174.937 203.133 174.457 201.787 173.497 200.8C172.564 199.813 171.417 199.32 170.057 199.32C168.697 199.32 167.537 199.813 166.577 200.8C165.644 201.76 165.177 203.093 165.177 204.8C165.177 206.507 165.644 207.867 166.577 208.88C167.537 209.867 168.697 210.36 170.057 210.36C171.417 210.36 172.564 209.867 173.497 208.88C174.457 207.893 174.937 206.547 174.937 204.84ZM198.286 210.2V216H194.806C192.326 216 190.392 215.4 189.006 214.2C187.619 212.973 186.926 210.987 186.926 208.24V199.36H184.206V193.68H186.926V188.24H193.766V193.68H198.246V199.36H193.766V208.32C193.766 208.987 193.926 209.467 194.246 209.76C194.566 210.053 195.099 210.2 195.846 210.2H198.286ZM219.332 187.92C222.292 187.92 224.879 188.507 227.092 189.68C229.306 190.853 231.012 192.507 232.212 194.64C233.439 196.747 234.052 199.187 234.052 201.96C234.052 204.707 233.439 207.147 232.212 209.28C231.012 211.413 229.292 213.067 227.052 214.24C224.839 215.413 222.266 216 219.332 216H208.812V187.92H219.332ZM218.892 210.08C221.479 210.08 223.492 209.373 224.932 207.96C226.372 206.547 227.092 204.547 227.092 201.96C227.092 199.373 226.372 197.36 224.932 195.92C223.492 194.48 221.479 193.76 218.892 193.76H215.652V210.08H218.892ZM235.635 204.8C235.635 202.507 236.062 200.493 236.915 198.76C237.795 197.027 238.982 195.693 240.475 194.76C241.968 193.827 243.635 193.36 245.475 193.36C247.048 193.36 248.422 193.68 249.595 194.32C250.795 194.96 251.715 195.8 252.355 196.84V193.68H259.195V216H252.355V212.84C251.688 213.88 250.755 214.72 249.555 215.36C248.382 216 247.008 216.32 245.435 216.32C243.622 216.32 241.968 215.853 240.475 214.92C238.982 213.96 237.795 212.613 236.915 210.88C236.062 209.12 235.635 207.093 235.635 204.8ZM252.355 204.84C252.355 203.133 251.875 201.787 250.915 200.8C249.982 199.813 248.835 199.32 247.475 199.32C246.115 199.32 244.955 199.813 243.995 200.8C243.062 201.76 242.595 203.093 242.595 204.8C242.595 206.507 243.062 207.867 243.995 208.88C244.955 209.867 246.115 210.36 247.475 210.36C248.835 210.36 249.982 209.867 250.915 208.88C251.875 207.893 252.355 206.547 252.355 204.84Z" fill="#1C2127"/>
<path d="M199.054 453.868C202.75 485.712 180.315 505.713 150.182 509.21C120.049 512.708 93.6286 498.378 89.9326 466.534C86.2365 434.691 107.668 406.042 137.801 402.544C167.934 399.046 195.358 422.025 199.054 453.868Z" fill="url(#paint1_radial_0_1)"/>
<path d="M199.054 453.868C202.75 485.712 180.315 505.713 150.182 509.21C120.049 512.708 93.6286 498.378 89.9326 466.534C86.2365 434.691 107.668 406.042 137.801 402.544C167.934 399.046 195.358 422.025 199.054 453.868Z" fill="url(#paint2_linear_0_1)" fill-opacity="0.2"/>
<ellipse cx="11.2086" cy="15.3419" rx="11.2086" ry="15.3419" transform="matrix(-0.968896 0.247468 0.247468 0.968896 163.531 447.769)" fill="#F1F8FF"/>
<ellipse cx="133.21" cy="468.794" rx="12.5499" ry="13.2782" transform="rotate(1.08622 133.21 468.794)" fill="#F1F8FF"/>
<ellipse cx="138.793" cy="465.881" rx="3.84489" ry="4.53147" transform="rotate(-6.62075 138.793 465.881)" fill="#252121"/>
<ellipse cx="3.1583" cy="5.21806" rx="3.1583" ry="5.21806" transform="matrix(-0.993331 0.115297 0.115297 0.993331 154.24 458.421)" fill="#252121"/>
<path d="M134.386 454.298C130.462 459.363 123.794 459.329 120.184 457.696C119.727 457.49 119.869 456.986 120.37 456.997C122.099 457.036 124.981 457.015 129.014 455.468C134.088 453.522 135.851 449.213 135.657 446.743C135.618 446.245 136.038 445.878 136.274 446.319C137.071 447.805 137.015 450.905 134.386 454.298Z" fill="#AE8E8B"/>
<path d="M160.468 445.822C165.876 447.64 167.402 454.487 167.589 459.02C167.613 459.603 167.128 459.655 166.99 459.088C166.591 457.449 165.891 455.185 164.261 452.618C161.198 447.794 155.269 447.304 152.037 448.329C151.525 448.492 151.134 448.084 151.538 447.73C153.275 446.209 156.831 444.599 160.468 445.822Z" fill="#AE8E8B"/>
<path d="M139.274 497.466L137.745 490.195L147.64 489.384L148.525 497.011C148.64 497.998 147.861 498.861 146.868 498.849L140.866 498.774C140.095 498.765 139.433 498.221 139.274 497.466Z" fill="#FFFCF3"/>
<path d="M157.773 494.901L157.659 487.883L147.725 489.235L149.03 496.81C149.168 497.61 149.965 498.116 150.747 497.901L156.764 496.248C157.368 496.082 157.783 495.528 157.773 494.901Z" fill="#FFFCF3"/>
<ellipse cx="151.352" cy="463.318" rx="0.961222" ry="1.23586" transform="rotate(-6.62075 151.352 463.318)" fill="white"/>
<circle cx="138.803" cy="464.774" r="1.23586" transform="rotate(-6.62075 138.803 464.774)" fill="white"/>
<path d="M147.625 488.739L166.503 485.475L165.4 486.676L147.85 490.681L131.841 490.571L130.493 489.654L147.625 488.739Z" fill="#BC7C7C"/>
<path d="M144.501 482.848C144.093 482.262 142.234 482.847 141.356 483.213C140.608 484.093 141.957 484.729 143.215 484.583C144.473 484.437 145.011 483.582 144.501 482.848Z" fill="#F2B5A8"/>
<path d="M176.444 476.879C176.072 476.379 174.353 476.895 173.54 477.216C172.844 477.976 174.083 478.512 175.245 478.377C176.406 478.242 176.909 477.505 176.444 476.879Z" fill="#F2B5A8"/>
<path d="M118.434 482.638C118.49 481.923 120.314 481.587 121.219 481.508C122.263 481.949 121.45 483.144 120.337 483.596C119.223 484.048 118.364 483.531 118.434 482.638Z" fill="#F2B5A8"/>
<path d="M151.326 482.256C151.572 481.563 152.067 481.526 152.971 481.698C153.876 481.87 154.133 483.593 152.925 483.733C151.717 483.873 151.018 483.123 151.326 482.256Z" fill="#F2B5A8"/>
<path d="M147.176 480.962C147.729 480.93 147.538 480.181 147.374 479.811C146.762 479.39 146.018 479.736 145.939 480.197C145.86 480.657 146.485 481.001 147.176 480.962Z" fill="#F2B5A8"/>
<path d="M149.624 485.331C149.972 485.311 150.021 484.795 149.749 484.607C149.364 484.342 148.808 484.519 148.846 484.85C148.88 485.142 149.19 485.356 149.624 485.331Z" fill="#F2B5A8"/>
<path d="M122.739 478.573C123.069 478.461 122.979 477.95 122.666 477.842C122.224 477.689 121.735 478.008 121.861 478.316C121.971 478.589 122.327 478.713 122.739 478.573Z" fill="#F2B5A8"/>
<path d="M136.396 486.061C136.744 486.041 136.793 485.524 136.521 485.337C136.136 485.072 135.58 485.248 135.618 485.579C135.652 485.871 135.962 486.085 136.396 486.061Z" fill="#F2B5A8"/>
<path d="M124.884 486.028C125.367 485.864 125.235 485.116 124.776 484.957C124.13 484.733 123.414 485.2 123.598 485.652C123.76 486.051 124.28 486.232 124.884 486.028Z" fill="#F2B5A8"/>
<path d="M174.833 473.122C175.181 473.102 175.23 472.586 174.958 472.398C174.573 472.133 174.017 472.309 174.055 472.64C174.089 472.932 174.399 473.147 174.833 473.122Z" fill="#F2B5A8"/>
<path d="M167.167 480.063C167.515 480.043 167.564 479.526 167.292 479.338C166.907 479.074 166.351 479.25 166.389 479.581C166.423 479.873 166.733 480.087 167.167 480.063Z" fill="#F2B5A8"/>
<path d="M171.538 472.688C172.025 472.534 172.01 471.667 171.396 471.467C170.543 471.19 170.025 471.682 170.2 472.139C170.354 472.542 170.928 472.88 171.538 472.688Z" fill="#F2B5A8"/>
<path d="M74.4138 465.363C76.9131 457.114 86.7456 457.999 89.8203 460.732L96.0408 486.07C82.4008 490.409 71.0239 476.552 74.4138 465.363Z" fill="#FFC9BA"/>
<path d="M212.229 449.367C207.906 441.909 198.538 445.024 196.171 448.388L195.92 474.477C210.191 475.576 218.092 459.482 212.229 449.367Z" fill="#FFC3B3"/>
<path d="M150.702 473.208C150.982 475.619 149.255 477.8 146.844 478.08C144.433 478.36 142.252 476.632 141.973 474.222C141.693 471.811 143.294 468.539 145.704 468.259C148.115 467.979 150.423 470.798 150.702 473.208Z" fill="#E6AEAE"/>
<path d="M130.032 414.229C123.034 421.414 123.428 441.063 123.631 444.755C134.427 439.195 137.443 432.809 135.961 429.576L130.032 414.229Z" fill="#5C4643"/>
<path d="M160.324 423.766C154.891 444.712 133.121 447.239 125.342 446.889C136.672 438.308 135.675 417.953 142.646 420.139L160.324 423.766Z" fill="#5C4643"/>
<path d="M109.772 401.651C125.683 392.948 135.225 395.84 138.007 398.374C165.791 381.436 197.355 411.807 201.737 428.163C203.282 433.928 203.938 445.934 194.206 447.838C184.474 449.742 177.143 442.952 174.693 439.32C176.431 444.758 180.696 448.162 182.612 449.183C167.127 448.216 157.521 439.055 154.653 434.596L143.741 435.862L131.558 434.512L129.689 418.416C129.33 424.448 126.792 438.714 119.52 447.521C110.43 458.529 88.5156 467.432 80.0709 455.418C71.6262 443.403 89.8845 412.53 109.772 401.651Z" fill="#5C4643"/>
<path d="M79.8907 467.112C81.6086 461.441 88.3674 462.05 90.4809 463.929L94.7568 481.346C85.3808 484.328 77.5604 474.803 79.8907 467.112Z" fill="#FEB9A7"/>
<path d="M209.845 452.028C206.874 446.902 200.434 449.043 198.807 451.356L198.635 469.289C208.444 470.044 213.875 458.982 209.845 452.028Z" fill="#FEB9A7"/>
<path d="M173.092 553.764C182.948 541.809 182.46 528.305 182.487 522.622C185.031 516.062 189.702 507.308 188.041 524.775C186.381 542.241 205.217 570.43 212.918 579.942C218.017 585.298 216.008 581.756 193.646 586.42C165.693 592.249 160.771 568.709 173.092 553.764Z" fill="url(#paint3_linear_0_1)"/>
<path d="M284.22 566.785C277.394 552.875 280.991 539.85 282.278 534.314C281.32 527.344 278.799 517.748 276.377 535.125C273.954 552.502 249.112 575.573 239.421 583.047C233.222 587.08 235.995 584.098 256.674 593.805C282.521 605.938 292.752 584.173 284.22 566.785Z" fill="url(#paint4_linear_0_1)"/>
<path d="M280.279 538.032C276.95 566.444 254.678 591.746 226.267 588.416C197.855 585.087 183.065 555.443 186.394 527.031C189.723 498.62 210.438 477.698 238.85 481.028C267.262 484.357 283.608 509.62 280.279 538.032Z" fill="url(#paint5_radial_0_1)"/>
<path d="M280.279 538.032C276.95 566.444 254.678 591.746 226.267 588.416C197.855 585.087 183.065 555.443 186.394 527.031C189.723 498.62 210.438 477.698 238.85 481.028C267.262 484.357 283.608 509.62 280.279 538.032Z" fill="url(#paint6_linear_0_1)" fill-opacity="0.2"/>
<ellipse cx="220.57" cy="539.238" rx="10.6135" ry="13.84" transform="rotate(14.3901 220.57 539.238)" fill="white"/>
<ellipse cx="10.6135" cy="13.84" rx="10.6135" ry="13.84" transform="matrix(-0.99984 0.0178692 0.0178692 0.99984 252.019 527.68)" fill="white"/>
<ellipse cx="227.015" cy="539.744" rx="3.36672" ry="5.05009" transform="rotate(6.68308 227.015 539.744)" fill="black"/>
<ellipse cx="3.49621" cy="5.05009" rx="3.49621" ry="5.05009" transform="matrix(-0.993205 -0.116378 -0.116378 0.993205 249.208 537.26)" fill="black"/>
<path d="M250.947 533.553C248.975 529.515 239.312 522.224 232.683 533.967C232.463 534.357 232.566 534.44 232.797 534.056C234.255 531.637 237.975 525.663 246.051 529.719C249.506 531.455 251.724 536.601 251.601 538.603C251.578 538.98 251.825 539.596 252.032 539.28C252.568 538.461 251.699 535.093 250.947 533.553Z" fill="black"/>
<path d="M213.291 529.14C216.143 525.668 227.23 520.808 230.965 533.765C231.089 534.196 230.969 534.253 230.833 533.826C229.974 531.135 227.736 524.464 218.941 526.543C215.178 527.432 211.831 531.926 211.488 533.903C211.423 534.275 211.04 534.817 210.912 534.462C210.579 533.541 212.203 530.465 213.291 529.14Z" fill="black"/>
<path d="M219.368 563.702C219.009 563.481 219.205 563.326 219.43 563.174C218.135 563.308 217.542 564.382 218.076 564.621C218.976 565.024 222.666 569.351 228.837 570.075C235.905 570.903 243.401 566.786 241.994 565.907L241.008 564.721L240.895 565.689C239.49 566.06 236.651 569.84 229.368 569.334C223.524 568.928 220.049 564.12 219.368 563.702Z" fill="#CC6767"/>
<ellipse cx="246.329" cy="542.92" rx="0.647447" ry="0.776936" transform="rotate(6.68308 246.329 542.92)" fill="white"/>
<ellipse cx="228.581" cy="540.84" rx="0.647447" ry="1.03592" transform="rotate(6.68308 228.581 540.84)" fill="white"/>
<path d="M173.567 520.47C177.65 513.442 186.481 516.388 188.71 519.563L188.92 544.166C175.461 545.187 168.028 530.003 173.567 520.47Z" fill="#FFC9BA"/>
<path d="M294.764 534.671C292.416 526.89 283.143 527.715 280.241 530.289L274.349 554.176C287.207 558.281 297.95 545.226 294.764 534.671Z" fill="#FFC3B3"/>
<path d="M233.261 552.079C232.995 554.352 231.685 555.154 229.412 554.887C227.139 554.621 225.921 553.523 226.188 551.25C226.454 548.977 228.45 543.432 230.723 543.698C232.996 543.965 233.528 549.806 233.261 552.079Z" fill="#E6AEAE"/>
<path d="M176.124 523.279C178.932 518.448 185.002 520.473 186.534 522.656L186.678 539.567C177.427 540.269 172.317 529.831 176.124 523.279Z" fill="#FEB9A7"/>
<path d="M290.425 536.672C288.811 531.323 282.437 531.89 280.442 533.659L276.392 550.079C285.23 552.901 292.614 543.927 290.425 536.672Z" fill="#FEB9A7"/>
<path d="M235.201 478.101C235.019 475.977 232.783 473.914 231.688 473.148C233.795 475.021 233.187 477.826 232.619 478.994L235.954 479.026C235.555 478.023 235.851 476.226 236.05 475.452C235.451 476.147 235.234 477.508 235.201 478.101Z" fill="#FE9483"/>
<circle cx="255.128" cy="561.291" r="5.82702" transform="rotate(6.68308 255.128 561.291)" fill="#FFA8A8"/>
<rect x="393" y="844" width="393" height="149" transform="rotate(-180 393 844)" fill="url(#paint7_linear_0_1)" fill-opacity="0.5"/>
<circle cx="205.999" cy="555.534" r="5.82702" transform="rotate(6.68308 205.999 555.534)" fill="#FFA8A8"/>
<path fill-rule="evenodd" clip-rule="evenodd" d="M235.182 478.905C228.665 475.925 212.811 471.993 202.746 483.121C192.681 494.249 185.829 511.038 183.661 518.042L201.101 520.085C203.544 507.107 210.01 498.315 213.033 495.476L204.651 520.501L229.19 523.376L229.213 523.185C230.155 516.994 231.839 503.441 231.032 498.757C230.023 492.903 235.711 502.497 236.038 510.556C236.341 518.025 235.958 521.674 235.631 524.131L248.655 525.657C248.744 522.988 248.754 519.4 248.569 514.893C248.199 505.909 246.534 502.068 245.405 499.463C245.375 499.394 245.345 499.325 245.316 499.257C248.753 505.527 249.087 507.131 250.081 513.114C251.043 518.907 250.949 522.84 250.654 525.891L282.948 529.675C284.932 523.867 282.385 506.443 272.21 490.023C262.035 473.603 244.71 476.588 235.182 478.905Z" fill="url(#paint8_linear_0_1)"/>
<circle cx="214.613" cy="398.295" r="11.7435" transform="rotate(6.07462 214.613 398.295)" fill="#5C4643"/>
<circle cx="301.519" cy="407.543" r="11.7435" transform="rotate(6.07462 301.519 407.543)" fill="#5C4643"/>
<circle cx="295.448" cy="420.865" r="9.37222" transform="rotate(6.07462 295.448 420.865)" fill="#5C4643"/>
<circle cx="218.822" cy="413.164" r="6.88802" transform="rotate(6.07462 218.822 413.164)" fill="#5C4643"/>
<circle cx="210.743" cy="407.99" r="5.533" transform="rotate(6.07462 210.743 407.99)" fill="#5C4643"/>
<circle cx="305.889" cy="418.796" r="5.533" transform="rotate(6.07462 305.889 418.796)" fill="#5C4643"/>
<ellipse cx="219.367" cy="371.774" rx="14.5665" ry="16.4861" transform="rotate(6.07462 219.367 371.774)" fill="#5C4643"/>
<ellipse cx="305.337" cy="383.422" rx="14.5665" ry="16.4861" transform="rotate(6.07462 305.337 383.422)" fill="#5C4643"/>
<path d="M307.521 395.998C304.732 422.211 283.12 434.202 258.314 431.562C233.509 428.922 214.904 412.652 217.694 386.439C220.484 360.226 242.854 341.116 267.659 343.756C292.464 346.396 310.311 369.785 307.521 395.998Z" fill="url(#paint9_radial_0_1)"/>
<path d="M307.521 395.998C304.732 422.211 283.12 434.202 258.314 431.562C233.509 428.922 214.904 412.652 217.694 386.439C220.484 360.226 242.854 341.116 267.659 343.756C292.464 346.396 310.311 369.785 307.521 395.998Z" fill="url(#paint10_linear_0_1)" fill-opacity="0.2"/>
<path d="M205.455 382.694C208.951 376.527 216.678 379.015 218.651 381.763L219.062 403.214C207.336 404.229 200.713 391.057 205.455 382.694Z" fill="#FFC9BA"/>
<path d="M318.903 394.767C316.784 388.004 308.706 388.809 306.199 391.08L301.282 411.964C312.532 415.425 321.779 403.942 318.903 394.767Z" fill="#FFC3B3"/>
<circle cx="237.005" cy="407.718" r="5.87175" transform="rotate(6.07462 237.005 407.718)" fill="#FFB9A8"/>
<circle cx="284.162" cy="412.737" r="5.87175" transform="rotate(6.07462 284.162 412.737)" fill="#FFB9A8"/>
<path d="M209.013 385.712C211.416 381.473 216.728 383.183 218.084 385.072L218.366 399.817C210.306 400.515 205.754 391.461 209.013 385.712Z" fill="#FEB9A7"/>
<path d="M315.988 397.097C314.531 392.448 308.978 393.001 307.255 394.563L303.876 408.918C311.609 411.296 317.965 403.403 315.988 397.097Z" fill="#FEB9A7"/>
<path fill-rule="evenodd" clip-rule="evenodd" d="M247.312 400.886C246.639 401.277 245.754 401.113 245.381 400.43C243.072 396.194 240.906 388.894 244.085 381.414C248.437 371.175 259.334 373.385 261.511 379.509C263.256 384.417 262.765 392.442 261.118 397.059C260.934 397.574 260.431 397.892 259.884 397.899C253.609 397.97 249.572 399.574 247.312 400.886Z" fill="#F1F8FF"/>
<path fill-rule="evenodd" clip-rule="evenodd" d="M258.6 397.934C259.691 396.495 260.352 394.343 260.286 391.957C260.168 387.718 257.798 384.345 254.993 384.423C252.187 384.501 250.009 388.001 250.127 392.24C250.205 395.031 251.259 397.446 252.77 398.748C254.416 398.342 256.352 398.038 258.6 397.934Z" fill="#252121"/>
<path fill-rule="evenodd" clip-rule="evenodd" d="M275.745 403.912C276.321 404.436 277.221 404.462 277.729 403.872C280.878 400.218 284.533 393.537 282.999 385.555C280.899 374.629 269.781 374.497 266.364 380.025C263.626 384.456 262.416 392.405 263.055 397.265C263.126 397.807 263.551 398.224 264.085 398.346C270.204 399.736 273.813 402.154 275.745 403.912Z" fill="#F1F8FF"/>
<path fill-rule="evenodd" clip-rule="evenodd" d="M265.33 398.652C264.566 397.015 264.373 394.773 264.94 392.454C265.948 388.335 268.975 385.537 271.701 386.203C274.427 386.87 275.82 390.75 274.812 394.869C274.149 397.581 272.611 399.72 270.859 400.675C269.335 399.932 267.507 399.227 265.33 398.652Z" fill="#252121"/>
<circle cx="256.879" cy="390.877" r="1.46794" transform="rotate(6.07462 256.879 390.877)" fill="white"/>
<path d="M262.399 382.486L244.464 380.284C245.768 377.699 249.08 373.421 254.713 374.177C261.022 375.025 262.162 380.417 262.399 382.486Z" fill="#E5AEAE"/>
<circle cx="1.46794" cy="1.46794" r="1.46794" transform="matrix(-0.994385 -0.105824 -0.105824 0.994385 270.119 390.81)" fill="white"/>
<path d="M264.87 382.749L282.866 384.371C282.136 381.57 279.798 376.69 274.132 376.244C267.786 375.745 265.537 380.777 264.87 382.749Z" fill="#E5AEAE"/>
<path d="M266.412 400.275C266.207 402.204 263.778 403.528 260.987 403.231C258.197 402.934 256.101 401.129 256.306 399.2C256.512 397.27 259.033 395.074 261.824 395.371C264.614 395.668 266.617 398.346 266.412 400.275Z" fill="#E6AEAE"/>
<path d="M267.144 411.543C257.966 411.832 251.892 407.603 250.002 405.453C250.091 407.501 250.888 412.321 253.363 415.209C256.457 418.819 258.996 416.558 261.926 414.597C264.271 413.028 266.381 411.907 267.144 411.543Z" fill="#B98686"/>
<path fill-rule="evenodd" clip-rule="evenodd" d="M250.498 408.858C251.527 409.756 255.58 412.641 262.425 413.352C262.859 413.397 263.272 413.437 263.664 413.473C265.265 412.494 266.58 411.806 267.147 411.536C257.971 411.82 251.895 407.599 250.004 405.453C250.039 406.256 250.185 407.486 250.498 408.858Z" fill="#FFFCF3"/>
<path fill-rule="evenodd" clip-rule="evenodd" d="M259.31 416.304C256.496 414.305 253.66 413.155 251.745 412.595C252.181 413.541 252.715 414.438 253.366 415.202C255.506 417.712 257.384 417.393 259.31 416.304Z" fill="#FFB9A8"/>
<ellipse cx="248.996" cy="345.499" rx="21.2286" ry="21.2927" transform="rotate(-3.36197 248.996 345.499)" fill="#5C4643"/>
<path d="M253.929 357.511C252.755 368.549 242.287 378.529 230.815 377.308C219.342 376.087 211.21 364.128 212.384 353.09C213.559 342.051 223.811 334.093 235.284 335.314C246.756 336.535 255.104 346.473 253.929 357.511Z" fill="#5C4643"/>
<path d="M314.768 355.639C313.336 369.095 300.018 377.177 285.81 375.665C271.603 374.153 257.441 358.657 258.873 345.2C260.305 331.743 276.789 325.422 290.996 326.934C305.204 328.446 316.2 342.182 314.768 355.639Z" fill="#5C4643"/>
<ellipse cx="301.048" cy="367.182" rx="16.4861" ry="16.1473" transform="rotate(6.07462 301.048 367.182)" fill="#5C4643"/>
<circle cx="301.456" cy="382.554" r="9.93681" transform="rotate(6.07462 301.456 382.554)" fill="#5C4643"/>
<path d="M265.607 358.754C264.921 365.203 259.184 369.426 252.735 368.74C246.285 368.053 241.566 362.718 242.252 356.268C242.938 349.819 248.723 345.147 255.172 345.834C261.622 346.52 266.293 352.305 265.607 358.754Z" fill="#5C4643"/>
<circle cx="265.976" cy="336.081" r="11.7435" transform="rotate(6.07462 265.976 336.081)" fill="#5C4643"/>
<circle cx="223.214" cy="370.821" r="11.7435" transform="rotate(6.07462 223.214 370.821)" fill="#5C4643"/>
<circle cx="155.828" cy="323.878" r="54.2319" transform="rotate(-13.9697 155.828 323.878)" fill="url(#paint11_radial_0_1)"/>
<circle cx="155.828" cy="323.878" r="54.2319" transform="rotate(-13.9697 155.828 323.878)" fill="url(#paint12_linear_0_1)" fill-opacity="0.2"/>
<ellipse cx="147.232" cy="334.932" rx="10.2006" ry="14.4909" transform="rotate(-6.26269 147.232 334.932)" fill="white"/>
<ellipse cx="11.1127" cy="14.4909" rx="11.1127" ry="14.4909" transform="matrix(-0.929283 0.369368 0.369368 0.929283 172.868 312.095)" fill="white"/>
<ellipse cx="2.30486" cy="2.57601" rx="2.30486" ry="2.57601" transform="matrix(-0.970424 0.241408 0.241408 0.970424 169.372 326.656)" fill="black"/>
<ellipse cx="2.30486" cy="2.44044" rx="2.30486" ry="2.44044" transform="matrix(-0.970424 0.241408 0.241408 0.970424 154.655 330.391)" fill="black"/>
<path d="M169.614 307.628C161.157 306.754 157.152 312.921 156.159 317.368C156.063 317.797 156.504 318.083 156.807 317.764C158.153 316.347 158.467 313.766 163.209 310.351C171.424 304.435 177.746 317.085 179.43 321.713C179.599 322.176 179.984 322.157 179.923 321.667C179.451 317.867 175.344 308.219 169.614 307.628Z" fill="#AE8E8B"/>
<path d="M169.614 307.628C161.157 306.754 157.152 312.921 156.159 317.368C156.063 317.797 156.504 318.083 156.807 317.764C158.153 316.347 158.467 313.766 163.209 310.351C171.424 304.435 177.746 317.085 179.43 321.713C179.599 322.176 179.984 322.157 179.923 321.667C179.451 317.867 175.344 308.219 169.614 307.628Z" fill="black" fill-opacity="0.2"/>
<path d="M169.614 307.628C161.157 306.754 157.152 312.921 156.159 317.368C156.063 317.797 156.504 318.083 156.807 317.764C158.153 316.347 158.467 313.766 163.209 310.351C171.424 304.435 177.746 317.085 179.43 321.713C179.599 322.176 179.984 322.157 179.923 321.667C179.451 317.867 175.344 308.219 169.614 307.628Z" fill="black" fill-opacity="0.2"/>
<path d="M145.004 313.15C136.491 313.716 133.268 323.288 133.01 328.232C132.987 328.671 133.436 328.844 133.625 328.446C134.729 326.115 134.298 320.785 138.927 317.016C144.272 312.665 149.95 315.571 152.376 317.723C152.679 317.992 153.15 317.877 153.127 317.473C153.019 315.558 150.761 312.768 145.004 313.15Z" fill="#AE8E8B"/>
<path d="M145.004 313.15C136.491 313.716 133.268 323.288 133.01 328.232C132.987 328.671 133.436 328.844 133.625 328.446C134.729 326.115 134.298 320.785 138.927 317.016C144.272 312.665 149.95 315.571 152.376 317.723C152.679 317.992 153.15 317.877 153.127 317.473C153.019 315.558 150.761 312.768 145.004 313.15Z" fill="black" fill-opacity="0.2"/>
<path d="M145.004 313.15C136.491 313.716 133.268 323.288 133.01 328.232C132.987 328.671 133.436 328.844 133.625 328.446C134.729 326.115 134.298 320.785 138.927 317.016C144.272 312.665 149.95 315.571 152.376 317.723C152.679 317.992 153.15 317.877 153.127 317.473C153.019 315.558 150.761 312.768 145.004 313.15Z" fill="black" fill-opacity="0.2"/>
<path d="M152.056 361.715C151.41 361.751 151.522 361.385 151.674 360.997C150.154 362.297 150.341 364.167 151.225 364C152.714 363.72 162.256 368.888 170.687 364.402C180.342 359.265 184.541 344.141 181.997 344.267L180.298 344.078L180.671 345.575C180.613 347.126 180.105 357.75 170.458 363.481C162.718 368.079 153.282 361.646 152.056 361.715Z" fill="#CC6767"/>
<path d="M179.906 343.798C179.821 343.755 178.86 342.958 178.905 342.914C178.626 342.987 178.247 344.309 178.37 344.351C178.578 344.423 180.379 344.754 181.749 344.743C183.318 344.729 185.057 342.795 184.725 342.622L184.476 342.359L184.077 342.336C183.78 342.47 183.443 344.009 181.837 344.108C180.547 344.188 180.067 343.881 179.906 343.798Z" fill="#CC6767"/>
<path d="M167.961 368.714C167.869 368.691 166.012 368.923 166.548 368.088C165.66 368.449 166.943 369.061 167.073 369.075C167.292 369.098 169.196 369.208 170.528 368.888C172.054 368.522 173.314 366.247 172.951 366.152L172.651 366.227L172.435 366.48C172.176 366.678 172.012 368.191 170.469 368.649C169.23 369.017 168.136 368.758 167.961 368.714Z" fill="#B28282"/>
<path d="M146.31 273.789C145.836 273.266 144.09 274.074 143.276 274.543C142.655 275.499 144.056 275.952 145.269 275.65C146.483 275.348 146.902 274.442 146.31 273.789Z" fill="#F2B5A8"/>
<path d="M142.595 279.754C142.168 279.311 140.55 280.034 139.794 280.451C139.208 281.283 140.489 281.651 141.61 281.373C142.73 281.094 143.129 280.308 142.595 279.754Z" fill="#F2B5A8"/>
<path d="M123.836 286.51C123.801 285.803 125.544 285.243 126.42 285.051C127.498 285.351 126.854 286.624 125.82 287.207C124.786 287.791 123.881 287.393 123.836 286.51Z" fill="#F2B5A8"/>
<path d="M161.26 280.051C161.413 279.341 161.894 279.242 162.801 279.296C163.708 279.35 164.178 281.005 163.013 281.295C161.848 281.585 161.068 280.939 161.26 280.051Z" fill="#F2B5A8"/>
<path d="M154.694 272.416C155.232 272.315 154.95 271.606 154.743 271.263C154.091 270.928 153.406 271.362 153.387 271.822C153.368 272.283 154.023 272.541 154.694 272.416Z" fill="#F2B5A8"/>
<path d="M154.72 285.207C155.058 285.144 155.041 284.632 154.751 284.483C154.34 284.272 153.818 284.515 153.898 284.834C153.968 285.116 154.298 285.287 154.72 285.207Z" fill="#F2B5A8"/>
<path d="M160.018 273.289C160.356 273.226 160.339 272.714 160.048 272.564C159.638 272.353 159.116 272.596 159.195 272.916C159.265 273.197 159.595 273.368 160.018 273.289Z" fill="#F2B5A8"/>
<path d="M152.781 275.648C153.119 275.585 153.102 275.073 152.811 274.923C152.401 274.713 151.879 274.956 151.958 275.275C152.028 275.557 152.358 275.727 152.781 275.648Z" fill="#F2B5A8"/>
<path d="M165.922 285.791C166.26 285.728 166.243 285.216 165.952 285.067C165.542 284.856 165.02 285.099 165.099 285.418C165.169 285.7 165.5 285.871 165.922 285.791Z" fill="#F2B5A8"/>
<path d="M124.873 296.003C125.211 295.939 125.194 295.428 124.903 295.278C124.493 295.067 123.971 295.31 124.051 295.63C124.121 295.911 124.451 296.082 124.873 296.003Z" fill="#F2B5A8"/>
<path d="M127.54 281.984C127.849 281.833 127.696 281.344 127.376 281.277C126.924 281.184 126.486 281.557 126.648 281.844C126.79 282.096 127.154 282.173 127.54 281.984Z" fill="#F2B5A8"/>
<path d="M141.86 287.591C142.198 287.528 142.181 287.016 141.89 286.866C141.48 286.656 140.958 286.899 141.037 287.218C141.107 287.5 141.438 287.67 141.86 287.591Z" fill="#F2B5A8"/>
<path d="M130.581 289.013C131.033 288.792 130.809 288.076 130.34 287.978C129.679 287.841 129.037 288.388 129.274 288.808C129.483 289.178 130.015 289.29 130.581 289.013Z" fill="#F2B5A8"/>
<path d="M140.543 276.277C140.881 276.214 140.864 275.702 140.573 275.552C140.163 275.342 139.641 275.585 139.72 275.904C139.791 276.186 140.121 276.356 140.543 276.277Z" fill="#F2B5A8"/>
<path d="M133.913 284.042C134.251 283.979 134.234 283.467 133.943 283.318C133.533 283.107 133.011 283.35 133.09 283.669C133.16 283.951 133.49 284.121 133.913 284.042Z" fill="#F2B5A8"/>
<path d="M137.262 276.269C137.719 276.057 137.595 275.209 136.969 275.091C136.098 274.927 135.654 275.475 135.882 275.9C136.084 276.276 136.689 276.534 137.262 276.269Z" fill="#F2B5A8"/>
<path d="M131.038 264.66C129.881 260.01 132.713 255.302 137.363 254.145V254.145C142.014 252.988 146.722 255.82 147.879 260.471L149.973 268.891L133.132 273.081L131.038 264.66Z" fill="url(#paint13_linear_0_1)"/>
<path d="M118.544 275.239C118.387 275.055 118.478 274.77 118.713 274.712L163.103 263.669C163.361 263.605 163.583 263.861 163.483 264.108L162.138 267.404C162.099 267.5 162.016 267.572 161.916 267.597L120.958 277.786C120.839 277.815 120.712 277.775 120.632 277.681L118.544 275.239Z" fill="url(#paint14_linear_0_1)"/>
<rect x="159.489" y="343.086" width="3.25391" height="1.3558" transform="rotate(-13.9697 159.489 343.086)" fill="url(#paint15_linear_0_1)"/>
<ellipse cx="168.384" cy="328.858" rx="0.406739" ry="0.542319" transform="rotate(-13.9697 168.384 328.858)" fill="white"/>
<circle cx="153.91" cy="333.017" r="0.542319" transform="rotate(-13.9697 153.91 333.017)" fill="white"/>
<path d="M89.2614 337.811C90.6669 329.417 100.407 329.043 103.763 331.331L113.054 355.357C100.246 361.328 87.3549 349.196 89.2614 337.811Z" fill="#FFC9BA"/>
<path d="M92.7398 339.355C93.706 333.585 100.401 333.328 102.708 334.9L109.095 351.416C100.29 355.52 91.4294 347.181 92.7398 339.355Z" fill="#FEB9A7"/>
<path d="M220.617 305.134C215.442 298.377 206.662 302.61 204.769 306.204L207.818 331.783C221.931 331.057 227.635 314.299 220.617 305.134Z" fill="#FFC3B3"/>
<circle cx="167.053" cy="342.042" r="4.47413" transform="rotate(-13.9697 167.053 342.042)" stroke="url(#paint16_linear_0_1)" stroke-width="0.813479"/>
<circle cx="155.474" cy="344.923" r="4.47413" transform="rotate(-13.9697 155.474 344.923)" stroke="url(#paint17_linear_0_1)" stroke-width="0.813479"/>
<path d="M217.038 308.434C213.481 303.789 207.445 306.699 206.144 309.169L208.24 326.752C217.941 326.253 221.862 314.734 217.038 308.434Z" fill="#FEB9A7"/>
<rect x="161.273" y="624.455" width="76.4551" height="87.0007" fill="url(#paint18_linear_0_1)"/>
<rect x="156" y="606" width="7.90915" height="52.7277" fill="#FFCFB4"/>
<rect x="173.137" y="606" width="9.22734" height="52.7277" fill="#FFCFB4"/>
<rect x="190.273" y="606" width="9.22734" height="52.7277" fill="#FFCFB4"/>
<rect x="208.728" y="606" width="7.90915" height="52.7277" fill="#FFCFB4"/>
<rect x="225.864" y="606" width="9.22734" height="52.7277" fill="#FFCFB4"/>
<rect x="163.909" y="606" width="9.22734" height="52.7277" fill="#FFCFB4"/>
<rect x="163.909" y="606" width="1.31819" height="52.7277" fill="#FFBD98"/>
<rect x="173.137" y="606" width="1.31819" height="52.7277" fill="#FFBD98"/>
<rect x="182.364" y="606" width="7.90915" height="52.7277" fill="#FFCFB4"/>
<rect x="199.5" y="606" width="9.22734" height="52.7277" fill="#FFCFB4"/>
<rect x="216.637" y="606" width="9.22734" height="52.7277" fill="#FFCFB4"/>
<rect x="235.091" y="606" width="7.90915" height="52.7277" fill="#FFCFB4"/>
<rect x="182.364" y="606" width="1.31819" height="52.7277" fill="#FFBD98"/>
<rect x="190.273" y="606" width="1.31819" height="52.7277" fill="#FFBD98"/>
<rect x="199.5" y="606" width="1.31819" height="52.7277" fill="#FFBD98"/>
<rect x="208.728" y="606" width="1.31819" height="52.7277" fill="#FFBD98"/>
<rect x="216.637" y="606" width="1.31819" height="52.7277" fill="#FFBD98"/>
<rect x="225.864" y="606" width="1.31819" height="52.7277" fill="#FFBD98"/>
<rect x="235.091" y="606" width="1.31819" height="52.7277" fill="#FFBD98"/>
<rect x="174.454" y="666.637" width="11.8637" height="19.7729" fill="#E6F9FF"/>
<rect x="212.683" y="666.637" width="11.8637" height="19.7729" fill="#E6F9FF"/>
<rect x="214.001" y="667.955" width="9.22734" height="7.90915" fill="#FFBD98"/>
<rect x="175.772" y="667.955" width="9.22734" height="7.90915" fill="#FFBD98"/>
<rect x="214.001" y="677.183" width="9.22734" height="7.90915" fill="#FFBD98"/>
<rect x="175.772" y="677.183" width="9.22734" height="7.90915" fill="#FFBD98"/>
<defs>
<linearGradient id="paint0_linear_0_1" x1="199" y1="0" x2="199" y2="844" gradientUnits="userSpaceOnUse">
<stop stop-color="#DEF7FF"/>
<stop offset="1" stop-color="white"/>
</linearGradient>
<radialGradient id="paint1_radial_0_1" cx="0" cy="0" r="1" gradientUnits="userSpaceOnUse" gradientTransform="translate(140.403 453.943) rotate(49.5161) scale(77.9557 100.409)">
<stop stop-color="#FFD3CA"/>
<stop offset="0.706891" stop-color="#FFBEAA"/>
<stop offset="1" stop-color="#F7D8C7"/>
</radialGradient>
<linearGradient id="paint2_linear_0_1" x1="128.786" y1="409.434" x2="152.292" y2="517.618" gradientUnits="userSpaceOnUse">
<stop stop-color="white"/>
<stop offset="1" stop-color="#FFBBBB"/>
</linearGradient>
<linearGradient id="paint3_linear_0_1" x1="210.236" y1="523.379" x2="184.818" y2="588.944" gradientUnits="userSpaceOnUse">
<stop offset="0.661458" stop-color="#D36737"/>
<stop offset="1" stop-color="#CB5F29"/>
</linearGradient>
<linearGradient id="paint4_linear_0_1" x1="255.106" y1="528.637" x2="264.678" y2="598.301" gradientUnits="userSpaceOnUse">
<stop offset="0.661458" stop-color="#D36737"/>
<stop offset="1" stop-color="#CB5F29"/>
</linearGradient>
<radialGradient id="paint5_radial_0_1" cx="0" cy="0" r="1" gradientUnits="userSpaceOnUse" gradientTransform="translate(230.491 532.113) rotate(66.8507) scale(75.1358 90.2614)">
<stop stop-color="#FFD3CA"/>
<stop offset="0.706891" stop-color="#FFBEAA"/>
<stop offset="1" stop-color="#F7D8C7"/>
</radialGradient>
<linearGradient id="paint6_linear_0_1" x1="230.352" y1="485.916" x2="230.171" y2="597.191" gradientUnits="userSpaceOnUse">
<stop stop-color="white"/>
<stop offset="1" stop-color="#FFBBBB"/>
</linearGradient>
<linearGradient id="paint7_linear_0_1" x1="428.275" y1="831.315" x2="508.233" y2="1110.92" gradientUnits="userSpaceOnUse">
<stop stop-color="#BEB9B7"/>
<stop offset="0.847714" stop-color="#FFC839" stop-opacity="0.52"/>
</linearGradient>
<linearGradient id="paint8_linear_0_1" x1="239.051" y1="475.734" x2="233.41" y2="523.871" gradientUnits="userSpaceOnUse">
<stop stop-color="#FE9182"/>
<stop offset="1" stop-color="#C2571B"/>
</linearGradient>
<radialGradient id="paint9_radial_0_1" cx="0" cy="0" r="1" gradientUnits="userSpaceOnUse" gradientTransform="translate(260.458 385.459) rotate(62.2115) scale(64.1042 82.5677)">
<stop stop-color="#FFD3CA"/>
<stop offset="0.706891" stop-color="#FFBEAA"/>
<stop offset="1" stop-color="#F7D8C7"/>
</radialGradient>
<linearGradient id="paint10_linear_0_1" x1="259.182" y1="347.654" x2="258.488" y2="438.689" gradientUnits="userSpaceOnUse">
<stop stop-color="white"/>
<stop offset="1" stop-color="#FFBBBB"/>
</linearGradient>
<radialGradient id="paint11_radial_0_1" cx="0" cy="0" r="1" gradientUnits="userSpaceOnUse" gradientTransform="translate(152.53 321.52) rotate(56.7375) scale(78.1951 99.83)">
<stop stop-color="#FFD3CA"/>
<stop offset="0.706891" stop-color="#FFBEAA"/>
<stop offset="1" stop-color="#F7D8C7"/>
</radialGradient>
<linearGradient id="paint12_linear_0_1" x1="146.202" y1="275.509" x2="157.436" y2="386.742" gradientUnits="userSpaceOnUse">
<stop stop-color="white"/>
<stop offset="1" stop-color="#FFBBBB"/>
</linearGradient>
<linearGradient id="paint13_linear_0_1" x1="137.363" y1="254.145" x2="141.553" y2="270.986" gradientUnits="userSpaceOnUse">
<stop/>
<stop offset="1" stop-color="#464646"/>
</linearGradient>
<linearGradient id="paint14_linear_0_1" x1="140.963" y1="269.177" x2="141.814" y2="272.597" gradientUnits="userSpaceOnUse">
<stop/>
<stop offset="1" stop-color="#464646"/>
</linearGradient>
<linearGradient id="paint15_linear_0_1" x1="161.243" y1="343.086" x2="159.006" y2="343.086" gradientUnits="userSpaceOnUse">
<stop/>
<stop offset="1" stop-color="#787878"/>
</linearGradient>
<linearGradient id="paint16_linear_0_1" x1="167.053" y1="337.161" x2="167.053" y2="346.923" gradientUnits="userSpaceOnUse">
<stop stop-color="#494949"/>
<stop offset="1" stop-color="#C5C5C5" stop-opacity="0.99"/>
</linearGradient>
<linearGradient id="paint17_linear_0_1" x1="155.474" y1="340.042" x2="155.474" y2="349.804" gradientUnits="userSpaceOnUse">
<stop stop-color="#494949"/>
<stop offset="1" stop-color="#C5C5C5" stop-opacity="0.99"/>
</linearGradient>
<linearGradient id="paint18_linear_0_1" x1="200" y1="664.5" x2="200" y2="743.5" gradientUnits="userSpaceOnUse">
<stop stop-color="#FFAB7B"/>
<stop offset="1" stop-color="#FFEBE0"/>
</linearGradient>
</defs>
</svg>
