<svg width="350" height="152" viewBox="0 0 350 152" fill="none" xmlns="http://www.w3.org/2000/svg">
<path d="M45.2686 98.5215V97.2227H48.0576V96.1426H41.1533V97.2227H43.9561V98.5215C43.9424 100.634 42.5752 102.931 40.7295 103.799L41.4814 104.824C42.9102 104.127 44.0586 102.637 44.626 100.887C45.1934 102.521 46.3418 103.874 47.7842 104.51L48.4951 103.498C46.6084 102.691 45.2617 100.572 45.2686 98.5215ZM49.6025 107.162H50.9014V94.9121H49.6025V107.162ZM54.7158 95.7871H53.417V101.598H54.415C56.2402 101.604 58.1201 101.488 60.1709 101.064L60.0205 99.998C58.1201 100.395 56.377 100.504 54.7158 100.504V95.7871ZM54.7432 106.902H62.9053V105.85H56.0557V102.896H54.7432V106.902ZM61.1826 103.758H62.4814V99.6016H64.2588V98.4941H62.4814V94.9258H61.1826V103.758ZM69.1396 106H70.7119L75.1143 97.4414V96.1016H68.4561V97.3867H73.5557V97.4688L69.1396 106ZM79.6807 95.3223C77.8145 95.3359 76.4609 96.4639 76.4541 98.0703C76.4609 99.6836 77.8145 100.805 79.6807 100.805C81.5264 100.805 82.8867 99.6836 82.8936 98.0703C82.8867 96.4639 81.5264 95.3359 79.6807 95.3223ZM77.7256 98.0703C77.7188 97.0723 78.5527 96.4023 79.6807 96.416C80.8018 96.4023 81.6357 97.0723 81.6357 98.0703C81.6357 99.082 80.8018 99.752 79.6807 99.752C78.5527 99.752 77.7188 99.082 77.7256 98.0703ZM78.3135 102.746H85.0811V103.826H78.3545V107.012H86.7764V105.973H79.6123V104.797H86.3662V101.707H78.3135V102.746ZM85.0674 101.146H86.3662V94.9121H85.0674V101.146ZM97.9326 94.9121H96.6201V103.812H97.9326V99.6152H99.71V98.5352H97.9326V94.9121ZM88.2939 101.434L88.8408 102.473C92.4229 101.386 94.6104 99.0547 94.6104 95.8418H88.8135V96.9219H93.1953C92.9424 98.9385 91.165 100.572 88.2939 101.434ZM90.1533 106.902H98.4385V105.85H91.4658V102.896H90.1533V106.902ZM107.763 106.137C109.813 106.137 111.338 104.927 111.331 103.279C111.338 102.028 110.552 101.119 109.198 100.928V100.859C110.265 100.593 110.962 99.7861 110.948 98.6582C110.962 97.1953 109.738 95.9648 107.79 95.9648C105.944 95.9648 104.454 97.0586 104.413 98.6719H105.862C105.896 97.7764 106.785 97.2227 107.776 97.2227C108.822 97.2227 109.499 97.8379 109.499 98.7402C109.499 99.6904 108.713 100.319 107.585 100.312H106.737V101.543H107.585C109 101.55 109.813 102.247 109.813 103.225C109.813 104.188 108.945 104.838 107.749 104.838C106.642 104.838 105.78 104.284 105.726 103.416H104.194C104.256 105.036 105.712 106.137 107.763 106.137ZM122.692 94.9121H121.394V107.162H122.692V94.9121ZM112.63 103.826L112.808 104.906C115.05 104.913 118.017 104.879 120.737 104.428L120.642 103.457C119.562 103.601 118.413 103.683 117.278 103.737V102.548C118.7 102.343 119.623 101.509 119.63 100.326C119.623 98.9453 118.399 98.0361 116.608 98.0293C114.838 98.0361 113.635 98.9453 113.642 100.326C113.635 101.522 114.564 102.363 115.993 102.555V103.785C114.79 103.812 113.642 103.819 112.63 103.826ZM112.89 97.4141H120.368V96.375H117.292V94.9395H115.993V96.375H112.89V97.4141ZM114.872 100.326C114.858 99.54 115.583 99.041 116.608 99.041C117.668 99.041 118.386 99.54 118.386 100.326C118.386 101.105 117.668 101.591 116.608 101.584C115.583 101.591 114.858 101.105 114.872 100.326ZM138.224 94.9121H136.925V107.189H138.224V94.9121ZM128.503 100.121C128.503 102.767 129.822 104.435 131.675 104.428C133.493 104.435 134.833 102.767 134.833 100.121C134.833 97.5029 133.493 95.835 131.675 95.8281C129.822 95.835 128.503 97.5029 128.503 100.121ZM129.761 100.121C129.754 98.2002 130.533 96.9971 131.675 96.9902C132.796 96.9971 133.575 98.2002 133.575 100.121C133.575 102.069 132.796 103.266 131.675 103.266C130.533 103.266 129.754 102.069 129.761 100.121ZM144.403 96.8672V95.5547H143.118V96.7578C143.104 98.5898 141.997 100.224 140.083 100.9L140.78 101.939C142.209 101.413 143.248 100.333 143.781 98.959C144.314 100.169 145.319 101.126 146.659 101.598L147.356 100.572C145.531 99.9707 144.396 98.4736 144.403 96.8672ZM141.737 104.865C141.737 106.314 143.303 107.142 145.853 107.135C148.368 107.142 149.913 106.314 149.913 104.865C149.913 103.43 148.368 102.589 145.853 102.596C143.303 102.589 141.737 103.43 141.737 104.865ZM143.036 104.865C143.029 104.086 144.082 103.621 145.853 103.621C147.609 103.621 148.648 104.086 148.642 104.865C148.648 105.672 147.609 106.109 145.853 106.123C144.082 106.109 143.029 105.672 143.036 104.865ZM148.505 102.309H149.804V99.082H151.581V97.9883H149.804V94.9121H148.505V102.309ZM160.153 96.6758V95.5H158.827V96.6758C158.82 98.4258 157.672 100.087 155.765 100.764L156.421 101.775C157.87 101.256 158.95 100.169 159.497 98.8018C160.051 100.08 161.11 101.078 162.532 101.57L163.188 100.545C161.295 99.9229 160.146 98.3711 160.153 96.6758ZM157.556 103.908H164.556V107.162H165.854V102.855H157.556V103.908ZM164.556 102.268H165.854V94.9121H164.556V102.268ZM178.337 96.2656H174.017V94.8574H172.731V96.2656H168.37V97.332H178.337V96.2656ZM167.796 103.908H172.731V107.176H174.017V103.908H179.007V102.842H167.796V103.908ZM169.3 100.025C169.293 101.331 170.824 102.069 173.374 102.076C175.917 102.069 177.448 101.331 177.448 100.025C177.448 98.6855 175.917 97.9541 173.374 97.9609C170.824 97.9541 169.293 98.6855 169.3 100.025ZM170.64 100.025C170.64 99.3213 171.617 98.9316 173.374 98.9316C175.124 98.9316 176.102 99.3213 176.108 100.025C176.102 100.709 175.124 101.099 173.374 101.092C171.617 101.099 170.64 100.709 170.64 100.025ZM190.218 95.9238H187.483V94.7617H186.198V95.9238H183.327V96.9219H190.218V95.9238ZM184.011 99.5195C184.011 100.784 185.159 101.598 186.827 101.598C188.502 101.598 189.65 100.784 189.657 99.5195C189.65 98.248 188.502 97.4346 186.827 97.4414C185.159 97.4346 184.011 98.248 184.011 99.5195ZM185.228 99.5195C185.221 98.8291 185.877 98.3848 186.827 98.3984C187.764 98.3848 188.427 98.8291 188.44 99.5195C188.427 100.217 187.764 100.668 186.827 100.668C185.877 100.668 185.221 100.217 185.228 99.5195ZM185.501 103.238H192.228V104.141H185.528V107.039H193.854V106.055H186.827V105.043H193.513V102.268H185.501V103.238ZM190.245 100.709H192.228V101.721H193.513V94.9121H192.228V97.5098H190.259V98.5215H192.228V99.6973H190.245V100.709ZM205.052 94.9121H203.739V102.145H205.052V99.082H206.815V98.0156H205.052V94.9121ZM195.933 101.256H196.903C199.556 101.256 201.019 101.194 202.659 100.859L202.536 99.8066C200.991 100.121 199.631 100.189 197.218 100.203V96.8672H201.401V95.8145H195.933V101.256ZM196.972 104.756C196.972 106.267 198.558 107.142 201.087 107.135C203.589 107.142 205.147 106.267 205.147 104.756C205.147 103.259 203.589 102.384 201.087 102.377C198.558 102.384 196.972 103.259 196.972 104.756ZM198.257 104.756C198.25 103.908 199.316 103.423 201.087 103.43C202.823 103.423 203.896 103.908 203.903 104.756C203.896 105.604 202.823 106.103 201.087 106.096C199.316 106.103 198.25 105.604 198.257 104.756ZM213.091 95.1172C210.329 95.1104 208.709 95.8555 208.716 97.2227C208.709 98.5967 210.329 99.3418 213.091 99.3418C215.853 99.3418 217.459 98.5967 217.466 97.2227C217.459 95.8555 215.853 95.1104 213.091 95.1172ZM207.513 101.133H218.683V100.094H207.513V101.133ZM208.853 103.047H215.989V104.004H208.866V107.039H217.616V106.041H210.138V104.947H217.274V102.076H208.853V103.047ZM210.069 97.2227C210.062 96.498 211.143 96.0742 213.091 96.0742C215.053 96.0742 216.133 96.498 216.126 97.2227C216.133 97.9814 215.053 98.3711 213.091 98.3711C211.143 98.3711 210.062 97.9814 210.069 97.2227ZM233.188 94.9121H231.89V101.488H233.188V94.9121ZM223.276 98.3164C223.283 99.9912 224.664 101.16 226.544 101.146C228.417 101.16 229.798 99.9912 229.798 98.3164C229.798 96.6348 228.417 95.4658 226.544 95.4727C224.664 95.4658 223.283 96.6348 223.276 98.3164ZM224.548 98.3164C224.541 97.2705 225.382 96.5596 226.544 96.5664C227.692 96.5596 228.526 97.2705 228.526 98.3164C228.526 99.376 227.692 100.08 226.544 100.08C225.382 100.08 224.541 99.376 224.548 98.3164ZM225.177 107.012H233.188V102.076H231.903V103.457H226.448V102.076H225.177V107.012ZM226.448 105.945V104.482H231.903V105.945H226.448ZM240.968 95.6504H235.622V96.6895H239.669V98.2344H235.636V101.967H236.524C238.965 101.96 240.223 101.919 241.72 101.666L241.597 100.613C240.216 100.866 239.054 100.914 236.921 100.914V99.2188H240.968V95.6504ZM237.03 104.127H244.044V107.176H245.343V103.074H237.03V104.127ZM241.747 100.299H244.044V102.459H245.343V94.9258H244.044V96.7031H241.747V97.7422H244.044V99.2598H241.747V100.299ZM256.854 94.9258H255.556V104.086H256.854V99.9434H258.632V98.8633H256.854V94.9258ZM247.243 97.4004H254.544V96.3477H251.55V94.9121H250.251V96.3477H247.243V97.4004ZM247.913 100.299C247.906 101.687 249.116 102.589 250.894 102.596C252.65 102.589 253.86 101.687 253.86 100.299C253.86 98.8975 252.65 97.9814 250.894 97.9883C249.116 97.9814 247.906 98.8975 247.913 100.299ZM249.089 106.902H257.374V105.85H250.388V103.361H249.089V106.902ZM249.171 100.299C249.157 99.4922 249.854 98.9932 250.894 98.9863C251.933 98.9932 252.63 99.4922 252.644 100.299C252.63 101.099 251.933 101.591 250.894 101.584C249.854 101.591 249.157 101.099 249.171 100.299ZM272.96 94.9258H271.661V97.0996H269.002C269.084 96.6895 269.132 96.252 269.132 95.8008H263.526V96.8672H267.724C267.491 98.8428 265.796 100.401 262.897 101.229L263.417 102.24C266.069 101.481 267.908 100.094 268.701 98.125H271.661V99.6152H268.571V100.682H271.661V102.172H272.96V94.9258ZM264.798 104.701C264.798 106.191 266.411 107.107 268.927 107.107C271.408 107.107 273.035 106.191 273.042 104.701C273.035 103.218 271.408 102.315 268.927 102.309C266.411 102.315 264.798 103.218 264.798 104.701ZM266.083 104.701C266.083 103.826 267.177 103.327 268.927 103.334C270.643 103.327 271.736 103.826 271.743 104.701C271.736 105.562 270.643 106.062 268.927 106.068C267.177 106.062 266.083 105.562 266.083 104.701ZM286.044 101.871H274.833V102.951H279.769V107.162H281.04V102.951H286.044V101.871ZM276.05 98.0977C276.057 99.7451 277.82 100.791 280.411 100.791C283.002 100.791 284.779 99.7451 284.772 98.0977C284.779 96.4297 283.002 95.377 280.411 95.377C277.82 95.377 276.057 96.4297 276.05 98.0977ZM277.39 98.0977C277.383 97.0654 278.593 96.4229 280.411 96.416C282.236 96.4229 283.439 97.0654 283.446 98.0977C283.439 99.1162 282.236 99.752 280.411 99.752C278.593 99.752 277.383 99.1162 277.39 98.0977ZM297.487 94.9121H296.243V107.162H297.487V94.9121ZM287.083 100.203C287.083 102.862 288.122 104.53 289.722 104.523C291.239 104.53 292.258 103.047 292.374 100.654H293.755V106.561H294.999V95.1445H293.755V99.6016H292.367C292.217 97.3047 291.212 95.8896 289.722 95.8965C288.122 95.8896 287.083 97.5508 287.083 100.203ZM288.286 100.203C288.286 98.248 288.84 97.1064 289.722 97.1133C290.624 97.1064 291.185 98.248 291.185 100.203C291.185 102.151 290.624 103.3 289.722 103.293C288.84 103.3 288.286 102.151 288.286 100.203ZM305.253 95.9922H299.524V101.707H305.253V95.9922ZM300.796 100.682V97.0449H303.981V100.682H300.796ZM300.905 106.902H309.19V105.85H302.204V103.02H300.905V106.902ZM307.372 103.881H308.671V99.6562H310.448V98.5625H308.671V94.8984H307.372V103.881ZM133.438 115.309C131.586 115.309 130.219 116.45 130.226 118.098C130.219 119.766 131.586 120.907 133.438 120.9C134.505 120.907 135.407 120.518 135.981 119.861H138.962V121.146H140.247V114.912H138.962V116.32H135.954C135.38 115.685 134.491 115.309 133.438 115.309ZM131.47 118.098C131.463 117.072 132.29 116.368 133.438 116.375C134.553 116.368 135.38 117.072 135.38 118.098C135.38 119.15 134.553 119.854 133.438 119.861C132.29 119.854 131.463 119.15 131.47 118.098ZM132.235 122.76H138.962V123.826H132.263V127.012H140.685V125.973H133.562V124.797H140.247V121.748H132.235V122.76ZM136.521 117.346H138.962V118.836H136.528C136.59 118.604 136.624 118.357 136.624 118.098C136.624 117.831 136.59 117.585 136.521 117.346ZM151.772 114.926H150.474V122.213H151.772V119.068H153.563V117.975H151.772V114.926ZM142.64 116.607H146.946V118.043H142.653V121.639H143.638C145.989 121.639 147.609 121.57 149.503 121.229L149.366 120.189C147.582 120.49 146.078 120.552 143.952 120.559V119.027H148.218V115.568H142.64V116.607ZM143.925 127.012H151.772V122.787H143.925V127.012ZM145.196 125.959V123.799H150.515V125.959H145.196ZM167.208 114.912H165.909V127.148H167.208V120.873H169.108V119.793H167.208V114.912ZM157.679 123.881L158.403 124.893C162.437 122.903 163.995 119.738 164.009 116.197H158.294V117.277H162.683C162.416 120.135 160.748 122.35 157.679 123.881ZM179.663 118.221H172.54V115.131H171.255V119.273H179.663V118.221ZM169.765 121.639H180.948V120.572H169.765V121.639ZM171.091 124.865C171.091 126.301 172.684 127.107 175.343 127.107C177.981 127.107 179.561 126.301 179.567 124.865C179.561 123.437 177.981 122.63 175.343 122.637C172.684 122.63 171.091 123.437 171.091 124.865ZM172.403 124.865C172.396 124.072 173.47 123.655 175.343 123.648C177.188 123.655 178.269 124.072 178.269 124.865C178.269 125.651 177.188 126.103 175.343 126.109C173.47 126.103 172.396 125.651 172.403 124.865ZM191.489 114.912H190.19V122.049H191.489V119.082H193.267V117.988H191.489V114.912ZM181.878 117.154H189.179V116.115H186.185V114.803H184.886V116.115H181.878V117.154ZM182.548 119.807C182.541 121.112 183.744 121.967 185.528 121.953C187.292 121.967 188.495 121.112 188.495 119.807C188.495 118.501 187.292 117.653 185.528 117.66C183.744 117.653 182.541 118.501 182.548 119.807ZM183.655 127.012H191.489V122.555H190.19V123.744H184.94V122.555H183.655V127.012ZM183.806 119.807C183.792 119.089 184.489 118.624 185.528 118.631C186.567 118.624 187.265 119.089 187.278 119.807C187.265 120.538 186.567 120.989 185.528 120.996C184.489 120.989 183.792 120.538 183.806 119.807ZM184.94 125.973V124.756H190.19V125.973H184.94ZM204.136 114.912H202.837V127.162H204.136V114.912ZM194.716 124.045H195.741C197.676 124.052 199.645 123.901 201.812 123.457L201.634 122.363C199.672 122.76 197.792 122.917 196.001 122.924V116.102H194.716V124.045ZM215.606 114.912H214.308V127.189H215.606V120.723H217.575V119.656H215.606V114.912ZM206.583 124.141H207.567C209.844 124.147 211.471 124.086 213.392 123.744L213.228 122.65C211.478 122.965 209.939 123.054 207.882 123.061V117.141H212.312V116.088H206.583V124.141ZM219.558 126.096C220.084 126.089 220.521 125.658 220.528 125.125C220.521 124.592 220.084 124.154 219.558 124.154C219.024 124.154 218.58 124.592 218.587 125.125C218.58 125.658 219.024 126.089 219.558 126.096Z" fill="#BEBEBE"/>
<path fill-rule="evenodd" clip-rule="evenodd" d="M160.174 57.1502C160.166 57.1682 160.157 57.186 160.149 57.2037L160.15 57.204L157.66 64.0648C157.619 64.2222 157.564 64.3783 157.495 64.5315C157.488 64.5471 157.481 64.5625 157.473 64.5779L157.47 64.586L157.47 64.5857C156.792 66.0109 155.095 66.6379 153.65 65.986C152.204 65.3341 151.551 63.647 152.171 62.1956L152.171 62.1954L152.173 62.1919C152.18 62.1749 152.188 62.1579 152.195 62.141C152.265 61.9863 152.347 61.8407 152.439 61.7048L155.932 55.3013L155.932 55.3016C155.94 55.2835 155.948 55.2655 155.956 55.2475C156.481 54.0828 157.851 53.5645 159.016 54.0899C160.181 54.6153 160.699 55.9855 160.174 57.1502Z" fill="white"/>
<path fill-rule="evenodd" clip-rule="evenodd" d="M160.174 57.1502C160.166 57.1682 160.157 57.186 160.149 57.2037L160.15 57.204L157.66 64.0648C157.619 64.2222 157.564 64.3783 157.495 64.5315C157.488 64.5471 157.481 64.5625 157.473 64.5779L157.47 64.586L157.47 64.5857C156.792 66.0109 155.095 66.6379 153.65 65.986C152.204 65.3341 151.551 63.647 152.171 62.1956L152.171 62.1954L152.173 62.1919C152.18 62.1749 152.188 62.1579 152.195 62.141C152.265 61.9863 152.347 61.8407 152.439 61.7048L155.932 55.3013L155.932 55.3016C155.94 55.2835 155.948 55.2655 155.956 55.2475C156.481 54.0828 157.851 53.5645 159.016 54.0899C160.181 54.6153 160.699 55.9855 160.174 57.1502Z" fill="url(#paint0_linear_0_1)" fill-opacity="0.6"/>
<path fill-rule="evenodd" clip-rule="evenodd" d="M194.441 55.2712C194.448 55.2898 194.454 55.3085 194.46 55.3271L194.462 55.3267L197.466 61.9826C197.546 62.123 197.615 62.2719 197.672 62.4286C197.677 62.4434 197.682 62.4583 197.687 62.4731L197.693 62.4844L197.691 62.4848C198.2 63.9787 197.422 65.6119 195.932 66.1532C194.442 66.6945 192.797 65.9415 192.228 64.4692L192.228 64.4692L192.228 64.4688C192.221 64.4505 192.214 64.432 192.207 64.4134C192.149 64.2528 192.106 64.0904 192.077 63.9277L190.112 56.9064L190.113 56.9063C190.105 56.888 190.098 56.8696 190.092 56.851C189.655 55.65 190.275 54.3227 191.476 53.8865C192.677 53.4502 194.005 54.0702 194.441 55.2712Z" fill="white"/>
<path fill-rule="evenodd" clip-rule="evenodd" d="M194.441 55.2712C194.448 55.2898 194.454 55.3085 194.46 55.3271L194.462 55.3267L197.466 61.9826C197.546 62.123 197.615 62.2719 197.672 62.4286C197.677 62.4434 197.682 62.4583 197.687 62.4731L197.693 62.4844L197.691 62.4848C198.2 63.9787 197.422 65.6119 195.932 66.1532C194.442 66.6945 192.797 65.9415 192.228 64.4692L192.228 64.4692L192.228 64.4688C192.221 64.4505 192.214 64.432 192.207 64.4134C192.149 64.2528 192.106 64.0904 192.077 63.9277L190.112 56.9064L190.113 56.9063C190.105 56.888 190.098 56.8696 190.092 56.851C189.655 55.65 190.275 54.3227 191.476 53.8865C192.677 53.4502 194.005 54.0702 194.441 55.2712Z" fill="url(#paint1_linear_0_1)" fill-opacity="0.6"/>
<rect x="167.806" y="67.083" width="6.06103" height="10.1936" rx="3.03052" fill="white"/>
<rect x="167.806" y="67.083" width="6.06103" height="10.1936" rx="3.03052" fill="url(#paint2_linear_0_1)" fill-opacity="0.5"/>
<rect x="176.484" y="67.083" width="6.06103" height="10.1936" rx="3.03052" fill="white"/>
<rect x="176.484" y="67.083" width="6.06103" height="10.1936" rx="3.03052" fill="url(#paint3_linear_0_1)" fill-opacity="0.5"/>
<circle cx="175.175" cy="50.9512" r="19.5459" fill="white"/>
<circle cx="175.175" cy="50.9512" r="19.5459" fill="url(#paint4_linear_0_1)" fill-opacity="0.5"/>
<path d="M168.379 56.459C169.789 56.459 170.932 54.5405 170.932 52.1739C170.932 49.8072 169.789 47.8887 168.379 47.8887C166.968 47.8887 165.825 49.8072 165.825 52.1739C165.825 54.5405 166.968 56.459 168.379 56.459Z" fill="#FA9571"/>
<path d="M167.867 51.2141C168.238 51.2141 168.539 50.9133 168.539 50.5421C168.539 50.171 168.238 49.8701 167.867 49.8701C167.496 49.8701 167.195 50.171 167.195 50.5421C167.195 50.9133 167.496 51.2141 167.867 51.2141Z" fill="white"/>
<path d="M182.12 56.459C183.53 56.459 184.674 54.5405 184.674 52.1739C184.674 49.8072 183.53 47.8887 182.12 47.8887C180.71 47.8887 179.566 49.8072 179.566 52.1739C179.566 54.5405 180.71 56.459 182.12 56.459Z" fill="#FA9571"/>
<path d="M175.136 61.3946C176.185 61.3946 177.035 60.3898 177.035 59.1504C177.035 57.911 176.185 56.9062 175.136 56.9062C174.087 56.9062 173.237 57.911 173.237 59.1504C173.237 60.3898 174.087 61.3946 175.136 61.3946Z" fill="#FA9571"/>
<path d="M181.76 51.2141C182.131 51.2141 182.432 50.9133 182.432 50.5421C182.432 50.171 182.131 49.8701 181.76 49.8701C181.389 49.8701 181.088 50.171 181.088 50.5421C181.088 50.9133 181.389 51.2141 181.76 51.2141Z" fill="white"/>
<rect x="175.271" y="33.0371" width="3.28794" height="5.52971" rx="1.64397" transform="rotate(162.025 175.271 33.0371)" fill="white"/>
<rect x="175.271" y="33.0371" width="3.28794" height="5.52971" rx="1.64397" transform="rotate(162.025 175.271 33.0371)" fill="url(#paint5_linear_0_1)" fill-opacity="0.5"/>
<rect x="178.793" y="34.0137" width="3.28793" height="5.52971" rx="1.64397" transform="rotate(-164.789 178.793 34.0137)" fill="white"/>
<rect x="178.793" y="34.0137" width="3.28793" height="5.52971" rx="1.64397" transform="rotate(-164.789 178.793 34.0137)" fill="url(#paint6_linear_0_1)" fill-opacity="0.5"/>
<rect x="177.175" y="33.7373" width="3.36906" height="6.73811" rx="1.68453" transform="rotate(-180 177.175 33.7373)" fill="white"/>
<rect x="177.175" y="33.7373" width="3.36906" height="6.73811" rx="1.68453" transform="rotate(-180 177.175 33.7373)" fill="url(#paint7_linear_0_1)" fill-opacity="0.5"/>
<rect x="0.5" y="0.5" width="349" height="151" stroke="#D9D9D9"/>
<defs>
<linearGradient id="paint0_linear_0_1" x1="157.299" y1="52.0963" x2="165.056" y2="63.1119" gradientUnits="userSpaceOnUse">
<stop stop-color="#FA9571"/>
<stop offset="0.847714" stop-color="#FFC839" stop-opacity="0.52"/>
</linearGradient>
<linearGradient id="paint1_linear_0_1" x1="188.855" y1="53.6564" x2="202.099" y2="56.1363" gradientUnits="userSpaceOnUse">
<stop stop-color="#FA9571"/>
<stop offset="0.847714" stop-color="#FFC839" stop-opacity="0.52"/>
</linearGradient>
<linearGradient id="paint2_linear_0_1" x1="168.35" y1="66.2152" x2="178.41" y2="74.1459" gradientUnits="userSpaceOnUse">
<stop stop-color="#FA9571"/>
<stop offset="0.847714" stop-color="#FFC839" stop-opacity="0.52"/>
</linearGradient>
<linearGradient id="paint3_linear_0_1" x1="177.028" y1="66.2152" x2="187.089" y2="74.1459" gradientUnits="userSpaceOnUse">
<stop stop-color="#FA9571"/>
<stop offset="0.847714" stop-color="#FFC839" stop-opacity="0.52"/>
</linearGradient>
<linearGradient id="paint4_linear_0_1" x1="159.138" y1="28.0771" x2="197.288" y2="78.6571" gradientUnits="userSpaceOnUse">
<stop stop-color="#FA9571"/>
<stop offset="0.847714" stop-color="#FFC839" stop-opacity="0.52"/>
</linearGradient>
<linearGradient id="paint5_linear_0_1" x1="175.566" y1="32.5663" x2="183.842" y2="39.9867" gradientUnits="userSpaceOnUse">
<stop stop-color="#FA9571"/>
<stop offset="0.847714" stop-color="#FFC839" stop-opacity="0.52"/>
</linearGradient>
<linearGradient id="paint6_linear_0_1" x1="179.088" y1="33.5429" x2="184.448" y2="40.7941" gradientUnits="userSpaceOnUse">
<stop stop-color="#FA9571"/>
<stop offset="0.847714" stop-color="#FFC839" stop-opacity="0.52"/>
</linearGradient>
<linearGradient id="paint7_linear_0_1" x1="179.896" y1="32.9598" x2="186.597" y2="42.2518" gradientUnits="userSpaceOnUse">
<stop stop-color="#FA9571"/>
<stop offset="0.847714" stop-color="#FFC839" stop-opacity="0.52"/>
</linearGradient>
</defs>
</svg>
