<svg width="167" height="148" viewBox="0 0 167 148" fill="none" xmlns="http://www.w3.org/2000/svg">
<path d="M10.459 134.857H8.94141V147.189H10.459V140.955H12.291V139.684H10.459V134.857ZM0.710938 143.812L1.57227 144.988C5.68066 142.965 7.18457 139.772 7.19141 136.143H1.38086V137.4H5.64648C5.3457 140.217 3.71875 142.309 0.710938 143.812ZM23.1328 135.336H13.9043V136.539H17.4453C17.2471 137.585 15.7432 138.562 13.4258 138.795L13.959 139.984C16.1875 139.745 17.8281 138.843 18.498 137.592C19.168 138.85 20.8223 139.745 23.0508 139.984L23.6113 138.795C21.2598 138.562 19.749 137.592 19.5576 136.539H23.1328V135.336ZM12.8789 142.158H24.1445V140.941H19.25V139.232H17.7461V140.941H12.8789V142.158ZM14.123 144.373H21.2461V147.217H22.7637V143.156H14.123V144.373ZM31.8828 136.143H25.5254V137.359H30.3789C30.3721 138.419 30.3379 139.807 30.0371 141.68L31.541 141.803C31.8828 139.677 31.8828 138.118 31.8828 137.018V136.143ZM24.8691 143.402L25.0195 144.619C27.2002 144.633 30.0303 144.585 32.5801 144.168L32.498 143.033C31.3154 143.177 30.0234 143.266 28.7656 143.32V139.67H27.2617V143.368C26.4141 143.389 25.6006 143.396 24.8691 143.402ZM33.1406 147.217H34.6719V141.174H36.4629V139.889H34.6719V134.857H33.1406V147.217ZM50.1484 134.857H48.6309V142.309H50.1484V139.26H51.8711V137.988H50.1484V134.857ZM40.4141 137.264H47.7422V136.047H44.8438V134.775H43.3262V136.047H40.4141V137.264ZM41.043 139.93C41.043 141.263 42.2734 142.145 44.0781 142.145C45.8623 142.145 47.0928 141.263 47.0996 139.93C47.0928 138.61 45.8691 137.715 44.0781 137.715C42.2734 137.715 41.043 138.61 41.043 139.93ZM42.1641 147.066H50.1484V142.896H42.1641V147.066ZM42.5195 139.93C42.5127 139.26 43.1416 138.863 44.0781 138.863C45.0146 138.863 45.6504 139.26 45.6504 139.93C45.6504 140.62 45.0146 141.01 44.0781 141.01C43.1416 141.01 42.5127 140.62 42.5195 139.93ZM43.668 145.836V144.1H48.6445V145.836H43.668ZM55.5488 136.307H52.7324V137.537H54.2295C54.1406 139.896 53.7373 141.905 52.377 143.826L53.5664 144.469C55.2139 142.035 55.5352 139.226 55.5488 136.307ZM55.166 144.496L56.3281 145.152C57.2373 143.806 57.7363 142.315 58.0029 140.791H59.418V146.629H60.8535V135.158H59.418V139.561H58.167C58.2832 138.467 58.3037 137.366 58.3105 136.307H55.918V137.537H56.998C56.9434 139.984 56.6494 142.37 55.166 144.496ZM61.7832 147.217H63.2461V134.857H61.7832V147.217ZM74.2793 134.857H72.7754V147.217H74.2793V141.037H76.1797V139.779H74.2793V134.857ZM64.5312 137.975H71.8184V136.758H68.9746V135.035H67.457V136.758H64.5312V137.975ZM65.1055 141.693C65.0918 143.396 66.418 144.592 68.2227 144.592C70 144.592 71.3193 143.396 71.3262 141.693C71.3193 139.984 70 138.774 68.2227 138.781C66.418 138.774 65.0918 139.984 65.1055 141.693ZM66.5547 141.693C66.5479 140.688 67.252 140.025 68.2227 140.025C69.1729 140.025 69.8633 140.688 69.877 141.693C69.8633 142.698 69.1729 143.341 68.2227 143.334C67.252 143.341 66.5479 142.698 66.5547 141.693ZM86.707 138.357H79.6523V135.309H78.1484V139.561H86.707V138.357ZM76.6855 142.199H87.9785V140.996H76.6855V142.199ZM78.0391 146.93H86.7891V145.699H79.5566V143.293H78.0391V146.93ZM101.883 134.857H100.352V142.076H101.883V139.137H103.592V137.893H101.883V134.857ZM92.5996 141.297H93.5977C96.3389 141.297 97.7949 141.242 99.3945 140.9L99.2441 139.684C97.7881 139.984 96.4688 140.06 94.1035 140.066V136.963H98.1367V135.732H92.5996V141.297ZM93.666 144.742C93.666 146.301 95.293 147.203 97.8496 147.203C100.386 147.203 101.985 146.301 101.992 144.742C101.985 143.211 100.386 142.309 97.8496 142.309C95.293 142.309 93.666 143.211 93.666 144.742ZM95.1699 144.742C95.1631 143.956 96.1543 143.519 97.8496 143.525C99.5107 143.519 100.509 143.956 100.516 144.742C100.509 145.542 99.5107 145.986 97.8496 145.986C96.1543 145.986 95.1631 145.542 95.1699 144.742ZM114.256 140.326H107.023V135.924H105.506V141.557H107.174V144.414H104.221V145.645H115.514V144.414H112.574V141.557H114.256V140.326ZM108.678 144.414V141.557H111.057V144.414H108.678ZM124.25 136.621V135.445H122.678V136.621C122.685 138.296 121.652 139.937 119.656 140.613L120.422 141.803C121.885 141.304 122.924 140.271 123.478 138.973C124.038 140.183 125.057 141.126 126.479 141.598L127.23 140.395C125.269 139.779 124.243 138.248 124.25 136.621ZM121.502 144.031H128.406V147.217H129.938V142.814H121.502V144.031ZM128.406 142.254H129.938V134.857H128.406V142.254ZM141.49 134.857H139.973V143.799H141.49V139.588H143.227V138.33H141.49V134.857ZM132.262 141.707H133.26C135.96 141.707 137.396 141.632 139.016 141.311L138.852 140.08C137.382 140.388 136.09 140.463 133.766 140.463V137.1H137.799V135.883H132.262V141.707ZM133.574 146.971H141.982V145.74H135.092V142.855H133.574V146.971ZM150.746 135.773H144.443V137.031H149.249C149.235 137.79 149.188 138.74 148.941 140.012L150.445 140.148C150.732 138.583 150.732 137.353 150.746 136.512V135.773ZM143.705 141.133L143.842 142.35C146.009 142.343 148.928 142.295 151.498 141.83L151.416 140.736C150.22 140.907 148.907 141.003 147.629 141.058V138.59H146.125V141.105C145.257 141.119 144.437 141.126 143.705 141.133ZM145.551 146.971H154.096V145.74H147.082V143.293H145.551V146.971ZM152.141 144.113H153.699V139.984H155.299V138.713H153.699V134.857H152.141V144.113ZM166.236 134.857H164.732V147.23H166.236V134.857ZM156.611 137.168H160.891V139.369H156.625V144.305H157.705C159.927 144.312 161.772 144.229 163.871 143.867L163.734 142.623C161.807 142.944 160.132 143.047 158.184 143.061V140.572H162.436V135.938H156.611V137.168Z" fill="#878787"/>
<g clip-path="url(#clip0_0_1)">
<path d="M102.585 11.9099L88.6943 1.13144C86.7354 -0.377147 84.0246 -0.377147 82.0657 1.13144L68.1949 11.9099L53.0974 23.6213C51.7717 24.6535 51 26.2415 51 27.9288V63.3608C51 66.3581 53.4338 68.7996 56.4217 68.7996H114.358C117.346 68.7996 119.78 66.3581 119.78 63.3608V27.9089C119.78 26.2217 119.008 24.6337 117.682 23.6015L102.585 11.8901V11.9099Z" fill="#FF9458"/>
<circle cx="77.2017" cy="42.5776" r="9.82568" fill="white"/>
<circle cx="96.8525" cy="42.5776" r="9.82568" fill="white"/>
<circle cx="80.4779" cy="42.5775" r="3.27523" fill="black"/>
<circle cx="100.129" cy="42.5775" r="3.27523" fill="black"/>
</g>
<g clip-path="url(#clip1_0_1)">
<path d="M54.847 105.625C54.5581 106.898 54.004 107.971 53.1744 108.834C51.9015 110.154 50.3531 110.812 48.5261 110.812C46.699 110.812 45.1506 110.144 43.8777 108.807C43.0582 107.945 42.504 106.882 42.2152 105.625H32.7305C32.9488 107.781 33.4929 109.733 34.3661 111.481C35.5282 113.817 37.1168 115.618 39.1219 116.882C41.127 118.148 43.3471 118.78 45.7854 118.78C47.898 118.78 49.7519 118.352 51.3473 117.497C52.9393 116.641 54.1853 115.518 55.0821 114.128V118.352H64.2712V105.625H54.847Z" fill="black"/>
<path d="M42.3797 100.545C42.6954 99.5553 43.1891 98.7063 43.8776 98.0044C45.1505 96.7043 46.6989 96.0526 48.5259 96.0526C50.353 96.0526 51.9014 96.7143 53.1743 98.0312C53.8494 98.7331 54.3397 99.572 54.6554 100.545H64.2711V96.1061H69.8297V100.545H79.0188V96.1061H85.0375V88.5125H79.0188V81.2397H69.8297V88.5125H55.082V92.7371C54.2222 91.3467 52.9963 90.2237 51.4009 89.3681C49.8056 88.5125 47.9516 88.0847 45.8391 88.0847C43.3671 88.0847 41.1269 88.7097 39.1218 89.9563C37.1167 91.203 35.5315 92.9877 34.366 95.3039C33.5767 96.8781 33.0595 98.6261 32.8076 100.545H42.383H42.3797Z" fill="black"/>
<path d="M81.8097 110.598C80.8055 110.598 80.0901 110.404 79.6602 110.01C79.2303 109.619 79.0154 108.977 79.0154 108.085V105.625H69.8262V107.978C69.8262 111.651 70.7565 114.298 72.6205 115.919C74.4812 117.54 77.0808 118.352 80.4125 118.352H85.0877V110.598H81.8097Z" fill="black"/>
<path d="M143.612 100.544C143.928 99.5551 144.421 98.7061 145.11 98.0043C146.383 96.7041 147.931 96.0524 149.758 96.0524C151.585 96.0524 153.134 96.7142 154.407 98.031C155.082 98.7329 155.572 99.5718 155.888 100.544H165.504V88.5123H156.314V92.7369C155.455 91.3465 154.225 90.2235 152.633 89.3679C151.038 88.5123 149.184 88.0845 147.071 88.0845C144.599 88.0845 142.359 88.7095 140.354 89.9561C138.349 91.2028 136.76 92.9875 135.598 95.3037C134.809 96.8779 134.289 98.6259 134.037 100.544H143.612Z" fill="black"/>
<path d="M112.075 100.544C112.39 99.5552 112.884 98.7063 113.572 98.0044C114.845 96.7043 116.394 96.0525 118.221 96.0525C120.048 96.0525 121.596 96.7143 122.869 98.0311C123.544 98.733 124.035 99.5719 124.35 100.544H133.966V78.7798H124.777V92.6301C123.843 91.2397 122.563 90.1367 120.935 89.3145C119.306 88.4957 117.505 88.0846 115.534 88.0846C113.062 88.0846 110.822 88.7096 108.817 89.9563C106.812 91.2029 105.226 92.9877 104.061 95.3039C103.272 96.878 102.754 98.626 102.502 100.544H112.078H112.075Z" fill="black"/>
<path d="M156.079 105.625C155.79 106.898 155.236 107.971 154.407 108.833C153.134 110.153 151.585 110.812 149.758 110.812C147.931 110.812 146.383 110.143 145.11 108.806C144.291 107.944 143.736 106.881 143.448 105.625H124.545C124.256 106.898 123.702 107.971 122.873 108.833C121.6 110.153 120.051 110.812 118.224 110.812C116.397 110.812 114.849 110.143 113.576 108.806C112.756 107.944 112.202 106.881 111.913 105.625H102.429C102.647 107.78 103.191 109.732 104.064 111.48C105.226 113.816 106.815 115.618 108.82 116.881C110.825 118.148 113.065 118.78 115.537 118.78C117.65 118.78 119.504 118.352 121.099 117.496C122.695 116.641 123.921 115.501 124.78 114.074V118.352H133.969V105.655C134.191 107.8 134.735 109.742 135.602 111.48C136.764 113.816 138.352 115.618 140.358 116.881C142.363 118.148 144.583 118.78 147.021 118.78C149.134 118.78 150.988 118.352 152.583 117.496C154.178 116.641 155.421 115.518 156.318 114.127V118.352H165.507V105.625H156.083H156.079Z" fill="black"/>
<path d="M3.16121 105.625H23.9578C23.8167 107.48 23.2155 108.897 22.1576 109.876C21.0996 110.859 19.8032 111.347 18.2616 111.347C15.971 111.347 14.3756 110.384 13.4789 108.459H3.69859C4.20239 110.421 5.10585 112.186 6.41236 113.753C7.72222 115.321 9.35786 116.554 11.3294 117.443C13.3009 118.336 15.5041 118.78 17.9391 118.78C20.8779 118.78 23.4943 118.158 25.7849 116.908C28.0788 115.662 29.8689 113.88 31.1587 111.561C32.4484 109.245 33.0932 106.534 33.0932 103.433C33.0932 100.331 32.4584 97.6237 31.1855 95.3042C29.916 92.988 28.1325 91.2033 25.8386 89.9566C23.548 88.71 20.9115 88.085 17.9391 88.085C14.9668 88.085 12.4579 88.6899 10.2009 89.9031C7.94389 91.1164 6.18061 92.8443 4.90769 95.0903C3.63478 97.3363 3 99.9566 3 102.951C3 103.807 3.05374 104.699 3.16121 105.625ZM12.4041 100.545C12.4041 98.9773 12.9415 97.7273 14.0163 96.8015C15.091 95.8757 16.4345 95.4112 18.0466 95.4112C19.6587 95.4112 20.8846 95.8557 21.9426 96.7481C23.0006 97.6404 23.6555 98.9072 23.904 100.545H12.4041Z" fill="#FF9458"/>
<rect x="30" y="100" width="136" height="6" fill="#FF9458"/>
</g>
<defs>
<clipPath id="clip0_0_1">
<rect width="68.7798" height="68.7798" fill="white" transform="translate(51)"/>
</clipPath>
<clipPath id="clip1_0_1">
<rect width="162.5" height="40" fill="white" transform="translate(3 78.7798)"/>
</clipPath>
</defs>
</svg>
