<svg width="184" height="194" viewBox="0 0 184 194" fill="none" xmlns="http://www.w3.org/2000/svg">
<path fill-rule="evenodd" clip-rule="evenodd" d="M35.3994 116.34C35.368 116.41 35.3357 116.479 35.3027 116.547L35.3054 116.548L25.6987 143.018C25.5406 143.627 25.3288 144.232 25.0612 144.825C25.0334 144.887 25.005 144.948 24.9761 145.009L24.9675 145.033L24.9653 145.032C22.3506 150.533 15.8019 152.953 10.2247 150.437C4.64741 147.921 2.12753 141.41 4.52057 135.81L4.51859 135.809L4.52957 135.789C4.55655 135.726 4.58416 135.663 4.61238 135.601C4.88032 135.007 5.19358 134.447 5.54623 133.925L19.0298 109.207L19.0323 109.208C19.0619 109.138 19.0923 109.068 19.1238 108.998C21.1512 104.504 26.4381 102.504 30.9325 104.531C35.4269 106.558 37.4268 111.845 35.3994 116.34Z" fill="white"/>
<path fill-rule="evenodd" clip-rule="evenodd" d="M35.3994 116.34C35.368 116.41 35.3357 116.479 35.3027 116.547L35.3054 116.548L25.6987 143.018C25.5406 143.627 25.3288 144.232 25.0612 144.825C25.0334 144.887 25.005 144.948 24.9761 145.009L24.9675 145.033L24.9653 145.032C22.3506 150.533 15.8019 152.953 10.2247 150.437C4.64741 147.921 2.12753 141.41 4.52057 135.81L4.51859 135.809L4.52957 135.789C4.55655 135.726 4.58416 135.663 4.61238 135.601C4.88032 135.007 5.19358 134.447 5.54623 133.925L19.0298 109.207L19.0323 109.208C19.0619 109.138 19.0923 109.068 19.1238 108.998C21.1512 104.504 26.4381 102.504 30.9325 104.531C35.4269 106.558 37.4268 111.845 35.3994 116.34Z" fill="url(#paint0_linear_722_2673)" fill-opacity="0.6"/>
<path fill-rule="evenodd" clip-rule="evenodd" d="M167.621 109.092C167.648 109.164 167.673 109.236 167.697 109.308L167.699 109.307L179.283 134.969C179.596 135.517 179.866 136.098 180.089 136.711C180.112 136.776 180.135 136.841 180.158 136.906L180.167 136.926L180.165 136.927C182.129 142.692 179.126 148.994 173.375 151.083C167.625 153.172 161.277 150.266 159.084 144.584L159.081 144.585L159.074 144.56C159.05 144.497 159.027 144.434 159.004 144.37C158.781 143.758 158.616 143.14 158.504 142.521L150.917 115.403L150.92 115.402C150.892 115.331 150.865 115.26 150.839 115.188C149.156 110.553 151.548 105.432 156.182 103.749C160.817 102.065 165.938 104.458 167.621 109.092Z" fill="white"/>
<path fill-rule="evenodd" clip-rule="evenodd" d="M167.621 109.092C167.648 109.164 167.673 109.236 167.697 109.308L167.699 109.307L179.283 134.969C179.596 135.517 179.866 136.098 180.089 136.711C180.112 136.776 180.135 136.841 180.158 136.906L180.167 136.926L180.165 136.927C182.129 142.692 179.126 148.994 173.375 151.083C167.625 153.172 161.277 150.266 159.084 144.584L159.081 144.585L159.074 144.56C159.05 144.497 159.027 144.434 159.004 144.37C158.781 143.758 158.616 143.14 158.504 142.521L150.917 115.403L150.92 115.402C150.892 115.331 150.865 115.26 150.839 115.188C149.156 110.553 151.548 105.432 156.182 103.749C160.817 102.065 165.938 104.458 167.621 109.092Z" fill="url(#paint1_linear_722_2673)" fill-opacity="0.6"/>
<rect x="64.8477" y="154.667" width="23.3874" height="39.3333" rx="11.6937" fill="white"/>
<rect x="64.8477" y="154.667" width="23.3874" height="39.3333" rx="11.6937" fill="url(#paint2_linear_722_2673)" fill-opacity="0.5"/>
<rect x="98.334" y="154.667" width="23.3874" height="39.3333" rx="11.6937" fill="white"/>
<rect x="98.334" y="154.667" width="23.3874" height="39.3333" rx="11.6937" fill="url(#paint3_linear_722_2673)" fill-opacity="0.5"/>
<circle cx="93.2822" cy="92.4209" r="75.4209" fill="white"/>
<circle cx="93.2822" cy="92.4209" r="75.4209" fill="url(#paint4_linear_722_2673)" fill-opacity="0.5"/>
<path d="M67.0605 113.674C72.5024 113.674 76.914 106.271 76.914 97.1385C76.914 88.0065 72.5024 80.6035 67.0605 80.6035C61.6186 80.6035 57.207 88.0065 57.207 97.1385C57.207 106.271 61.6186 113.674 67.0605 113.674Z" fill="#FA9571"/>
<path d="M65.0842 93.436C66.5163 93.436 67.6772 92.2751 67.6772 90.843C67.6772 89.4109 66.5163 88.25 65.0842 88.25C63.6521 88.25 62.4912 89.4109 62.4912 90.843C62.4912 92.2751 63.6521 93.436 65.0842 93.436Z" fill="white"/>
<path d="M120.08 113.674C125.522 113.674 129.933 106.271 129.933 97.1385C129.933 88.0065 125.522 80.6035 120.08 80.6035C114.638 80.6035 110.227 88.0065 110.227 97.1385C110.227 106.271 114.638 113.674 120.08 113.674Z" fill="#FA9571"/>
<path d="M93.1319 132.717C97.1786 132.717 100.459 128.84 100.459 124.058C100.459 119.275 97.1786 115.398 93.1319 115.398C89.0852 115.398 85.8047 119.275 85.8047 124.058C85.8047 128.84 89.0852 132.717 93.1319 132.717Z" fill="#FA9571"/>
<path d="M118.692 93.436C120.124 93.436 121.285 92.2751 121.285 90.843C121.285 89.4109 120.124 88.25 118.692 88.25C117.26 88.25 116.099 89.4109 116.099 90.843C116.099 92.2751 117.26 93.436 118.692 93.436Z" fill="white"/>
<rect x="93.6523" y="23.2969" width="12.687" height="21.3372" rx="6.34349" transform="rotate(162.025 93.6523 23.2969)" fill="white"/>
<rect x="93.6523" y="23.2969" width="12.687" height="21.3372" rx="6.34349" transform="rotate(162.025 93.6523 23.2969)" fill="url(#paint5_linear_722_2673)" fill-opacity="0.5"/>
<rect x="107.242" y="27.0654" width="12.687" height="21.3372" rx="6.34349" transform="rotate(-164.789 107.242 27.0654)" fill="white"/>
<rect x="107.242" y="27.0654" width="12.687" height="21.3372" rx="6.34349" transform="rotate(-164.789 107.242 27.0654)" fill="url(#paint6_linear_722_2673)" fill-opacity="0.5"/>
<rect x="101" y="26" width="13" height="26" rx="6.5" transform="rotate(-180 101 26)" fill="white"/>
<rect x="101" y="26" width="13" height="26" rx="6.5" transform="rotate(-180 101 26)" fill="url(#paint7_linear_722_2673)" fill-opacity="0.5"/>
<defs>
<linearGradient id="paint0_linear_722_2673" x1="24.3065" y1="96.8386" x2="54.2397" y2="139.342" gradientUnits="userSpaceOnUse">
<stop stop-color="#FA9571"/>
<stop offset="0.847714" stop-color="#FFC839" stop-opacity="0.52"/>
</linearGradient>
<linearGradient id="paint1_linear_722_2673" x1="146.069" y1="102.861" x2="197.167" y2="112.427" gradientUnits="userSpaceOnUse">
<stop stop-color="#FA9571"/>
<stop offset="0.847714" stop-color="#FFC839" stop-opacity="0.52"/>
</linearGradient>
<linearGradient id="paint2_linear_722_2673" x1="66.9469" y1="151.318" x2="105.766" y2="181.92" gradientUnits="userSpaceOnUse">
<stop stop-color="#FA9571"/>
<stop offset="0.847714" stop-color="#FFC839" stop-opacity="0.52"/>
</linearGradient>
<linearGradient id="paint3_linear_722_2673" x1="100.433" y1="151.318" x2="139.253" y2="181.92" gradientUnits="userSpaceOnUse">
<stop stop-color="#FA9571"/>
<stop offset="0.847714" stop-color="#FFC839" stop-opacity="0.52"/>
</linearGradient>
<linearGradient id="paint4_linear_722_2673" x1="31.4008" y1="4.15787" x2="178.611" y2="199.328" gradientUnits="userSpaceOnUse">
<stop stop-color="#FA9571"/>
<stop offset="0.847714" stop-color="#FFC839" stop-opacity="0.52"/>
</linearGradient>
<linearGradient id="paint5_linear_722_2673" x1="94.7911" y1="21.4803" x2="126.728" y2="50.113" gradientUnits="userSpaceOnUse">
<stop stop-color="#FA9571"/>
<stop offset="0.847714" stop-color="#FFC839" stop-opacity="0.52"/>
</linearGradient>
<linearGradient id="paint6_linear_722_2673" x1="108.381" y1="25.2489" x2="129.062" y2="53.2286" gradientUnits="userSpaceOnUse">
<stop stop-color="#FA9571"/>
<stop offset="0.847714" stop-color="#FFC839" stop-opacity="0.52"/>
</linearGradient>
<linearGradient id="paint7_linear_722_2673" x1="111.5" y1="23" x2="137.356" y2="58.8545" gradientUnits="userSpaceOnUse">
<stop stop-color="#FA9571"/>
<stop offset="0.847714" stop-color="#FFC839" stop-opacity="0.52"/>
</linearGradient>
</defs>
</svg>
