<svg width="361" height="152" viewBox="0 0 361 152" fill="none" xmlns="http://www.w3.org/2000/svg">
<path d="M49.9972 115.875V110.91H48.7113V123.16H49.9972V116.953H51.9599V115.875H49.9972ZM43.4081 111.07V112.829H40.3867V113.888H47.643V112.829H44.7037V111.07H43.4081ZM44.0656 114.792C42.2963 114.792 41.0104 115.972 41.0152 117.644C41.0104 119.322 42.2963 120.487 44.0656 120.492C45.8156 120.487 47.1015 119.322 47.1064 117.644C47.1015 115.972 45.8156 114.792 44.0656 114.792ZM44.0656 119.409C43.0166 119.414 42.2479 118.703 42.2576 117.644C42.2479 116.59 43.0166 115.865 44.0656 115.865C45.1001 115.865 45.8591 116.59 45.8688 117.644C45.8591 118.703 45.1001 119.414 44.0656 119.409ZM55.2709 117.432V115.662H62.1017V114.628H55.2709V112.984H62.3724V111.921H53.9608V118.476H62.4933V117.432H55.2709ZM52.554 121.623H63.7647V120.55H52.554V121.623ZM66.0749 113.023V115.725H74.646V114.811H67.3608V113.878H74.4333V111.229H66.0411V112.143H73.1378V113.023H66.0749ZM64.6343 117.528H75.8449V116.532H64.6343V117.528ZM74.4672 121.086V118.384H65.9637V119.322H73.1813V120.221H65.9782V123.015H74.8491V122.097H67.2738V121.086H74.4672ZM82.8881 114.942V111.51H81.5925V115.991H90.1056V114.942H82.8881ZM80.1712 117.693V118.766H85.0732V123.16H86.3639V118.766H91.3819V117.693H80.1712ZM93.6341 114.589V118.476H102.394V117.441H94.9248V115.638H102.109V111.809H93.6099V112.868H100.827V114.589H93.6341ZM92.2708 121.662H103.481V120.588H92.2708V121.662ZM113.285 116.677V119.849H114.58V110.92H113.285V112.994H110.611V111.954H104.922V117.756H110.611V116.677H113.285ZM106.207 116.726V113.003H109.34V116.726H106.207ZM113.285 115.624H110.611V114.062H113.285V115.624ZM107.89 119.037H106.58V122.909H114.856V121.845H107.89V119.037ZM129.431 115.793V110.91H128.13V123.146H129.431V116.881H131.331V115.793H129.431ZM120.507 112.206V113.279H124.906C124.63 116.136 122.967 118.35 119.893 119.883L120.618 120.888C124.655 118.901 126.216 115.74 126.226 112.206H120.507ZM133.041 115.948C135.154 115.701 136.894 114.802 137.562 113.492C138.229 114.802 139.983 115.701 142.101 115.948L142.584 114.918C140.317 114.681 138.562 113.656 138.437 112.438H142.149V111.394H133.008V112.438H136.696C136.566 113.651 134.811 114.681 132.573 114.918L133.041 115.948ZM138.2 115.232H136.923V117.006H131.988V118.055H143.174V117.006H138.2V115.232ZM140.477 120.202V123.16H141.782V119.157H133.225V120.202H140.477ZM146.838 113.994V112.312H153.819V111.273H145.542V115.039H153.935V113.994H146.838ZM144.087 116.972H155.269V115.933H144.087V116.972ZM153.838 120.903V117.934H145.417V118.935H152.562V119.945H145.441V123.03H154.191V122H146.712V120.903H153.838ZM168.838 115.812H167.277V111.162H166.059V122.532H167.277V116.89H168.838V123.16H170.095V110.91H168.838V115.812ZM161.476 112.356H160.175V120.047H160.968C162.288 120.047 163.69 119.965 165.372 119.66L165.227 118.529C163.84 118.8 162.607 118.887 161.476 118.906V112.356ZM183.984 110.92V119.825H185.284V110.92H183.984ZM178.632 117.828C180.479 117.833 181.886 116.581 181.886 114.782C181.886 113.008 180.479 111.751 178.632 111.751C176.785 111.751 175.369 113.008 175.369 114.782C175.369 116.581 176.785 117.833 178.632 117.828ZM176.64 114.782C176.631 113.651 177.491 112.883 178.632 112.883C179.754 112.883 180.614 113.651 180.614 114.782C180.614 115.933 179.754 116.697 178.632 116.697C177.491 116.697 176.631 115.933 176.64 114.782ZM178.574 118.921H177.269V122.909H185.642V121.845H178.574V118.921ZM196.098 123.16H197.403V110.91H196.098V123.16ZM187.933 112.23V113.265H192.438C192.182 116.122 190.596 118.331 187.338 119.878L188.024 120.927C192.23 118.921 193.753 115.812 193.763 112.23H187.933ZM212.012 123.16H213.244V110.91H212.012V123.16ZM208.057 115.247V116.305H209.508V122.527H210.731V111.186H209.508V115.247H208.057ZM204.378 116.59H207.487V112.225H203.107V113.284H206.24V115.546H203.126V120.187H203.958C205.505 120.182 206.902 120.148 208.599 119.839L208.497 118.776C206.984 119.041 205.722 119.095 204.378 119.104V116.59ZM223.681 123.184H224.986V110.91H223.681V123.184ZM219.335 111.93H218.03V114.028C218.02 116.368 216.667 118.708 214.738 119.568L215.54 120.651C217.005 119.941 218.131 118.456 218.697 116.663C219.272 118.34 220.384 119.718 221.791 120.39L222.574 119.356C220.674 118.519 219.325 116.267 219.335 114.028V111.93ZM235.814 123.16H237.12V110.91H235.814V123.16ZM232.933 113.231H234.214V112.167H227.239V113.231H228.524V119.099C227.959 119.109 227.417 119.109 226.915 119.109L227.055 120.197C229.312 120.187 232.227 120.144 234.877 119.723L234.809 118.756C234.205 118.829 233.571 118.887 232.933 118.93V113.231ZM231.662 113.231V119.008C231.029 119.041 230.395 119.061 229.781 119.075V113.231H231.662ZM240.46 113.023V115.725H249.031V114.811H241.746V113.878H248.818V111.229H240.426V112.143H247.523V113.023H240.46ZM239.019 117.528H250.23V116.532H239.019V117.528ZM248.852 121.086V118.384H240.348V119.322H247.566V120.221H240.363V123.015H249.234V122.097H241.659V121.086H248.852ZM260.773 118.055H264.437V111.747H263.146V113.859H257.133V111.747H255.832V118.055H259.487V120.569H254.556V121.642H265.767V120.569H260.773V118.055ZM263.146 114.903V117.001H257.133V114.903H263.146ZM275.584 113.574H272.549C272.007 112.467 271.093 111.834 269.977 111.829C268.145 111.834 266.859 113.501 266.868 116.126C266.859 118.766 268.145 120.434 269.977 120.434C271.161 120.434 272.118 119.718 272.64 118.485H275.584V123.184H276.87V110.91H275.584V113.574ZM269.977 119.269C268.865 119.269 268.106 118.07 268.106 116.126C268.106 114.198 268.865 112.999 269.977 112.989C271.079 112.999 271.843 114.198 271.843 116.126C271.843 118.07 271.079 119.269 269.977 119.269ZM272.955 117.427C273.027 117.026 273.071 116.59 273.071 116.126C273.071 115.59 273.017 115.092 272.916 114.642H275.584V117.427H272.955ZM281.429 116.726V113.076H288.569V112.012H280.147V117.785H288.675V116.726H281.429ZM278.755 121.546H289.966V120.468H278.755V121.546ZM299.769 113.642H297.439V114.715H299.769V116.977H297.371V118.06H299.769V123.184H301.055V110.91H299.769V113.642ZM292.595 116.465H296.699V111.993H291.271V113.047H295.428V115.435H291.309V120.361H292.233C294.166 120.361 295.733 120.303 297.652 120.003L297.541 118.93C295.791 119.196 294.326 119.269 292.595 119.278V116.465ZM311.477 117.33C312.463 116.774 313.058 115.909 313.058 114.826C313.058 112.897 311.163 111.631 308.528 111.621C305.903 111.631 304.013 112.897 304.013 114.826C304.013 115.923 304.627 116.803 305.637 117.354V120.559H302.954V121.633H314.165V120.559H311.477V117.33ZM308.528 112.67C310.438 112.66 311.791 113.501 311.791 114.826C311.791 116.136 310.438 116.992 308.528 116.992C306.609 116.992 305.275 116.136 305.275 114.826C305.275 113.501 306.609 112.66 308.528 112.67ZM306.914 117.833C307.407 117.944 307.948 118.007 308.528 118.007C309.113 118.007 309.664 117.944 310.167 117.828V120.559H306.914V117.833ZM315.711 112.099L315.837 119.148H317.186L317.312 112.099H315.711ZM316.514 122.092C317.041 122.092 317.481 121.657 317.486 121.125C317.481 120.593 317.041 120.158 316.514 120.158C315.982 120.158 315.537 120.593 315.547 121.125C315.537 121.657 315.982 122.092 316.514 122.092Z" fill="#BEBEBE"/>
<rect x="0.5" y="0.5" width="360" height="151" stroke="#D9D9D9"/>
<path d="M238.254 58.4908C238.254 71.8586 227.999 79.0647 215.349 79.0647C202.699 79.0647 192.444 71.8586 192.444 58.4908C192.444 45.1229 202.699 34.2861 215.349 34.2861C227.999 34.2861 238.254 45.1229 238.254 58.4908Z" fill="url(#paint0_radial_0_1)"/>
<path d="M238.254 58.4908C238.254 71.8586 227.999 79.0647 215.349 79.0647C202.699 79.0647 192.444 71.8586 192.444 58.4908C192.444 45.1229 202.699 34.2861 215.349 34.2861C227.999 34.2861 238.254 45.1229 238.254 58.4908Z" fill="url(#paint1_linear_0_1)" fill-opacity="0.2"/>
<ellipse rx="4.67402" ry="6.39759" transform="matrix(-0.990967 0.134107 0.134107 0.990967 220.058 61.2215)" fill="#F1F8FF"/>
<ellipse cx="210.263" cy="61.5082" rx="5.23334" ry="5.53702" transform="rotate(7.70697 210.263 61.5082)" fill="#F1F8FF"/>
<ellipse cx="212.714" cy="60.5693" rx="1.60332" ry="1.88963" fill="#252121"/>
<ellipse rx="1.31702" ry="2.17594" transform="matrix(-1 0 0 1 218.155 60.3976)" fill="#252121"/>
<path d="M211.446 55.5595C209.577 57.469 206.816 57.1341 205.399 56.2843C205.22 56.177 205.303 55.9751 205.51 56.0038C206.224 56.1029 207.419 56.2329 209.164 55.7861C211.359 55.224 212.297 53.5236 212.336 52.4914C212.343 52.2832 212.535 52.1513 212.611 52.345C212.87 52.9993 212.698 54.2803 211.446 55.5595Z" fill="#AE8E8B"/>
<path d="M222.658 53.3034C224.811 54.3164 225.114 57.2259 224.973 59.1127C224.955 59.3552 224.752 59.3535 224.722 59.1122C224.635 58.4138 224.454 57.4424 223.903 56.3008C222.866 54.1555 220.434 53.6673 219.045 53.9366C218.825 53.9793 218.683 53.7915 218.868 53.6643C219.66 53.1181 221.211 52.6222 222.658 53.3034Z" fill="#AE8E8B"/>
<path d="M211.394 73.6752L211.11 70.5898L215.248 70.7296V73.9315C215.248 74.3458 214.884 74.6659 214.473 74.613L211.991 74.2938C211.672 74.2527 211.424 73.9957 211.394 73.6752Z" fill="#FFFCF3"/>
<path d="M219.18 73.5023L219.471 70.5898L215.29 70.6723L215.467 73.8726C215.486 74.2104 215.791 74.4585 216.126 74.4071L218.697 74.0115C218.956 73.9718 219.154 73.7623 219.18 73.5023Z" fill="#FFFCF3"/>
<ellipse cx="218.04" cy="60.112" rx="0.400831" ry="0.515354" fill="white"/>
<circle cx="212.772" cy="60.112" r="0.515354" fill="white"/>
<path d="M215.274 70.4622L223.251 70.0176L222.736 70.4622L215.274 71.2773L208.648 70.4622L208.134 70.0176L215.274 70.4622Z" fill="#BC7C7C"/>
<path d="M214.265 67.8716C214.124 67.6089 213.326 67.7621 212.944 67.8716C212.592 68.1998 213.12 68.5282 213.648 68.5282C214.177 68.5282 214.441 68.1999 214.265 67.8716Z" fill="#F2B5A8"/>
<path d="M227.781 66.9348C227.651 66.7097 226.914 66.841 226.562 66.9348C226.237 67.2162 226.725 67.4977 227.212 67.4977C227.7 67.4977 227.944 67.2162 227.781 66.9348Z" fill="#F2B5A8"/>
<path d="M203.475 66.5318C203.533 66.2385 204.304 66.1867 204.683 66.1975C205.094 66.4304 204.7 66.8863 204.217 67.0201C203.734 67.1538 203.403 66.8985 203.475 66.5318Z" fill="#F2B5A8"/>
<path d="M217.119 67.9541C217.254 67.6787 217.461 67.6871 217.828 67.8019C218.194 67.9166 218.218 68.6427 217.711 68.6427C217.204 68.6427 216.95 68.2984 217.119 67.9541Z" fill="#F2B5A8"/>
<path d="M215.461 67.2188C215.692 67.2323 215.649 66.9129 215.599 66.7515C215.365 66.5477 215.041 66.6554 214.986 66.8423C214.931 67.0292 215.173 67.2019 215.461 67.2188Z" fill="#F2B5A8"/>
<path d="M216.267 69.1469C216.412 69.1554 216.457 68.9439 216.353 68.8529C216.206 68.7247 215.968 68.7711 215.968 68.9101C215.968 69.0326 216.086 69.1363 216.267 69.1469Z" fill="#F2B5A8"/>
<path d="M205.454 65.0552C205.596 65.0247 205.583 64.8088 205.459 64.7489C205.283 64.6644 205.066 64.7728 205.103 64.9068C205.136 65.0249 205.277 65.0933 205.454 65.0552Z" fill="#F2B5A8"/>
<path d="M210.752 68.8129C210.897 68.8214 210.942 68.6099 210.838 68.5189C210.692 68.3907 210.453 68.4371 210.453 68.5761C210.453 68.6986 210.571 68.8023 210.752 68.8129Z" fill="#F2B5A8"/>
<path d="M205.985 68.2459C206.193 68.2012 206.175 67.885 205.992 67.7972C205.735 67.6735 205.416 67.8323 205.471 68.0284C205.519 68.2014 205.725 68.3017 205.985 68.2459Z" fill="#F2B5A8"/>
<path d="M227.294 65.3022C227.439 65.3107 227.484 65.0992 227.38 65.0082C227.234 64.88 226.995 64.9264 226.995 65.0653C226.995 65.1879 227.113 65.2916 227.294 65.3022Z" fill="#F2B5A8"/>
<path d="M223.786 67.8071C223.931 67.8156 223.977 67.604 223.873 67.5131C223.726 67.3849 223.487 67.4313 223.487 67.5702C223.487 67.6928 223.605 67.7964 223.786 67.8071Z" fill="#F2B5A8"/>
<path d="M225.951 64.9627C226.16 64.9223 226.195 64.5625 225.951 64.4502C225.61 64.2942 225.373 64.4732 225.423 64.671C225.467 64.8454 225.689 65.0131 225.951 64.9627Z" fill="#F2B5A8"/>
<path d="M186.073 57.2598C187.504 53.9629 191.535 54.8025 192.677 56.0824L194.035 66.877C188.177 68.0182 184.13 61.7317 186.073 57.2598Z" fill="#FFC9BA"/>
<path d="M243.927 57.2598C242.496 53.9629 238.465 54.8025 237.323 56.0824L235.965 66.877C241.823 68.0182 245.87 61.7317 243.927 57.2598Z" fill="#FFC3B3"/>
<path d="M217.296 64.1772C217.296 65.1892 216.475 66.0096 215.463 66.0096C214.451 66.0096 213.631 65.1892 213.631 64.1772C213.631 63.1652 214.451 61.8867 215.463 61.8867C216.475 61.8867 217.296 63.1652 217.296 64.1772Z" fill="#E6AEAE"/>
<path d="M211.57 38.753C208.325 41.393 207.544 49.5507 207.45 51.0897C212.19 49.3058 213.746 46.8056 213.287 45.3953L211.57 38.753Z" fill="#5C4643"/>
<path d="M223.66 44.1594C220.402 52.5745 211.263 52.5745 208.058 52.0556C213.163 49.0457 213.729 40.5665 216.511 41.8072L223.66 44.1594Z" fill="#5C4643"/>
<path d="M203.782 32.5682C210.791 29.728 214.605 31.3848 215.635 32.5682C227.958 26.8879 239.572 40.9857 240.601 47.9716C240.964 50.4338 240.659 55.4385 236.536 55.7592C232.413 56.0798 229.703 52.9152 228.863 51.2927C229.321 53.629 230.924 55.2438 231.668 55.7592C225.301 54.6139 221.762 50.3575 220.789 48.3724H216.208L211.226 47.2272V40.4703C210.787 42.9516 209.05 48.7389 205.614 52.0371C201.32 56.16 191.814 58.794 188.894 53.4114C185.974 48.0288 195.021 36.1184 203.782 32.5682Z" fill="#5C4643"/>
<path d="M188.256 58.2465C189.24 55.9802 192.01 56.5574 192.796 57.4371L193.729 64.8572C189.702 65.6417 186.921 61.3204 188.256 58.2465Z" fill="#FEB9A7"/>
<path d="M242.813 58.2465C241.828 55.9802 239.058 56.5574 238.273 57.4371L237.339 64.8572C241.366 65.6417 244.148 61.3204 242.813 58.2465Z" fill="#FEB9A7"/>
<circle cx="149.072" cy="55.8108" r="24.6702" fill="url(#paint2_radial_0_1)"/>
<circle cx="149.072" cy="55.8108" r="24.6702" fill="url(#paint3_linear_0_1)" fill-opacity="0.2"/>
<ellipse cx="144.062" cy="59.7465" rx="4.64029" ry="6.59195" transform="rotate(7.70697 144.062 59.7465)" fill="white"/>
<ellipse rx="5.05517" ry="6.59195" transform="matrix(-0.990967 0.134107 0.134107 0.990967 153.761 59.6908)" fill="white"/>
<ellipse rx="1.04848" ry="1.17183" transform="matrix(-1 0 0 1 153.697 59.6962)" fill="black"/>
<ellipse rx="1.04848" ry="1.11016" transform="matrix(-1 0 0 1 146.789 59.6678)" fill="black"/>
<path d="M156.941 50.1509C153.304 48.8365 150.859 51.1192 149.932 52.9731C149.843 53.1521 150.006 53.3266 150.175 53.219C150.924 52.7413 151.346 51.6366 153.815 50.6499C158.091 48.9403 159.492 55.219 159.728 57.4469C159.751 57.6699 159.924 57.7035 159.95 57.4808C160.159 55.7514 159.406 51.0414 156.941 50.1509Z" fill="#AE8E8B"/>
<path d="M156.941 50.1509C153.304 48.8365 150.859 51.1192 149.932 52.9731C149.843 53.1521 150.006 53.3266 150.175 53.219C150.924 52.7413 151.346 51.6366 153.815 50.6499C158.091 48.9403 159.492 55.219 159.728 57.4469C159.751 57.6699 159.924 57.7035 159.95 57.4808C160.159 55.7514 159.406 51.0414 156.941 50.1509Z" fill="black" fill-opacity="0.2"/>
<path d="M156.941 50.1509C153.304 48.8365 150.859 51.1192 149.932 52.9731C149.843 53.1521 150.006 53.3266 150.175 53.219C150.924 52.7413 151.346 51.6366 153.815 50.6499C158.091 48.9403 159.492 55.219 159.728 57.4469C159.751 57.6699 159.924 57.7035 159.95 57.4808C160.159 55.7514 159.406 51.0414 156.941 50.1509Z" fill="black" fill-opacity="0.2"/>
<path d="M145.471 49.8859C141.651 49.2007 139.177 53.0724 138.52 55.2266C138.462 55.4181 138.641 55.5435 138.768 55.3886C139.512 54.481 139.907 52.0807 142.364 50.9254C145.201 49.5915 147.389 51.498 148.223 52.7141C148.327 52.8661 148.548 52.8672 148.582 52.6862C148.745 51.8292 148.055 50.3493 145.471 49.8859Z" fill="#AE8E8B"/>
<path d="M145.471 49.8859C141.651 49.2007 139.177 53.0724 138.52 55.2266C138.462 55.4181 138.641 55.5435 138.768 55.3886C139.512 54.481 139.907 52.0807 142.364 50.9254C145.201 49.5915 147.389 51.498 148.223 52.7141C148.327 52.8661 148.548 52.8672 148.582 52.6862C148.745 51.8292 148.055 50.3493 145.471 49.8859Z" fill="black" fill-opacity="0.2"/>
<path d="M145.471 49.8859C141.651 49.2007 139.177 53.0724 138.52 55.2266C138.462 55.4181 138.641 55.5435 138.768 55.3886C139.512 54.481 139.907 52.0807 142.364 50.9254C145.201 49.5915 147.389 51.498 148.223 52.7141C148.327 52.8661 148.548 52.8672 148.582 52.6862C148.745 51.8292 148.055 50.3493 145.471 49.8859Z" fill="black" fill-opacity="0.2"/>
<path d="M143.251 72.1002C142.961 72.0454 143.051 71.8958 143.161 71.7412C142.347 72.1482 142.224 72.9942 142.632 73.0178C143.321 73.0575 146.965 76.3868 151.18 75.3324C156.006 74.1249 159.521 67.9099 158.384 67.6857L157.655 67.4157L157.655 68.1174C157.459 68.7959 156.068 73.4302 151.18 74.9006C147.258 76.0806 143.799 72.2043 143.251 72.1002Z" fill="#CC6767"/>
<path d="M157.512 67.2492C157.48 67.2207 157.143 66.7637 157.168 66.749C157.036 66.7505 156.724 67.2924 156.773 67.3247C156.857 67.3792 157.616 67.7232 158.222 67.8684C158.916 68.0348 159.896 67.372 159.769 67.2589L159.688 67.1157L159.514 67.0616C159.368 67.0885 159.051 67.7305 158.33 67.598C157.752 67.4917 157.574 67.3032 157.512 67.2492Z" fill="#CC6767"/>
<path d="M150.369 32.6542C150.218 32.3714 149.358 32.5364 148.947 32.6542C148.568 33.0078 149.137 33.3615 149.706 33.3615C150.274 33.3615 150.559 33.0078 150.369 32.6542Z" fill="#F2B5A8"/>
<path d="M148.075 34.878C147.935 34.6356 147.141 34.777 146.762 34.878C146.412 35.1811 146.937 35.4842 147.462 35.4842C147.987 35.4842 148.25 35.1811 148.075 34.878Z" fill="#F2B5A8"/>
<path d="M139.053 35.8023C139.115 35.4863 139.946 35.4305 140.354 35.4421C140.797 35.693 140.373 36.1841 139.852 36.3281C139.332 36.4722 138.976 36.1972 139.053 35.8023Z" fill="#F2B5A8"/>
<path d="M156.282 37.0595C156.428 36.7629 156.651 36.772 157.045 36.8956C157.44 37.0192 157.465 37.8013 156.919 37.8013C156.373 37.8013 156.1 37.4304 156.282 37.0595Z" fill="#F2B5A8"/>
<path d="M154.223 32.9681C154.471 32.9826 154.425 32.6386 154.371 32.4648C154.12 32.2453 153.77 32.3613 153.711 32.5626C153.652 32.7639 153.913 32.9499 154.223 32.9681Z" fill="#F2B5A8"/>
<path d="M152.829 38.6187C152.985 38.6278 153.034 38.4 152.922 38.302C152.764 38.1639 152.507 38.2139 152.507 38.3636C152.507 38.4956 152.634 38.6072 152.829 38.6187Z" fill="#F2B5A8"/>
<path d="M156.477 33.938C156.633 33.9472 156.682 33.7193 156.57 33.6214C156.412 33.4833 156.155 33.5333 156.155 33.6829C156.155 33.8149 156.282 33.9266 156.477 33.938Z" fill="#F2B5A8"/>
<path d="M153.022 34.1841C153.178 34.1932 153.227 33.9654 153.115 33.8675C152.957 33.7294 152.7 33.7793 152.7 33.929C152.7 34.061 152.827 34.1727 153.022 34.1841Z" fill="#F2B5A8"/>
<path d="M157.709 40.106C157.865 40.1151 157.914 39.8873 157.802 39.7893C157.644 39.6512 157.387 39.7012 157.387 39.8509C157.387 39.9829 157.514 40.0945 157.709 40.106Z" fill="#F2B5A8"/>
<path d="M138.467 40.106C138.623 40.1151 138.672 39.8873 138.56 39.7893C138.402 39.6512 138.145 39.7012 138.145 39.8509C138.145 39.9829 138.272 40.0945 138.467 40.106Z" fill="#F2B5A8"/>
<path d="M141.183 34.2117C141.336 34.1789 141.323 33.9463 141.189 33.8818C141 33.7908 140.765 33.9076 140.805 34.0518C140.84 34.179 140.992 34.2528 141.183 34.2117Z" fill="#F2B5A8"/>
<path d="M146.89 38.2593C147.046 38.2684 147.095 38.0406 146.983 37.9427C146.825 37.8046 146.568 37.8545 146.568 38.0042C146.568 38.1362 146.695 38.2479 146.89 38.2593Z" fill="#F2B5A8"/>
<path d="M141.756 37.6467C141.98 37.5986 141.96 37.258 141.763 37.1634C141.486 37.0302 141.143 37.2013 141.201 37.4125C141.253 37.5988 141.476 37.7068 141.756 37.6467Z" fill="#F2B5A8"/>
<path d="M147.551 33.1196C147.707 33.1288 147.756 32.901 147.644 32.803C147.486 32.6649 147.229 32.7149 147.229 32.8646C147.229 32.9966 147.356 33.1082 147.551 33.1196Z" fill="#F2B5A8"/>
<path d="M143.771 35.8179C143.927 35.827 143.976 35.5992 143.864 35.5012C143.706 35.3632 143.449 35.4131 143.449 35.5628C143.449 35.6948 143.576 35.8064 143.771 35.8179Z" fill="#F2B5A8"/>
<path d="M146.104 32.7546C146.329 32.7111 146.367 32.3235 146.104 32.2026C145.737 32.0346 145.481 32.2274 145.535 32.4404C145.583 32.6282 145.822 32.8089 146.104 32.7546Z" fill="#F2B5A8"/>
<path d="M144.631 26.9472C144.631 24.7672 146.398 23 148.578 23C150.758 23 152.525 24.7672 152.525 26.9472V30.8945H144.631V26.9472Z" fill="url(#paint4_linear_0_1)"/>
<path d="M137.953 30.2455C137.904 30.147 137.975 30.0312 138.085 30.0312H158.894C159.015 30.0312 159.085 30.1688 159.013 30.2666L158.058 31.5741C158.03 31.6123 157.986 31.6348 157.938 31.6348H138.739C138.683 31.6348 138.632 31.6031 138.607 31.553L137.953 30.2455Z" fill="url(#paint5_linear_0_1)"/>
<rect x="144.631" y="27.1924" width="7.89446" height="1.97362" fill="url(#paint6_linear_0_1)"/>
<rect x="148.578" y="64.6914" width="1.48021" height="0.616755" fill="url(#paint7_linear_0_1)"/>
<ellipse cx="154.067" cy="59.3863" rx="0.185026" ry="0.246702" fill="white"/>
<circle cx="147.221" cy="59.6354" r="0.246702" fill="white"/>
<path d="M118.155 54.6514C119.697 51.1003 124.038 52.0047 125.269 53.3832L126.732 65.0099C120.422 66.2391 116.063 59.468 118.155 54.6514Z" fill="#FFC9BA"/>
<path d="M119.521 55.7148C120.581 53.2738 123.565 53.8955 124.41 54.843L125.416 62.8351C121.079 63.68 118.083 59.0256 119.521 55.7148Z" fill="#FEB9A7"/>
<path d="M179.73 54.6514C178.187 51.1003 173.846 52.0047 172.616 53.3832L171.153 65.0099C177.463 66.2391 181.821 59.468 179.73 54.6514Z" fill="#FFC3B3"/>
<circle cx="152.032" cy="65.0621" r="2.03529" stroke="url(#paint8_linear_0_1)" stroke-width="0.370053"/>
<circle cx="146.604" cy="65.0621" r="2.03529" stroke="url(#paint9_linear_0_1)" stroke-width="0.370053"/>
<path d="M177.788 55.7148C176.728 53.2738 173.744 53.8955 172.898 54.843L171.893 62.8351C176.23 63.68 179.226 59.0256 177.788 55.7148Z" fill="#FEB9A7"/>
<path d="M170.847 92.9104L180.243 83.7501L189.638 92.9104L180.243 102.071L170.847 92.9104Z" fill="#FFA28D"/>
<path d="M177.445 86.4774L182.143 81.8972C184.738 79.3676 188.944 79.3676 191.539 81.8972C194.134 84.4267 194.134 88.528 191.539 91.0576L186.841 95.6378L177.445 86.4774Z" fill="#FFA28D"/>
<path d="M168.946 91.0576C166.351 88.528 166.351 84.4267 168.946 81.8972C171.541 79.3676 175.747 79.3676 178.342 81.8972L183.04 86.4774L173.644 95.6378L168.946 91.0576Z" fill="#FFA28D"/>
<circle cx="193" cy="95.2344" r="6" fill="url(#paint10_radial_0_1)"/>
<circle cx="193" cy="95.2344" r="6" fill="url(#paint11_linear_0_1)" fill-opacity="0.2"/>
<circle cx="169" cy="95.2344" r="6" fill="url(#paint12_radial_0_1)"/>
<circle cx="169" cy="95.2344" r="6" fill="url(#paint13_linear_0_1)" fill-opacity="0.2"/>
<defs>
<radialGradient id="paint0_radial_0_1" cx="0" cy="0" r="1" gradientUnits="userSpaceOnUse" gradientTransform="translate(213.956 55.702) rotate(56.1369) scale(32.5077 41.8706)">
<stop stop-color="#FFD3CA"/>
<stop offset="0.706891" stop-color="#FFBEAA"/>
<stop offset="1" stop-color="#F7D8C7"/>
</radialGradient>
<linearGradient id="paint1_linear_0_1" x1="211.283" y1="36.7066" x2="215.819" y2="82.649" gradientUnits="userSpaceOnUse">
<stop stop-color="white"/>
<stop offset="1" stop-color="#FFBBBB"/>
</linearGradient>
<radialGradient id="paint2_radial_0_1" cx="0" cy="0" r="1" gradientUnits="userSpaceOnUse" gradientTransform="translate(147.571 54.7382) rotate(56.7375) scale(35.5711 45.4129)">
<stop stop-color="#FFD3CA"/>
<stop offset="0.706891" stop-color="#FFBEAA"/>
<stop offset="1" stop-color="#F7D8C7"/>
</radialGradient>
<linearGradient id="paint3_linear_0_1" x1="144.693" y1="33.8077" x2="149.803" y2="84.4077" gradientUnits="userSpaceOnUse">
<stop stop-color="white"/>
<stop offset="1" stop-color="#FFBBBB"/>
</linearGradient>
<linearGradient id="paint4_linear_0_1" x1="148.578" y1="23" x2="148.578" y2="30.8945" gradientUnits="userSpaceOnUse">
<stop/>
<stop offset="1" stop-color="#464646"/>
</linearGradient>
<linearGradient id="paint5_linear_0_1" x1="148.516" y1="30.0312" x2="148.516" y2="31.6348" gradientUnits="userSpaceOnUse">
<stop/>
<stop offset="1" stop-color="#464646"/>
</linearGradient>
<linearGradient id="paint6_linear_0_1" x1="148.886" y1="27.1924" x2="143.459" y2="27.1924" gradientUnits="userSpaceOnUse">
<stop stop-color="#D9D9D9"/>
<stop offset="1" stop-color="#D9D9D9" stop-opacity="0"/>
</linearGradient>
<linearGradient id="paint7_linear_0_1" x1="149.376" y1="64.6914" x2="148.358" y2="64.6914" gradientUnits="userSpaceOnUse">
<stop/>
<stop offset="1" stop-color="#787878"/>
</linearGradient>
<linearGradient id="paint8_linear_0_1" x1="152.032" y1="62.8418" x2="152.032" y2="67.2824" gradientUnits="userSpaceOnUse">
<stop stop-color="#494949"/>
<stop offset="1" stop-color="#C5C5C5" stop-opacity="0.99"/>
</linearGradient>
<linearGradient id="paint9_linear_0_1" x1="146.604" y1="62.8418" x2="146.604" y2="67.2824" gradientUnits="userSpaceOnUse">
<stop stop-color="#494949"/>
<stop offset="1" stop-color="#C5C5C5" stop-opacity="0.99"/>
</linearGradient>
<radialGradient id="paint10_radial_0_1" cx="0" cy="0" r="1" gradientUnits="userSpaceOnUse" gradientTransform="translate(192.635 94.9735) rotate(56.7375) scale(8.65119 11.0448)">
<stop stop-color="#FFD3CA"/>
<stop offset="0.706891" stop-color="#FFBEAA"/>
<stop offset="1" stop-color="#F7D8C7"/>
</radialGradient>
<linearGradient id="paint11_linear_0_1" x1="191.935" y1="89.883" x2="193.178" y2="102.189" gradientUnits="userSpaceOnUse">
<stop stop-color="white"/>
<stop offset="1" stop-color="#FFBBBB"/>
</linearGradient>
<radialGradient id="paint12_radial_0_1" cx="0" cy="0" r="1" gradientUnits="userSpaceOnUse" gradientTransform="translate(168.635 94.9735) rotate(56.7375) scale(8.65119 11.0448)">
<stop stop-color="#FFD3CA"/>
<stop offset="0.706891" stop-color="#FFBEAA"/>
<stop offset="1" stop-color="#F7D8C7"/>
</radialGradient>
<linearGradient id="paint13_linear_0_1" x1="167.935" y1="89.883" x2="169.178" y2="102.189" gradientUnits="userSpaceOnUse">
<stop stop-color="white"/>
<stop offset="1" stop-color="#FFBBBB"/>
</linearGradient>
</defs>
</svg>
