<svg width="80" height="74" viewBox="0 0 80 74" fill="none" xmlns="http://www.w3.org/2000/svg">
<circle cx="32.0716" cy="32.8108" r="24.6702" fill="url(#paint0_radial_1358_4365)"/>
<circle cx="32.0716" cy="32.8108" r="24.6702" fill="url(#paint1_linear_1358_4365)" fill-opacity="0.2"/>
<ellipse cx="27.062" cy="36.7465" rx="4.64029" ry="6.59195" transform="rotate(7.70697 27.062 36.7465)" fill="white"/>
<ellipse rx="5.05517" ry="6.59195" transform="matrix(-0.990967 0.134107 0.134107 0.990967 36.7612 36.6908)" fill="white"/>
<ellipse rx="1.04848" ry="1.17183" transform="matrix(-1 0 0 1 36.6966 36.6962)" fill="black"/>
<ellipse rx="1.04848" ry="1.11016" transform="matrix(-1 0 0 1 29.7894 36.6678)" fill="black"/>
<path d="M39.9412 27.1509C36.3038 25.8365 33.8586 28.1192 32.932 29.9731C32.8425 30.1521 33.0057 30.3266 33.1745 30.219C33.9241 29.7413 34.3465 28.6366 36.8145 27.6499C41.091 25.9403 42.4924 32.219 42.7278 34.4469C42.7513 34.6699 42.9235 34.7035 42.9504 34.4808C43.1592 32.7514 42.4056 28.0414 39.9412 27.1509Z" fill="#AE8E8B"/>
<path d="M39.9412 27.1509C36.3038 25.8365 33.8586 28.1192 32.932 29.9731C32.8425 30.1521 33.0057 30.3266 33.1745 30.219C33.9241 29.7413 34.3465 28.6366 36.8145 27.6499C41.091 25.9403 42.4924 32.219 42.7278 34.4469C42.7513 34.6699 42.9235 34.7035 42.9504 34.4808C43.1592 32.7514 42.4056 28.0414 39.9412 27.1509Z" fill="black" fill-opacity="0.2"/>
<path d="M39.9412 27.1509C36.3038 25.8365 33.8586 28.1192 32.932 29.9731C32.8425 30.1521 33.0057 30.3266 33.1745 30.219C33.9241 29.7413 34.3465 28.6366 36.8145 27.6499C41.091 25.9403 42.4924 32.219 42.7278 34.4469C42.7513 34.6699 42.9235 34.7035 42.9504 34.4808C43.1592 32.7514 42.4056 28.0414 39.9412 27.1509Z" fill="black" fill-opacity="0.2"/>
<path d="M28.4709 26.8859C24.6507 26.2007 22.1767 30.0724 21.5201 32.2266C21.4617 32.4181 21.641 32.5435 21.7679 32.3886C22.5115 31.481 22.9066 29.0807 25.3639 27.9254C28.2011 26.5915 30.3887 28.498 31.2231 29.7141C31.3274 29.8661 31.548 29.8672 31.5823 29.6862C31.7449 28.8292 31.0545 27.3493 28.4709 26.8859Z" fill="#AE8E8B"/>
<path d="M28.4709 26.8859C24.6507 26.2007 22.1767 30.0724 21.5201 32.2266C21.4617 32.4181 21.641 32.5435 21.7679 32.3886C22.5115 31.481 22.9066 29.0807 25.3639 27.9254C28.2011 26.5915 30.3887 28.498 31.2231 29.7141C31.3274 29.8661 31.548 29.8672 31.5823 29.6862C31.7449 28.8292 31.0545 27.3493 28.4709 26.8859Z" fill="black" fill-opacity="0.2"/>
<path d="M28.4709 26.8859C24.6507 26.2007 22.1767 30.0724 21.5201 32.2266C21.4617 32.4181 21.641 32.5435 21.7679 32.3886C22.5115 31.481 22.9066 29.0807 25.3639 27.9254C28.2011 26.5915 30.3887 28.498 31.2231 29.7141C31.3274 29.8661 31.548 29.8672 31.5823 29.6862C31.7449 28.8292 31.0545 27.3493 28.4709 26.8859Z" fill="black" fill-opacity="0.2"/>
<path d="M26.2505 49.1002C25.9614 49.0454 26.0511 48.8958 26.1607 48.7412C25.347 49.1482 25.2239 49.9942 25.6324 50.0178C26.3205 50.0575 29.9654 53.3868 34.18 52.3324C39.0065 51.1249 42.5209 44.9099 41.384 44.6857L40.6548 44.4157L40.6548 45.1174C40.4589 45.7959 39.0678 50.4302 34.18 51.9006C30.2581 53.0806 26.7992 49.2043 26.2505 49.1002Z" fill="#CC6767"/>
<path d="M40.5121 44.2492C40.4796 44.2207 40.1428 43.7637 40.1675 43.749C40.0362 43.7505 39.7236 44.2924 39.7734 44.3247C39.8574 44.3792 40.616 44.7232 41.222 44.8684C41.9159 45.0348 42.8962 44.372 42.7687 44.2589L42.6878 44.1157L42.5142 44.0616C42.3683 44.0885 42.0507 44.7305 41.3304 44.598C40.7524 44.4917 40.574 44.3032 40.5121 44.2492Z" fill="#CC6767"/>
<path d="M33.3693 9.65424C33.2176 9.37136 32.3579 9.53637 31.947 9.65424C31.5678 10.0078 32.1367 10.3615 32.7056 10.3615C33.2745 10.3615 33.5589 10.0078 33.3693 9.65424Z" fill="#F2B5A8"/>
<path d="M31.0746 11.878C30.9346 11.6356 30.1411 11.777 29.7618 11.878C29.4117 12.1811 29.9368 12.4842 30.462 12.4842C30.9871 12.4842 31.2497 12.1811 31.0746 11.878Z" fill="#F2B5A8"/>
<path d="M22.053 12.8023C22.1149 12.4863 22.9461 12.4305 23.3539 12.4421C23.7969 12.693 23.3725 13.1841 22.8521 13.3281C22.3318 13.4722 21.9755 13.1972 22.053 12.8023Z" fill="#F2B5A8"/>
<path d="M39.282 14.0595C39.4276 13.7629 39.6506 13.772 40.0451 13.8956C40.4396 14.0192 40.4654 14.8013 39.9192 14.8013C39.373 14.8013 39.0999 14.4304 39.282 14.0595Z" fill="#F2B5A8"/>
<path d="M37.2229 9.9681C37.471 9.98265 37.4248 9.63861 37.3706 9.46477C37.1196 9.24527 36.7699 9.36128 36.7108 9.56261C36.6517 9.76395 36.9127 9.94992 37.2229 9.9681Z" fill="#F2B5A8"/>
<path d="M35.8293 15.6187C35.9854 15.6278 36.0342 15.4 35.9222 15.302C35.7643 15.1639 35.5071 15.2139 35.5071 15.3636C35.5071 15.4956 35.6341 15.6072 35.8293 15.6187Z" fill="#F2B5A8"/>
<path d="M39.4767 10.938C39.6329 10.9472 39.6817 10.7193 39.5697 10.6214C39.4118 10.4833 39.1546 10.5333 39.1546 10.6829C39.1546 10.8149 39.2816 10.9266 39.4767 10.938Z" fill="#F2B5A8"/>
<path d="M36.0217 11.1841C36.1778 11.1932 36.2266 10.9654 36.1146 10.8675C35.9567 10.7294 35.6995 10.7793 35.6995 10.929C35.6995 11.061 35.8265 11.1727 36.0217 11.1841Z" fill="#F2B5A8"/>
<path d="M40.7092 17.106C40.8653 17.1151 40.9141 16.8873 40.8021 16.7893C40.6442 16.6512 40.387 16.7012 40.387 16.8509C40.387 16.9829 40.514 17.0945 40.7092 17.106Z" fill="#F2B5A8"/>
<path d="M21.467 17.106C21.6231 17.1151 21.6719 16.8873 21.5599 16.7893C21.402 16.6512 21.1448 16.7012 21.1448 16.8509C21.1448 16.9829 21.2718 17.0945 21.467 17.106Z" fill="#F2B5A8"/>
<path d="M24.1834 11.2117C24.3363 11.1789 24.3226 10.9463 24.1885 10.8818C23.9995 10.7908 23.765 10.9076 23.8049 11.0518C23.8401 11.179 23.9923 11.2528 24.1834 11.2117Z" fill="#F2B5A8"/>
<path d="M29.8898 15.2593C30.0459 15.2684 30.0948 15.0406 29.9828 14.9427C29.8249 14.8046 29.5677 14.8545 29.5677 15.0042C29.5677 15.1362 29.6947 15.2479 29.8898 15.2593Z" fill="#F2B5A8"/>
<path d="M24.7557 14.6467C24.9796 14.5986 24.9595 14.258 24.7632 14.1634C24.4863 14.0302 24.1428 14.2013 24.2013 14.4125C24.2529 14.5988 24.4758 14.7068 24.7557 14.6467Z" fill="#F2B5A8"/>
<path d="M30.551 10.1196C30.7071 10.1288 30.7559 9.90098 30.6439 9.803C30.486 9.66492 30.2288 9.71489 30.2288 9.86456C30.2288 9.99656 30.3558 10.1082 30.551 10.1196Z" fill="#F2B5A8"/>
<path d="M26.7707 12.8179C26.9268 12.827 26.9756 12.5992 26.8637 12.5012C26.7057 12.3632 26.4485 12.4131 26.4485 12.5628C26.4485 12.6948 26.5755 12.8064 26.7707 12.8179Z" fill="#F2B5A8"/>
<path d="M29.1035 9.75459C29.329 9.71112 29.3671 9.32352 29.1035 9.20259C28.7372 9.0346 28.4809 9.22743 28.5351 9.44039C28.5829 9.62822 28.8217 9.80893 29.1035 9.75459Z" fill="#F2B5A8"/>
<path d="M27.6309 3.94723C27.6309 1.76723 29.3981 0 31.5781 0C33.7581 0 35.5253 1.76724 35.5253 3.94723V7.89446H27.6309V3.94723Z" fill="url(#paint2_linear_1358_4365)"/>
<path d="M20.9528 7.24547C20.9036 7.14705 20.9752 7.03125 21.0852 7.03125H41.8939C42.0151 7.03125 42.0849 7.16881 42.0134 7.26661L41.0579 8.57413C41.0301 8.61227 40.9857 8.63481 40.9384 8.63481H21.739C21.6829 8.63481 21.6316 8.60314 21.6066 8.55299L20.9528 7.24547Z" fill="url(#paint3_linear_1358_4365)"/>
<rect x="27.6309" y="4.19238" width="7.89446" height="1.97362" fill="url(#paint4_linear_1358_4365)"/>
<rect x="31.5781" y="41.6914" width="1.48021" height="0.616755" fill="url(#paint5_linear_1358_4365)"/>
<ellipse cx="37.0669" cy="36.3863" rx="0.185026" ry="0.246702" fill="white"/>
<circle cx="30.2213" cy="36.6354" r="0.246702" fill="white"/>
<path d="M1.15524 31.6514C2.69748 28.1003 7.03839 29.0047 8.26862 30.3832L9.73179 42.0099C3.42164 43.2391 -0.936645 36.468 1.15524 31.6514Z" fill="#FFC9BA"/>
<path d="M2.52066 32.7148C3.58078 30.2738 6.56466 30.8955 7.41031 31.843L8.41607 39.8351C4.07856 40.68 1.08272 36.0256 2.52066 32.7148Z" fill="#FEB9A7"/>
<path d="M62.7295 31.6514C61.1873 28.1003 56.8464 29.0047 55.6161 30.3832L54.153 42.0099C60.4631 43.2391 64.8214 36.468 62.7295 31.6514Z" fill="#FFC3B3"/>
<circle cx="35.0318" cy="42.0621" r="2.03529" stroke="url(#paint6_linear_1358_4365)" stroke-width="0.370053"/>
<circle cx="29.6041" cy="42.0621" r="2.03529" stroke="url(#paint7_linear_1358_4365)" stroke-width="0.370053"/>
<path d="M60.7879 32.7148C59.7278 30.2738 56.7439 30.8955 55.8983 31.843L54.8925 39.8351C59.23 40.68 62.2259 36.0256 60.7879 32.7148Z" fill="#FEB9A7"/>
<path d="M51.8465 63.9104L61.2425 54.7501L70.6385 63.9104L61.2425 73.0708L51.8465 63.9104Z" fill="#FFA28D"/>
<path d="M58.445 57.4774L63.143 52.8972C65.7377 50.3676 69.9444 50.3676 72.539 52.8972C75.1337 55.4267 75.1337 59.528 72.539 62.0576L67.841 66.6378L58.445 57.4774Z" fill="#FFA28D"/>
<path d="M49.946 62.0576C47.3513 59.528 47.3513 55.4267 49.946 52.8972C52.5406 50.3676 56.7473 50.3676 59.342 52.8972L64.04 57.4774L54.644 66.6378L49.946 62.0576Z" fill="#FFA28D"/>
<circle cx="74" cy="66.2344" r="6" fill="url(#paint8_radial_1358_4365)"/>
<circle cx="74" cy="66.2344" r="6" fill="url(#paint9_linear_1358_4365)" fill-opacity="0.2"/>
<circle cx="50" cy="66.2344" r="6" fill="url(#paint10_radial_1358_4365)"/>
<circle cx="50" cy="66.2344" r="6" fill="url(#paint11_linear_1358_4365)" fill-opacity="0.2"/>
<defs>
<radialGradient id="paint0_radial_1358_4365" cx="0" cy="0" r="1" gradientUnits="userSpaceOnUse" gradientTransform="translate(30.5709 31.7382) rotate(56.7375) scale(35.5711 45.4129)">
<stop stop-color="#FFD3CA"/>
<stop offset="0.706891" stop-color="#FFBEAA"/>
<stop offset="1" stop-color="#F7D8C7"/>
</radialGradient>
<linearGradient id="paint1_linear_1358_4365" x1="27.6926" y1="10.8077" x2="32.803" y2="61.4077" gradientUnits="userSpaceOnUse">
<stop stop-color="white"/>
<stop offset="1" stop-color="#FFBBBB"/>
</linearGradient>
<linearGradient id="paint2_linear_1358_4365" x1="31.5781" y1="0" x2="31.5781" y2="7.89446" gradientUnits="userSpaceOnUse">
<stop/>
<stop offset="1" stop-color="#464646"/>
</linearGradient>
<linearGradient id="paint3_linear_1358_4365" x1="31.5156" y1="7.03125" x2="31.5156" y2="8.63481" gradientUnits="userSpaceOnUse">
<stop/>
<stop offset="1" stop-color="#464646"/>
</linearGradient>
<linearGradient id="paint4_linear_1358_4365" x1="31.8865" y1="4.19238" x2="26.459" y2="4.19238" gradientUnits="userSpaceOnUse">
<stop stop-color="#D9D9D9"/>
<stop offset="1" stop-color="#D9D9D9" stop-opacity="0"/>
</linearGradient>
<linearGradient id="paint5_linear_1358_4365" x1="32.3761" y1="41.6914" x2="31.3584" y2="41.6914" gradientUnits="userSpaceOnUse">
<stop/>
<stop offset="1" stop-color="#787878"/>
</linearGradient>
<linearGradient id="paint6_linear_1358_4365" x1="35.0318" y1="39.8418" x2="35.0318" y2="44.2824" gradientUnits="userSpaceOnUse">
<stop stop-color="#494949"/>
<stop offset="1" stop-color="#C5C5C5" stop-opacity="0.99"/>
</linearGradient>
<linearGradient id="paint7_linear_1358_4365" x1="29.6041" y1="39.8418" x2="29.6041" y2="44.2824" gradientUnits="userSpaceOnUse">
<stop stop-color="#494949"/>
<stop offset="1" stop-color="#C5C5C5" stop-opacity="0.99"/>
</linearGradient>
<radialGradient id="paint8_radial_1358_4365" cx="0" cy="0" r="1" gradientUnits="userSpaceOnUse" gradientTransform="translate(73.635 65.9735) rotate(56.7375) scale(8.65119 11.0448)">
<stop stop-color="#FFD3CA"/>
<stop offset="0.706891" stop-color="#FFBEAA"/>
<stop offset="1" stop-color="#F7D8C7"/>
</radialGradient>
<linearGradient id="paint9_linear_1358_4365" x1="72.935" y1="60.883" x2="74.1779" y2="73.1894" gradientUnits="userSpaceOnUse">
<stop stop-color="white"/>
<stop offset="1" stop-color="#FFBBBB"/>
</linearGradient>
<radialGradient id="paint10_radial_1358_4365" cx="0" cy="0" r="1" gradientUnits="userSpaceOnUse" gradientTransform="translate(49.635 65.9735) rotate(56.7375) scale(8.65119 11.0448)">
<stop stop-color="#FFD3CA"/>
<stop offset="0.706891" stop-color="#FFBEAA"/>
<stop offset="1" stop-color="#F7D8C7"/>
</radialGradient>
<linearGradient id="paint11_linear_1358_4365" x1="48.935" y1="60.883" x2="50.1779" y2="73.1894" gradientUnits="userSpaceOnUse">
<stop stop-color="white"/>
<stop offset="1" stop-color="#FFBBBB"/>
</linearGradient>
</defs>
</svg>
