<svg width="32" height="51" viewBox="0 0 32 51" fill="none" xmlns="http://www.w3.org/2000/svg">
<path d="M24.2433 6.36642L17.9845 1.50981C17.1018 0.830063 15.8803 0.830063 14.9977 1.50981L8.74776 6.36642L1.94507 11.6434C1.34771 12.1085 1 12.824 1 13.5842V29.5493C1 30.8999 2.09663 32 3.44291 32H29.5481C30.8944 32 31.9911 30.8999 31.9911 29.5493V13.5753C31.9911 12.8151 31.6433 12.0995 31.046 11.6344L24.2433 6.35747V6.36642Z" fill="#E6E6E6"/>
<circle cx="12.8062" cy="20.1851" r="4.42729" fill="white"/>
<circle cx="21.6597" cy="20.1851" r="4.42729" fill="white"/>
<circle cx="14.2824" cy="20.1843" r="1.47576" fill="#BEBEBE"/>
<circle cx="23.1379" cy="20.1843" r="1.47576" fill="#BEBEBE"/>
<path d="M20.7041 50.0117H12.2412V46.4707H20.7041V50.0117ZM10.9014 44.6113H15.8369V43.7773C14.7432 43.7318 13.9046 43.5632 13.3213 43.2715C12.7425 42.9798 12.4554 42.5742 12.46 42.0547C12.4554 41.4896 12.7995 41.0612 13.4922 40.7695C14.1849 40.4733 15.1807 40.3229 16.4795 40.3184C17.7829 40.3229 18.7786 40.4733 19.4668 40.7695C20.1595 41.0612 20.5036 41.4896 20.499 42.0547C20.5036 42.5788 20.2165 42.9867 19.6377 43.2783C19.0635 43.5654 18.2295 43.7318 17.1357 43.7773V44.6113H22.0713V45.6367H10.9014V44.6113ZM11.4756 38.8828H15.8369V37.748H17.1357V38.8828H21.4424V39.8809H11.4756V38.8828ZM19.4463 49.0137V47.4688H13.5264V49.0137H19.4463ZM13.8408 42.0547C13.8363 42.3327 14.0596 42.5446 14.5107 42.6904C14.9665 42.8317 15.6227 42.9023 16.4795 42.9023C17.3408 42.9023 17.9948 42.8317 18.4414 42.6904C18.8926 42.5446 19.1182 42.3327 19.1182 42.0547C19.1182 41.5033 18.2386 41.2207 16.4795 41.207C15.6136 41.2161 14.9551 41.2913 14.5039 41.4326C14.0573 41.5693 13.8363 41.7767 13.8408 42.0547Z" fill="#BEBEBE"/>
</svg>
