<svg width="32" height="51" viewBox="0 0 32 51" fill="none" xmlns="http://www.w3.org/2000/svg">
<path d="M24.2433 6.36642L17.9845 1.50981C17.1018 0.830063 15.8803 0.830063 14.9977 1.50981L8.74776 6.36642L1.94507 11.6434C1.34771 12.1085 1 12.824 1 13.5842V29.5493C1 30.8999 2.09663 32 3.44291 32H29.5481C30.8944 32 31.9911 30.8999 31.9911 29.5493V13.5753C31.9911 12.8151 31.6433 12.0995 31.046 11.6344L24.2433 6.35747V6.36642Z" fill="#FF9458"/>
<circle cx="12.8062" cy="20.1851" r="4.42729" fill="white"/>
<circle cx="21.6597" cy="20.1851" r="4.42729" fill="white"/>
<circle cx="14.2824" cy="20.1843" r="1.47576" fill="black"/>
<circle cx="23.1379" cy="20.1843" r="1.47576" fill="black"/>
<path d="M20.7041 46.4707H12.2412V50.0117H20.7041V46.4707ZM10.9014 45.6367H22.0713V44.6113H17.1357V43.7773C19.3096 43.6885 20.5059 43.1074 20.499 42.0547C20.5059 40.9131 19.0635 40.3252 16.4795 40.3184C13.9092 40.3252 12.4531 40.9131 12.46 42.0547C12.4531 43.1074 13.6699 43.6885 15.8369 43.7773V44.6113H10.9014V45.6367ZM11.4756 39.8809H21.4424V38.8828H17.1357V37.748H15.8369V38.8828H11.4756V39.8809ZM13.5264 49.0137V47.4688H19.4463V49.0137H13.5264ZM13.8408 42.0547C13.834 41.4941 14.7705 41.2207 16.4795 41.207C18.2021 41.2207 19.1182 41.4941 19.1182 42.0547C19.1182 42.6084 18.2021 42.9023 16.4795 42.9023C14.7705 42.9023 13.834 42.6084 13.8408 42.0547Z" fill="#FF9458"/>
</svg>
