<svg width="32" height="51" viewBox="0 0 32 51" fill="none" xmlns="http://www.w3.org/2000/svg">
<path d="M15.0219 44.8135H3.85481V45.8722H8.77125V50.1554H10.0475V45.8722H15.0219V44.8135ZM4.47843 42.8605L4.96669 43.8854C6.94873 43.5711 8.68423 42.5801 9.43354 41.183C10.1828 42.5801 11.9183 43.5711 13.9246 43.8854L14.4032 42.8605C12.0924 42.5511 10.2022 41.183 10.1732 39.6747H13.9729V38.6402H4.88934V39.6747H8.70357C8.66006 41.183 6.76503 42.5511 4.47843 42.8605ZM21.6202 45.5435C19.0725 45.5435 17.511 46.3847 17.511 47.8398C17.511 49.3046 19.0725 50.1506 21.6202 50.1602C24.1485 50.1506 25.6906 49.3046 25.6906 47.8398C25.6906 46.3847 24.1485 45.5435 21.6202 45.5435ZM16.4233 44.3591H22.2003V38.674H20.9144V40.4434H17.7044V38.674H16.4233V44.3591ZM17.7044 43.3246V41.4586H20.9144V43.3246H17.7044ZM18.8115 47.8398C18.8018 47.0228 19.8508 46.5684 21.6202 46.5587C23.3847 46.5684 24.4192 47.0228 24.4192 47.8398C24.4192 48.6568 23.3847 49.1257 21.6202 49.1257C19.8508 49.1257 18.8018 48.6568 18.8115 47.8398ZM24.279 45.2293H25.5794V42.0097H27.3536V40.9123H25.5794V37.9102H24.279V45.2293Z" fill="#FF9458"/>
<path fill-rule="evenodd" clip-rule="evenodd" d="M7.5249 19.5392C3.86129 19.1754 1 16.0843 1 12.325C1 8.3209 4.24594 5.07497 8.25 5.07497C8.36046 5.07497 8.47034 5.07744 8.5796 5.08233C9.50117 2.13712 12.251 -3.25521e-05 15.5 -3.25521e-05C18.749 -3.25521e-05 21.4988 2.13712 22.4204 5.08233C22.5297 5.07744 22.6395 5.07497 22.75 5.07497C26.7541 5.07497 30 8.3209 30 12.325C30 16.329 26.7541 19.575 22.75 19.575C22.75 19.575 22.7499 19.575 22.7499 19.575V28.7252H7.5249V19.5392Z" fill="#FF9458"/>
<path d="M7.52539 28.2744H22.7504V29.1744C22.7504 30.279 21.855 31.1744 20.7504 31.1744H9.52539C8.42082 31.1744 7.52539 30.279 7.52539 29.1744V28.2744Z" fill="#FFE094"/>
<path d="M15.4004 28.2744L15.4004 20.9994C15.4004 20.6128 15.087 20.2994 14.7004 20.2994C14.3138 20.2994 14.0004 20.6128 14.0004 20.9994L14.0004 28.2744L15.4004 28.2744Z" fill="white"/>
<path d="M12.4004 28.2744L12.4004 23.1744C12.4004 22.7878 12.087 22.4744 11.7004 22.4744C11.3138 22.4744 11.0004 22.7878 11.0004 23.1744L11.0004 28.2744L12.4004 28.2744Z" fill="white"/>
</svg>
